<svg width="570" height="422" viewBox="0 0 570 422" fill="none" xmlns="http://www.w3.org/2000/svg">
<path d="M474.39 15H83.3016C72.3131 15 62.234 16.3695 54.3596 18.6495C47.8876 21.4235 44 24.9741 44 28.8448V104H520V31.0675C520 22.1935 499.58 15 474.39 15Z" fill="#FD2E25"/>
<path d="M44 253V104H520V253H44Z" fill="white"/>
<path d="M103.57 413.484C124.766 413.484 141.949 396.301 141.949 375.105C141.949 353.908 124.766 336.725 103.57 336.725C82.3734 336.725 65.1904 353.908 65.1904 375.105C65.1904 396.301 82.3734 413.484 103.57 413.484Z" fill="#5A5A5A"/>
<path d="M180.328 413.484C201.524 413.484 218.707 396.301 218.707 375.105C218.707 353.908 201.524 336.725 180.328 336.725C159.132 336.725 141.949 353.908 141.949 375.105C141.949 396.301 159.132 413.484 180.328 413.484Z" fill="#5A5A5A"/>
<path d="M389.672 413.484C410.868 413.484 428.051 396.301 428.051 375.105C428.051 353.908 410.868 336.725 389.672 336.725C368.476 336.725 351.293 353.908 351.293 375.105C351.293 396.301 368.476 413.484 389.672 413.484Z" fill="#5A5A5A"/>
<path d="M466.43 413.484C487.627 413.484 504.81 396.301 504.81 375.105C504.81 353.908 487.627 336.725 466.43 336.725C445.234 336.725 428.051 353.908 428.051 375.105C428.051 396.301 445.234 413.484 466.43 413.484Z" fill="#5A5A5A"/>
<path d="M526.22 291.103V248.281H43.7798V291.103C43.7798 316.3 64.2063 336.727 89.4032 336.727H480.597C505.794 336.725 526.22 316.299 526.22 291.103Z" fill="#FD2E25"/>
<path d="M482.04 248.281V291.102C482.04 316.299 461.613 336.724 436.416 336.724H480.597C505.794 336.724 526.22 316.298 526.22 291.102V248.281H482.04Z" fill="#B12821"/>
<path d="M103.57 336.725C98.551 336.725 93.7628 337.698 89.3687 339.451C103.532 345.097 113.547 358.927 113.547 375.105C113.547 391.282 103.533 405.112 89.3687 410.759C93.7628 412.51 98.551 413.484 103.57 413.484C124.765 413.484 141.949 396.301 141.949 375.105C141.949 353.908 124.767 336.725 103.57 336.725Z" fill="#444444"/>
<path d="M180.328 336.725C175.31 336.725 170.521 337.698 166.127 339.451C180.29 345.097 190.305 358.927 190.305 375.105C190.305 391.282 180.291 405.112 166.127 410.759C170.521 412.51 175.31 413.484 180.328 413.484C201.524 413.484 218.707 396.301 218.707 375.105C218.707 353.908 201.524 336.725 180.328 336.725Z" fill="#444444"/>
<path d="M389.672 336.725C384.653 336.725 379.865 337.698 375.471 339.451C389.634 345.097 399.649 358.927 399.649 375.105C399.649 391.282 389.635 405.112 375.471 410.759C379.865 412.51 384.653 413.484 389.672 413.484C410.868 413.484 428.051 396.301 428.051 375.105C428.051 353.908 410.869 336.725 389.672 336.725Z" fill="#444444"/>
<path d="M466.43 336.725C461.412 336.725 456.623 337.698 452.229 339.451C466.393 345.097 476.408 358.927 476.408 375.105C476.408 391.282 466.394 405.112 452.229 410.759C456.623 412.51 461.412 413.484 466.43 413.484C487.626 413.484 504.81 396.301 504.81 375.105C504.81 353.908 487.626 336.725 466.43 336.725Z" fill="#444444"/>
<path d="M103.57 387.878C110.624 387.878 116.343 382.159 116.343 375.105C116.343 368.05 110.624 362.331 103.57 362.331C96.5149 362.331 90.7959 368.05 90.7959 375.105C90.7959 382.159 96.5149 387.878 103.57 387.878Z" fill="#BFBFBF"/>
<path d="M180.328 387.878C187.383 387.878 193.102 382.159 193.102 375.105C193.102 368.05 187.383 362.331 180.328 362.331C173.273 362.331 167.554 368.05 167.554 375.105C167.554 382.159 173.273 387.878 180.328 387.878Z" fill="#BFBFBF"/>
<path d="M389.672 387.878C396.727 387.878 402.446 382.159 402.446 375.105C402.446 368.05 396.727 362.331 389.672 362.331C382.617 362.331 376.898 368.05 376.898 375.105C376.898 382.159 382.617 387.878 389.672 387.878Z" fill="#BFBFBF"/>
<path d="M466.43 387.878C473.485 387.878 479.204 382.159 479.204 375.105C479.204 368.05 473.485 362.331 466.43 362.331C459.376 362.331 453.657 368.05 453.657 375.105C453.657 382.159 459.376 387.878 466.43 387.878Z" fill="#BFBFBF"/>
<path d="M37 104C37 99.5815 40.5817 95.9998 45 95.9998H520C524.418 95.9998 528 99.5815 528 104C528 108.418 524.418 112 520 112H45C40.5817 112 37 108.418 37 104Z" fill="black"/>
<path d="M561.65 226.341C557.038 226.341 553.301 230.078 553.301 234.691V259.187H534.57V248.28V54.1398C534.57 24.3796 510.357 0.167969 480.597 0.167969H89.4043C59.644 0.167969 35.4313 24.3796 35.4313 54.1398V103.81C35.4313 108.422 39.1686 112.16 43.7809 112.16C48.3932 112.16 52.1305 108.422 52.1305 103.81V54.1398C52.1305 33.5875 68.852 16.8672 89.4043 16.8672H480.597C501.15 16.8672 517.871 33.5887 517.871 54.1398V239.932H52.1294V134.774C52.1294 130.161 48.3921 126.424 43.7798 126.424C39.1675 126.424 35.4302 130.161 35.4302 134.774V259.187H16.6992V234.691C16.6992 230.078 12.9619 226.341 8.34961 226.341C3.73729 226.341 0 230.078 0 234.691V290.021C0 294.633 3.73729 298.37 8.34961 298.37C12.9619 298.37 16.6992 294.633 16.6992 290.021V275.887H35.4302V291.102C35.4302 314.346 50.2001 334.206 70.847 341.788C62.2113 350.272 56.8408 362.071 56.8408 375.104C56.8408 400.871 77.8028 421.833 103.57 421.833C119.453 421.833 133.501 413.862 141.949 401.716C150.396 413.862 164.445 421.833 180.328 421.833C206.095 421.833 227.057 400.871 227.057 375.104C227.057 363.679 222.929 353.203 216.093 345.075H289.041C293.654 345.075 297.391 341.337 297.391 336.725C297.391 332.113 293.654 328.375 289.041 328.375H89.4032C68.8509 328.375 52.1305 311.654 52.1305 291.102V256.63H517.872V291.102C517.872 311.655 501.15 328.375 480.599 328.375H328.006C323.394 328.375 319.656 332.113 319.656 336.725C319.656 341.337 323.394 345.075 328.006 345.075H353.908C347.072 353.203 342.944 363.678 342.944 375.104C342.944 400.871 363.906 421.833 389.673 421.833C405.556 421.833 419.605 413.862 428.052 401.716C436.5 413.862 450.548 421.833 466.431 421.833C492.198 421.833 513.16 400.871 513.16 375.104C513.16 362.07 507.791 350.272 499.154 341.788C519.801 334.206 534.571 314.346 534.571 291.102V275.887H553.301V290.021C553.301 294.633 557.038 298.37 561.65 298.37C566.263 298.37 570 294.633 570 290.021V234.691C570 230.079 566.263 226.341 561.65 226.341ZM103.57 405.134C87.0118 405.134 73.54 391.662 73.54 375.104C73.54 358.547 87.0118 345.075 103.57 345.075C120.127 345.075 133.599 358.547 133.599 375.104C133.599 391.662 120.127 405.134 103.57 405.134ZM210.357 375.104C210.357 391.662 196.885 405.134 180.327 405.134C163.769 405.134 150.297 391.662 150.297 375.104C150.297 358.547 163.769 345.075 180.327 345.075C196.885 345.075 210.357 358.547 210.357 375.104ZM389.672 405.134C373.114 405.134 359.642 391.662 359.642 375.104C359.642 358.547 373.114 345.075 389.672 345.075C406.23 345.075 419.701 358.547 419.701 375.104C419.701 391.662 406.231 405.134 389.672 405.134ZM466.43 405.134C449.872 405.134 436.401 391.662 436.401 375.104C436.401 358.547 449.872 345.075 466.43 345.075C482.988 345.075 496.46 358.547 496.46 375.104C496.46 391.662 482.988 405.134 466.43 405.134Z" fill="black"/>
<path d="M258.83 275H253.039L245.188 299.14L237.337 275H231.546L220 310.5H227.496L234.459 289.093L241.422 310.5H241.493H248.883H248.989L255.953 289.093L262.916 310.5H270.376L258.83 275Z" fill="#FFFFFE"/>
<path d="M303.203 303.4V275H296.097V303.4H280.786V275H273.68V310.5H306.578L308.887 303.4H303.203Z" fill="#FFFFFE"/>
<path d="M344.058 303.4V275H325.442L316.205 303.4H312.475L310.166 310.5H347.575L349.884 303.4H344.058ZM336.953 303.4H323.666L330.593 282.1H336.953V303.4Z" fill="#FFFFFE"/>
</svg>
