<svg width="108" height="100" viewBox="0 0 108 100" fill="none" xmlns="http://www.w3.org/2000/svg">
<g clip-path="url(#clip0)" filter="url(#filter0_d)">
<path d="M97.406 43.1731H74.192L54 49.8663L33.808 43.1731H10.594C6.95219 43.1731 4 46.1253 4 49.7671V82.2297C4 87.2006 8.02968 91.2303 13.0006 91.2303H94.9994C99.9703 91.2303 104 87.2006 104 82.2297V49.7671C104 46.1253 101.048 43.1731 97.406 43.1731Z" fill="url(#paint0_linear)"/>
<path d="M76.2237 61.6213C76.2237 61.6213 57.0175 70.2265 54 78.7654C50.9822 70.2265 31.7763 61.6213 31.7763 61.6213L9.55237 68.6249V76.0735C9.55237 78.6158 11.8295 80.5644 14.3374 80.1478C28.9502 77.7207 45.5504 80.8365 52.4817 83.9747C53.4448 84.4108 54.555 84.4108 55.5181 83.9747C62.4496 80.8365 79.0496 77.7207 93.6623 80.1478C96.1701 80.5644 98.4474 78.6158 98.4474 76.0735V68.6249L76.2237 61.6213Z" fill="url(#paint1_linear)"/>
<path d="M54 44.7251C50.5829 38.8227 25.6496 34.6406 13.1026 39.3313C10.96 40.1323 9.55261 42.1944 9.55261 44.4819V68.6247C9.55261 71.45 12.2454 73.5348 14.9638 72.7645C27.9616 69.0807 50.7446 73.1422 54.0002 78.7653V44.7251H54Z" fill="url(#paint2_linear)"/>
<path d="M54 44.7251C57.4171 38.8227 82.3504 34.6406 94.8974 39.3313C97.0398 40.1323 98.4474 42.1944 98.4474 44.4819V68.6247C98.4474 71.45 95.7545 73.5348 93.0362 72.7645C80.0384 69.0807 57.2551 73.1422 53.9998 78.7653V44.7251H54Z" fill="url(#paint3_linear)"/>
<path d="M54 38.3751C60.3775 38.3751 65.6972 42.899 66.9275 48.9127C67.2414 50.4476 68.5538 51.5725 70.1203 51.5725H74.5968C76.8344 38.8044 65.3575 30.2687 54 30.2687C42.6424 30.2687 32.0191 37.5528 33.4032 51.5723H37.8796C39.4464 51.5723 40.7585 50.4474 41.0725 48.9125C42.3028 42.8988 47.6225 38.3751 54 38.3751Z" fill="url(#paint4_linear)"/>
<path d="M53.9999 30.9737C65.3575 30.9737 74.5967 40.2149 74.5967 51.5723H81.9981C84.4888 32.9452 69.4388 22.6912 53.9999 22.6912C38.5611 22.6912 23.2928 33.9725 26.0017 51.5723H33.4031C33.4031 40.2147 42.6424 30.9737 53.9999 30.9737Z" fill="url(#paint5_linear)"/>
<path d="M53.9999 23.5723C69.4388 23.5723 81.9981 36.1335 81.9981 51.5723H89.3995C92.2075 31.4609 73.5201 15.1137 53.9999 15.1137C34.4798 15.1137 16.1328 29.6797 18.6005 51.5723H26.0019C26.0017 36.1335 38.5611 23.5723 53.9999 23.5723Z" fill="url(#paint6_linear)"/>
<path d="M54 16.1711C73.5201 16.1711 89.3996 32.0522 89.3996 51.5723H93.4079C95.3083 51.5723 96.8125 49.9512 96.6579 48.057C94.8641 26.0934 76.4163 8.76971 54 8.76971C31.5836 8.76971 13.1358 26.0934 11.342 48.057C11.1874 49.951 12.6916 51.5723 14.592 51.5723H18.6004C18.6006 32.0522 34.4798 16.1711 54 16.1711Z" fill="url(#paint7_linear)"/>
<path d="M68.0865 60.5669C67.7757 59.3406 68.5181 58.0944 69.7444 57.7837C73.2452 56.8966 77.7311 56.4277 82.7171 56.4277C83.9823 56.4277 85.008 57.4532 85.008 58.7185C85.008 59.9838 83.9823 61.0093 82.7171 61.0093C78.105 61.0093 74.0082 61.4297 70.8697 62.2249C69.6466 62.535 68.3982 61.7966 68.0865 60.5669Z" fill="#5B6C82"/>
<path d="M37.1303 62.2249C33.9921 61.4299 29.8953 61.0093 25.2829 61.0093C24.0178 61.0093 22.9921 59.9839 22.9921 58.7185C22.9921 57.4532 24.0178 56.4277 25.2829 56.4277C30.269 56.4277 34.7548 56.8964 38.2556 57.7837C39.4821 58.0944 40.2243 59.3404 39.9136 60.5669C39.603 61.7926 38.3576 62.5358 37.1303 62.2249Z" fill="#5B6C82"/>
<path d="M80.1472 79.3157C69.8711 79.6129 60.3462 81.7886 55.5169 83.9755C54.552 84.4123 53.4492 84.4129 52.4843 83.9761C45.5544 80.8374 28.952 77.7205 14.3375 80.148C11.8297 80.5645 9.55239 78.6159 9.55239 76.0737V44.4821C9.55239 44.0566 9.60139 43.639 9.69462 43.2358C6.47869 43.6747 4 46.4307 4 49.7671V76.7376C4.34183 81.7821 8.54183 85.7819 13.659 85.7819C15.6428 85.7819 18.2687 84.8582 25.4914 84.8582C35.6137 84.8582 45.5739 86.9701 50.1811 89.0558C52.6074 90.1546 55.3885 90.1562 57.8187 89.056C62.3474 87.0056 71.1209 85.1627 80.3118 84.9C81.9128 84.8542 83.1404 83.4607 83.0008 81.8653C82.8723 80.3954 81.6221 79.2731 80.1472 79.3157Z" fill="#997BCE"/>
<path d="M86.5223 31.8628C85.8803 31.8628 85.25 31.553 84.8657 30.9797C84.1896 29.9709 83.4554 28.9843 82.6833 28.0468C81.9839 27.1974 82.1054 25.9422 82.9546 25.2428C83.804 24.543 85.0592 24.6651 85.7588 25.514C86.6137 26.552 87.4267 27.6444 88.1751 28.7612C88.7876 29.6751 88.5434 30.9126 87.6295 31.5251C87.289 31.7534 86.9036 31.8628 86.5223 31.8628Z" fill="#FFFDE3"/>
<path d="M78.4361 23.0735C77.9997 23.0735 77.5602 22.9309 77.1929 22.6371C76.7732 22.3012 76.3387 21.9689 75.9014 21.6492C75.0132 21 74.8194 19.7536 75.4688 18.8653C76.118 17.9771 77.3642 17.7833 78.2525 18.4327C78.7363 18.7863 79.2174 19.1542 79.6821 19.5259C80.5411 20.2131 80.6803 21.4667 79.9931 22.3259C79.5995 22.8177 79.0206 23.0735 78.4361 23.0735Z" fill="#FFFDE3"/>
</g>
<defs>
<filter id="filter0_d" x="0" y="0" width="108" height="108" filterUnits="userSpaceOnUse" color-interpolation-filters="sRGB">
<feFlood flood-opacity="0" result="BackgroundImageFix"/>
<feColorMatrix in="SourceAlpha" type="matrix" values="0 0 0 0 0 0 0 0 0 0 0 0 0 0 0 0 0 0 127 0"/>
<feOffset dy="4"/>
<feGaussianBlur stdDeviation="2"/>
<feColorMatrix type="matrix" values="0 0 0 0 0 0 0 0 0 0 0 0 0 0 0 0 0 0 0.25 0"/>
<feBlend mode="normal" in2="BackgroundImageFix" result="effect1_dropShadow"/>
<feBlend mode="normal" in="SourceGraphic" in2="effect1_dropShadow" result="shape"/>
</filter>
<linearGradient id="paint0_linear" x1="6.11534" y1="67.2016" x2="115.579" y2="67.2016" gradientUnits="userSpaceOnUse">
<stop stop-color="#B39BDB"/>
<stop offset="1" stop-color="#D0C3E8"/>
</linearGradient>
<linearGradient id="paint1_linear" x1="54" y1="71.4355" x2="54" y2="85.9815" gradientUnits="userSpaceOnUse">
<stop stop-color="#CDD4D4"/>
<stop offset="1" stop-color="#F3F3F3"/>
</linearGradient>
<linearGradient id="paint2_linear" x1="54.8765" y1="58.0388" x2="16.2913" y2="58.0388" gradientUnits="userSpaceOnUse">
<stop stop-color="#D9E0E0"/>
<stop offset="1" stop-color="#F3F3F3"/>
</linearGradient>
<linearGradient id="paint3_linear" x1="108.674" y1="58.0388" x2="63.637" y2="58.0388" gradientUnits="userSpaceOnUse">
<stop stop-color="#D9E0E0"/>
<stop offset="1" stop-color="#F3F3F3"/>
</linearGradient>
<linearGradient id="paint4_linear" x1="54.0798" y1="54.788" x2="54.0798" y2="33.1747" gradientUnits="userSpaceOnUse">
<stop stop-color="#74D2E8"/>
<stop offset="1" stop-color="#BAEAF5"/>
</linearGradient>
<linearGradient id="paint5_linear" x1="53.9786" y1="46.4374" x2="53.9786" y2="24.3271" gradientUnits="userSpaceOnUse">
<stop stop-color="#7ED99E"/>
<stop offset="0.2532" stop-color="#81DAA3"/>
<stop offset="0.5725" stop-color="#88DDB3"/>
<stop offset="0.9261" stop-color="#95E2CD"/>
<stop offset="1" stop-color="#98E3D3"/>
</linearGradient>
<linearGradient id="paint6_linear" x1="54.0286" y1="45.3361" x2="54.0286" y2="18.0803" gradientUnits="userSpaceOnUse">
<stop stop-color="#EC6F80"/>
<stop offset="1" stop-color="#ECA0AA"/>
</linearGradient>
<linearGradient id="paint7_linear" x1="54" y1="50.5492" x2="54" y2="8.15457" gradientUnits="userSpaceOnUse">
<stop stop-color="#F4D952"/>
<stop offset="1" stop-color="#F9EDAF"/>
</linearGradient>
<clipPath id="clip0">
<rect width="100" height="100" fill="white" transform="translate(4)"/>
</clipPath>
</defs>
</svg>
