<svg width="140" height="140" viewBox="0 0 140 140" fill="none" xmlns="http://www.w3.org/2000/svg">
<g clip-path="url(#clip0)">
<path d="M110.119 140H12.6363C5.65745 140 0 134.343 0 127.364V74.835C0 67.8562 5.65745 62.1987 12.6363 62.1987H110.119C117.098 62.1987 122.756 67.8562 122.756 74.835V127.364C122.756 134.343 117.098 140 110.119 140Z" fill="url(#paint0_linear)"/>
<path d="M136.299 58.7153L67.3679 127.646C62.433 132.581 54.4324 132.581 49.4975 127.646L12.3537 90.5025C7.41887 85.5677 7.41887 77.567 12.3537 72.6322L81.2848 3.70115C86.2196 -1.23372 94.2203 -1.23372 99.1551 3.70115L136.299 40.8449C141.234 45.7795 141.234 53.7804 136.299 58.7153Z" fill="url(#paint1_linear)"/>
<path d="M110.119 52.4375H84.8168L72.0194 56.0435L59.693 52.4375H45.5519C42.8564 52.4375 40.6714 54.6226 40.6714 57.318C40.6714 60.0134 42.8564 62.1985 45.5519 62.1985H110.12C116.294 62.1985 121.43 66.6274 122.534 72.4807L130.161 64.8529C126.484 57.5006 118.884 52.4375 110.119 52.4375Z" fill="#E05D6F"/>
<path d="M116.338 20.8844L29.5369 107.686L16.9916 95.1408L103.793 8.33936L116.338 20.8844Z" fill="url(#paint2_linear)"/>
<path d="M75.0241 62.1987L84.785 52.4375H59.6949L49.934 62.1987H75.0241Z" fill="#424E5E"/>
<path d="M85.9039 118.224H122.756V74.835C122.756 67.8562 117.098 62.1987 110.119 62.1987H12.6363C5.65745 62.1987 0 67.8562 0 74.835V127.364C0 134.343 5.65745 140 12.6363 140H70.4373L74.659 126.491C76.1963 121.572 80.7513 118.224 85.9039 118.224Z" fill="url(#paint3_linear)"/>
<path d="M39.7195 105.04H19.3063C15.3835 105.04 12.2034 101.86 12.2034 97.9371V95.5995C12.2034 91.6767 15.3835 88.4966 19.3063 88.4966H39.7195C43.6423 88.4966 46.8224 91.6767 46.8224 95.5995V97.9371C46.8224 101.86 43.6423 105.04 39.7195 105.04Z" fill="url(#paint4_linear)"/>
<path d="M76.1787 107.431H64.6443C62.8731 107.431 61.4371 105.995 61.4371 104.224C61.4371 102.453 62.8731 101.017 64.6443 101.017H76.1787C77.9499 101.017 79.3859 102.453 79.3859 104.224C79.3859 105.995 77.9499 107.431 76.1787 107.431Z" fill="#A86455"/>
<path d="M104.014 107.431H92.4795C90.7083 107.431 89.2723 105.995 89.2723 104.224C89.2723 102.453 90.7083 101.017 92.4795 101.017H104.014C105.785 101.017 107.221 102.453 107.221 104.224C107.221 105.995 105.785 107.431 104.014 107.431Z" fill="#A86455"/>
<path d="M59.8389 96.3417C62.1377 96.3417 64.0012 94.8442 64.0012 92.9968C64.0012 91.1494 62.1377 89.6519 59.8389 89.6519C57.5401 89.6519 55.6765 91.1494 55.6765 92.9968C55.6765 94.8442 57.5401 96.3417 59.8389 96.3417Z" fill="#EFC5DB"/>
<path d="M108.82 96.3417C111.118 96.3417 112.982 94.8442 112.982 92.9968C112.982 91.1494 111.118 89.6519 108.82 89.6519C106.521 89.6519 104.658 91.1494 104.658 92.9968C104.658 94.8442 106.521 96.3417 108.82 96.3417Z" fill="#EFC5DB"/>
<path d="M109.818 85.8689C110.464 81.362 107.335 77.1843 102.828 76.5379C98.321 75.8914 94.1434 79.021 93.4969 83.5279C92.8505 88.0349 95.98 92.2125 100.487 92.859C104.994 93.5054 109.172 90.3759 109.818 85.8689Z" fill="white"/>
<path d="M96.7836 85.1577C96.9941 87.6805 99.107 89.6625 101.684 89.6625C104.261 89.6625 106.374 87.6802 106.585 85.1577H96.7836Z" fill="#3B3B44"/>
<path d="M101.684 76.5107C97.1313 76.5107 93.4408 80.2012 93.4408 84.7537C93.4408 84.8893 93.4447 85.0237 93.4511 85.1573H109.916C109.923 85.0234 109.927 84.889 109.927 84.7537C109.927 80.2012 106.236 76.5107 101.684 76.5107Z" fill="#17C5D9"/>
<path d="M75.1454 86.1067C75.8829 81.6134 72.8382 77.373 68.3449 76.6355C63.8516 75.898 59.6112 78.9427 58.8737 83.436C58.1362 87.9292 61.1809 92.1696 65.6742 92.9071C70.1675 93.6446 74.4079 90.6 75.1454 86.1067Z" fill="white"/>
<path d="M62.0741 85.1577C62.2847 87.6805 64.3975 89.6625 66.9747 89.6625C69.5518 89.6625 71.6647 87.6802 71.8752 85.1577H62.0741Z" fill="#3B3B44"/>
<path d="M66.9744 76.5107C62.4219 76.5107 58.7314 80.2012 58.7314 84.7537C58.7314 84.8893 58.7354 85.0237 58.7418 85.1573H75.2071C75.2135 85.0234 75.2174 84.889 75.2174 84.7537C75.2174 80.2012 71.5269 76.5107 66.9744 76.5107Z" fill="#17C5D9"/>
<path d="M87.4989 93.9586C86.99 93.9586 86.4799 93.7739 86.0775 93.4008C85.0322 92.4314 83.6269 92.4311 82.5811 93.4008C81.7338 94.1859 80.4102 94.1359 79.6252 93.289C78.8399 92.4417 78.8898 91.1184 79.737 90.3331C82.3976 87.8663 86.2607 87.8661 88.9215 90.3331C89.7688 91.1184 89.8187 92.442 89.0333 93.289C88.6212 93.7335 88.0606 93.9586 87.4989 93.9586Z" fill="#3B3B44"/>
</g>
<defs>
<linearGradient id="paint0_linear" x1="0" y1="101.099" x2="122.756" y2="101.099" gradientUnits="userSpaceOnUse">
<stop stop-color="#F4D952"/>
<stop offset="1" stop-color="#F9EDAF"/>
</linearGradient>
<linearGradient id="paint1_linear" x1="30.9197" y1="109.069" x2="117.709" y2="22.2793" gradientUnits="userSpaceOnUse">
<stop stop-color="#EC6F80"/>
<stop offset="1" stop-color="#ECA0AA"/>
</linearGradient>
<linearGradient id="paint2_linear" x1="23.2594" y1="101.408" x2="110.049" y2="14.6191" gradientUnits="userSpaceOnUse">
<stop stop-color="#4E5660"/>
<stop offset="1" stop-color="#64768D"/>
</linearGradient>
<linearGradient id="paint3_linear" x1="0" y1="101.099" x2="122.756" y2="101.099" gradientUnits="userSpaceOnUse">
<stop stop-color="#EC6F80"/>
<stop offset="1" stop-color="#ECA0AA"/>
</linearGradient>
<linearGradient id="paint4_linear" x1="29.5129" y1="124.656" x2="29.5129" y2="74.3984" gradientUnits="userSpaceOnUse">
<stop stop-color="#F4D952"/>
<stop offset="1" stop-color="#F9EDAF"/>
</linearGradient>
<clipPath id="clip0">
<rect width="140" height="140" fill="white"/>
</clipPath>
</defs>
</svg>
