<svg width="80" height="80" viewBox="0 0 80 80" fill="none" xmlns="http://www.w3.org/2000/svg">
<g clip-path="url(#clip0)">
<path d="M63.0596 13.9135H52.2244C50.464 13.9135 49.0371 12.4865 49.0371 10.7262C49.0371 8.9659 50.464 7.53896 52.2244 7.53896H63.0596C64.8199 7.53896 66.2468 8.9659 66.2468 10.7262C66.2468 12.4865 64.8197 13.9135 63.0596 13.9135Z" fill="#71C4D1"/>
<path d="M49.281 66.5637C44.8535 64.499 42.9379 59.236 45.0025 54.8084C47.067 50.3809 52.3301 48.4653 56.7577 50.5299C60.5733 52.3092 62.7915 56.6752 67.1994 56.8991C68.7336 56.977 69.6539 58.6527 68.8261 59.9468C63.9386 67.5847 54.9802 69.2212 49.281 66.5637Z" fill="url(#paint0_linear)"/>
<path d="M56.0233 66.1109C55.2169 66.1109 54.5251 65.5011 54.44 64.6815C54.3492 63.8062 54.9852 63.0227 55.8606 62.9319C56.3812 62.8779 56.9153 62.7808 57.4478 62.6436C58.3 62.4237 59.1691 62.9368 59.3889 63.7891C59.6085 64.6414 59.0957 65.5104 58.2434 65.7301C57.558 65.9067 56.867 66.0321 56.1895 66.1022C56.1337 66.108 56.0783 66.1109 56.0233 66.1109V66.1109Z" fill="#A7F2D2"/>
<path d="M63.0605 63.2151C62.5945 63.2151 62.1328 63.0119 61.8179 62.6207C61.2662 61.9349 61.3747 60.9318 62.0603 60.38C62.7462 59.8282 63.3793 59.1945 63.9425 58.4968C64.4954 57.8121 65.4985 57.705 66.1836 58.2575C66.8686 58.8103 66.9757 59.8137 66.423 60.4986C65.717 61.3733 64.9215 62.1689 64.0587 62.8634C63.7642 63.0999 63.4111 63.2151 63.0605 63.2151V63.2151Z" fill="#A7F2D2"/>
<path d="M34.9395 60.9903C33.6842 59.0723 31.1119 58.5353 29.1933 59.7907C28.5253 60.3605 20.0547 65.142 17.1731 72.7686C18.1769 75.691 22.5815 76.6606 24.8563 75.9249C26.139 72.138 30.7752 68.6633 33.5435 66.8644L33.7401 66.7362C35.6579 65.4809 36.1951 62.9083 34.9395 60.9903V60.9903Z" fill="url(#paint1_linear)"/>
<path d="M45.0253 78.1775C48.0953 76.6328 49.4561 73.281 49.4561 71.1238C45.8932 69.5068 46.0943 67.1976 46.0943 61.7558C46.0943 59.4634 44.236 57.6051 41.9435 57.6051C39.6511 57.6051 37.7928 59.4634 37.7928 61.7558C37.7928 64.9855 37.6422 68.3477 38.9293 71.5785C40.0508 74.3927 42.0984 76.6022 45.0253 78.1775Z" fill="url(#paint2_linear)"/>
<path d="M26.0477 47.6374C24.4838 45.9612 21.8572 45.8702 20.1812 47.4338C17.6536 49.7918 14.0206 50.2022 10.3337 48.6593C8.23444 49.9053 6.07555 52.6111 6.85117 56.1923C13.3975 59.0283 20.6152 58.3821 25.8442 53.5039C27.5202 51.9401 27.6113 49.3136 26.0477 47.6374V47.6374Z" fill="url(#paint3_linear)"/>
<path d="M10.3337 48.6592C9.61449 48.3583 8.89338 47.9843 8.17784 47.5346C6.2368 46.3147 3.67473 46.8987 2.45465 48.8394C1.23457 50.7802 1.81879 53.3426 3.75951 54.5626C4.76509 55.1948 5.79983 55.7368 6.85098 56.1923C8.12302 54.8847 10.2284 51.5531 10.3337 48.6592Z" fill="url(#paint4_linear)"/>
<path d="M38.5464 22.9193C38.526 16.4513 43.8124 10.9789 50.2805 10.9774C56.7641 10.9758 62.0205 16.2314 62.0205 22.7146C62.0205 24.7434 62.0405 28.7691 65.2441 30.6392C68.2258 32.3797 68.246 36.7125 65.2849 38.4879C58.8519 42.3452 49.4696 43.731 41.8985 38.6567C41.8985 38.6566 38.5839 34.8648 38.5464 22.9193V22.9193Z" fill="url(#paint5_linear)"/>
<path d="M37.7453 25.4441C44.2276 25.4441 49.4825 20.1892 49.4825 13.7069C49.4825 7.22465 44.2276 1.96972 37.7453 1.96972C31.263 1.96972 26.0081 7.22465 26.0081 13.7069C26.0081 20.1892 31.263 25.4441 37.7453 25.4441Z" fill="url(#paint6_linear)"/>
<path d="M19.3502 8.07853C22.7869 6.82769 28.5304 11.9877 30.042 18.0922C30.9212 21.6424 29.1096 24.1992 25.6729 25.45C22.2361 26.7008 19.205 25.9066 17.5964 22.6221C14.8305 16.9742 15.9134 9.32937 19.3502 8.07853V8.07853Z" fill="url(#paint7_linear)"/>
<path d="M26.3032 41.1683C15.6181 51.5442 17.0154 62.0677 19.9743 65.1869C22.9332 68.306 27.7824 69.7178 35.0353 69.7178C42.2882 69.7178 47.1373 68.306 50.0964 65.1869C53.0553 62.0679 54.4526 51.5442 43.7674 41.1683H26.3032Z" fill="url(#paint8_linear)"/>
<path d="M3.37782 35.4081C3.84427 44.3227 10.5926 49.1597 28.4032 49.1597C46.2137 49.1597 52.737 42.17 52.737 32.0432C52.737 21.9163 45.8639 13.7069 32.4247 13.7069C18.9855 13.7069 2.78117 24.0051 3.37782 35.4081V35.4081Z" fill="url(#paint9_linear)"/>
<path d="M11.649 35.4989C12.9636 35.4989 14.0293 34.6425 14.0293 33.5861C14.0293 32.5297 12.9636 31.6733 11.649 31.6733C10.3345 31.6733 9.2688 32.5297 9.2688 33.5861C9.2688 34.6425 10.3345 35.4989 11.649 35.4989Z" fill="#EAADCD"/>
<path d="M39.6603 35.4989C40.9748 35.4989 42.0405 34.6425 42.0405 33.5861C42.0405 32.5297 40.9748 31.6733 39.6603 31.6733C38.3457 31.6733 37.28 32.5297 37.28 33.5861C37.28 34.6425 38.3457 35.4989 39.6603 35.4989Z" fill="#EAADCD"/>
<path d="M15.7298 33.5861C18.3365 33.5861 20.4498 31.4729 20.4498 28.8661C20.4498 26.2593 18.3365 24.1461 15.7298 24.1461C13.123 24.1461 11.0098 26.2593 11.0098 28.8661C11.0098 31.4729 13.123 33.5861 15.7298 33.5861Z" fill="white"/>
<path d="M15.8071 30.8535C16.9055 29.7551 16.9055 27.9742 15.8071 26.8758C14.7087 25.7774 12.9278 25.7774 11.8294 26.8758C10.731 27.9742 10.731 29.7551 11.8294 30.8535C12.9278 31.9519 14.7087 31.9519 15.8071 30.8535Z" fill="#3B3B44"/>
<path d="M35.5796 33.5861C38.1864 33.5861 40.2996 31.4729 40.2996 28.8661C40.2996 26.2593 38.1864 24.1461 35.5796 24.1461C32.9728 24.1461 30.8596 26.2593 30.8596 28.8661C30.8596 31.4729 32.9728 33.5861 35.5796 33.5861Z" fill="white"/>
<path d="M36.411 29.5286C36.7684 28.0169 35.8326 26.5018 34.3209 26.1445C32.8093 25.7871 31.2941 26.7229 30.9368 28.2346C30.5795 29.7462 31.5152 31.2614 33.0269 31.6187C34.5386 31.976 36.0537 31.0403 36.411 29.5286Z" fill="#3B3B44"/>
<path d="M20.212 38.0757H17.7927C17.3135 38.0757 16.891 38.3906 16.7559 38.8505C16.3301 40.2991 15.8408 43.2725 19.0024 43.2725C22.1639 43.2725 21.6748 40.2989 21.249 38.8505C21.1137 38.3906 20.6913 38.0757 20.212 38.0757V38.0757Z" fill="#3B3B44"/>
<path d="M35.0201 15.9326C35.255 18.2599 32.5769 20.6186 28.8993 21.2671C25.1123 21.9348 21.7004 20.5361 21.2784 18.1431C21.0218 16.6876 20.9363 14.7396 21.0156 12.6597C26.0078 11.7111 29.93 12.4236 35.0201 15.9326V15.9326Z" fill="url(#paint10_linear)"/>
<path d="M29.7087 16.3133C30.015 16.1622 30.2507 16.0056 30.4131 15.8719C30.3736 15.7055 30.3278 15.531 30.2791 15.3528C31.8437 15.2142 33.096 15.2465 35.0195 15.9326C35.1901 17.6238 33.8233 19.3315 31.6518 20.3876C30.3095 21.0403 28.7148 20.2228 28.4556 18.7528L28.4531 18.7382C28.2772 17.7393 28.7992 16.7622 29.7087 16.3133V16.3133Z" fill="#FCB500"/>
<path d="M21.9673 5.37575C25.5976 5.12699 29.1455 5.6387 32.5447 8.60635C33.7374 11.167 34.6526 13.7997 34.992 15.7251C35.0043 15.7942 35.0131 15.8634 35.0201 15.9326C30.793 15.6293 25.9213 14.7294 21.0156 12.6599C21.1085 10.2189 21.429 7.59726 21.9673 5.37575V5.37575Z" fill="url(#paint11_linear)"/>
<path d="M30.3715 9.07442C31.5184 8.61896 32.8204 9.16876 33.2918 10.3093C34.1138 12.2982 34.7278 14.226 34.9922 15.7253C35.0044 15.7943 35.013 15.8636 35.0199 15.9326C33.5128 15.8245 31.9227 15.6386 30.2795 15.3528C30.0111 14.3708 29.6086 13.2223 29.1203 12.0395C28.6389 10.8739 29.1995 9.53976 30.3715 9.07442V9.07442Z" fill="#E05D6F"/>
<path d="M21.9673 5.37576C22.6675 2.48604 23.7362 0.274085 25.1536 0.0242047C27.3609 -0.364959 30.4011 4.00428 32.5447 8.60652C29.1952 8.11759 25.5499 7.14771 21.9673 5.37576V5.37576Z" fill="url(#paint12_linear)"/>
<path d="M50.3222 8.24462C46.8854 6.99379 41.142 12.1538 39.6304 18.2583C38.7514 21.8084 40.5629 24.3653 43.9995 25.6161C47.4363 26.8669 50.4674 26.0727 52.076 22.7882C54.8419 17.1402 53.7591 9.49546 50.3222 8.24462V8.24462Z" fill="url(#paint13_linear)"/>
<path d="M57.4405 49.9896C54.8787 48.4242 51.8945 47.4763 48.6909 47.2264C45.3852 46.9691 41.9587 47.4948 39.2893 48.6696C37.1911 49.5931 36.2387 52.0427 37.1624 54.1409C38.0861 56.2389 40.5356 57.1909 42.6336 56.2677C44.8848 55.277 49.2062 54.9351 52.6877 56.8282C56.0252 55.9861 57.8456 52.2594 57.4405 49.9896Z" fill="url(#paint14_linear)"/>
<path d="M69.5145 48.7431H61.3486C59.5883 48.7431 58.1614 47.3161 58.1614 45.5558C58.1614 43.7955 59.5883 42.3686 61.3486 42.3686H69.5145C71.2748 42.3686 72.7018 43.7955 72.7018 45.5558C72.7018 47.3161 71.2748 48.7431 69.5145 48.7431Z" fill="#E05D6F"/>
<path d="M74.9955 27.8116H63.0596C61.2992 27.8116 59.8723 26.3847 59.8723 24.6244C59.8723 22.8641 61.2992 21.4371 63.0596 21.4371H74.9955C76.7558 21.4371 78.1828 22.8641 78.1828 24.6244C78.1828 26.3847 76.7558 27.8116 74.9955 27.8116Z" fill="#FFE05C"/>
<path d="M59.2371 51.243C58.6656 50.7888 58.0652 50.3715 57.4403 49.9896C55.2244 50.6467 52.6436 54.0751 52.6873 56.8284C53.167 57.0892 53.6312 57.3916 54.0714 57.7415C55.8688 59.1704 58.4795 58.8664 59.9034 57.0751C61.33 55.2805 61.0317 52.6695 59.2371 51.243V51.243Z" fill="url(#paint15_linear)"/>
<path d="M52.8768 76.82C53.6582 74.665 52.5445 72.2844 50.3896 71.5029C50.0516 71.3804 49.7433 71.254 49.4563 71.1238C47.3206 72.2095 44.9917 75.974 45.0255 78.1775C45.8086 78.599 46.651 78.9777 47.5598 79.3072C49.7162 80.0884 52.0955 78.9745 52.8768 76.82V76.82Z" fill="url(#paint16_linear)"/>
<path d="M17.1729 72.7686C16.9017 73.4863 16.6787 74.2288 16.5178 74.9958C16.047 77.2393 17.4838 79.4398 19.7273 79.9107C21.9724 80.3815 24.1717 78.9434 24.6422 76.7012C24.6968 76.4412 24.7689 76.1824 24.8561 75.9249C22.9822 73.7185 19.1583 72.8774 17.1729 72.7686V72.7686Z" fill="url(#paint17_linear)"/>
</g>
<defs>
<linearGradient id="paint0_linear" x1="50.9271" y1="58.7248" x2="67.2044" y2="58.7248" gradientUnits="userSpaceOnUse">
<stop stop-color="#7ED99E"/>
<stop offset="0.2532" stop-color="#81DAA3"/>
<stop offset="0.5725" stop-color="#88DDB3"/>
<stop offset="0.9261" stop-color="#95E2CD"/>
<stop offset="1" stop-color="#98E3D3"/>
</linearGradient>
<linearGradient id="paint1_linear" x1="26.3954" y1="59.1123" x2="26.3954" y2="76.1605" gradientUnits="userSpaceOnUse">
<stop stop-color="#CDD4D4"/>
<stop offset="1" stop-color="#F3F3F3"/>
</linearGradient>
<linearGradient id="paint2_linear" x1="43.6218" y1="57.6051" x2="43.6218" y2="78.1775" gradientUnits="userSpaceOnUse">
<stop stop-color="#CDD4D4"/>
<stop offset="1" stop-color="#F3F3F3"/>
</linearGradient>
<linearGradient id="paint3_linear" x1="19.6524" y1="52.0977" x2="9.19029" y2="52.0977" gradientUnits="userSpaceOnUse">
<stop stop-color="#CDD4D4"/>
<stop offset="1" stop-color="#F3F3F3"/>
</linearGradient>
<linearGradient id="paint4_linear" x1="6.07553" y1="57.3142" x2="6.07553" y2="48.8767" gradientUnits="userSpaceOnUse">
<stop stop-color="#E08243"/>
<stop offset="1" stop-color="#F0BB78"/>
</linearGradient>
<linearGradient id="paint5_linear" x1="51.5029" y1="26.462" x2="70.3468" y2="26.462" gradientUnits="userSpaceOnUse">
<stop stop-color="#B39BDB"/>
<stop offset="1" stop-color="#D0C3E8"/>
</linearGradient>
<linearGradient id="paint6_linear" x1="37.7453" y1="14.8019" x2="37.7453" y2="1.80016" gradientUnits="userSpaceOnUse">
<stop stop-color="#B39BDB"/>
<stop offset="1" stop-color="#D0C3E8"/>
</linearGradient>
<linearGradient id="paint7_linear" x1="23.1451" y1="20.406" x2="23.1451" y2="7.39821" gradientUnits="userSpaceOnUse">
<stop stop-color="#CDD4D4"/>
<stop offset="1" stop-color="#F3F3F3"/>
</linearGradient>
<linearGradient id="paint8_linear" x1="35.0353" y1="39.6566" x2="35.0353" y2="66.87" gradientUnits="userSpaceOnUse">
<stop stop-color="#CDD4D4"/>
<stop offset="1" stop-color="#F3F3F3"/>
</linearGradient>
<linearGradient id="paint9_linear" x1="64.0972" y1="31.4333" x2="14.0674" y2="31.4333" gradientUnits="userSpaceOnUse">
<stop stop-color="#D9E0E0"/>
<stop offset="1" stop-color="#F3F3F3"/>
</linearGradient>
<linearGradient id="paint10_linear" x1="35.3863" y1="16.8551" x2="19.3334" y2="16.8551" gradientUnits="userSpaceOnUse">
<stop stop-color="#F4D952"/>
<stop offset="1" stop-color="#F9EDAF"/>
</linearGradient>
<linearGradient id="paint11_linear" x1="35.3869" y1="10.6266" x2="22.5656" y2="10.6266" gradientUnits="userSpaceOnUse">
<stop stop-color="#EC6F80"/>
<stop offset="1" stop-color="#ECA0AA"/>
</linearGradient>
<linearGradient id="paint12_linear" x1="32.8726" y1="4.30325" x2="22.9829" y2="4.30325" gradientUnits="userSpaceOnUse">
<stop stop-color="#7ED99E"/>
<stop offset="0.2532" stop-color="#81DAA3"/>
<stop offset="0.5725" stop-color="#88DDB3"/>
<stop offset="0.9261" stop-color="#95E2CD"/>
<stop offset="1" stop-color="#98E3D3"/>
</linearGradient>
<linearGradient id="paint13_linear" x1="46.5273" y1="28.6306" x2="46.5273" y2="13.2333" gradientUnits="userSpaceOnUse">
<stop stop-color="#CDD4D4"/>
<stop offset="1" stop-color="#F3F3F3"/>
</linearGradient>
<linearGradient id="paint14_linear" x1="47.1528" y1="54.6519" x2="47.1528" y2="49.3643" gradientUnits="userSpaceOnUse">
<stop stop-color="#D9E0E0"/>
<stop offset="1" stop-color="#F3F3F3"/>
</linearGradient>
<linearGradient id="paint15_linear" x1="56.746" y1="59.8527" x2="56.746" y2="54.0548" gradientUnits="userSpaceOnUse">
<stop stop-color="#E08243"/>
<stop offset="1" stop-color="#F0BB78"/>
</linearGradient>
<linearGradient id="paint16_linear" x1="54.9873" y1="75.3402" x2="47.6642" y2="75.3402" gradientUnits="userSpaceOnUse">
<stop stop-color="#E08243"/>
<stop offset="1" stop-color="#F0BB78"/>
</linearGradient>
<linearGradient id="paint17_linear" x1="26.7031" y1="76.3842" x2="18.04" y2="76.3842" gradientUnits="userSpaceOnUse">
<stop stop-color="#E08243"/>
<stop offset="1" stop-color="#F0BB78"/>
</linearGradient>
<clipPath id="clip0">
<rect width="80" height="80" fill="white"/>
</clipPath>
</defs>
</svg>
