<svg width="80" height="80" viewBox="0 0 80 80" fill="none" xmlns="http://www.w3.org/2000/svg">
<g clip-path="url(#clip0)">
<path d="M27.2456 64.3928C31.5612 62.3804 33.4282 57.2507 31.4158 52.9353C29.4035 48.6197 24.2737 46.7527 19.9583 48.7651C16.2392 50.4994 14.0772 54.7549 9.78076 54.9731C8.28546 55.0491 7.38841 56.6822 8.19542 57.9434C12.9591 65.3882 21.6907 66.9831 27.2456 64.3928V64.3928Z" fill="url(#paint0_linear)"/>
<path d="M20.674 63.9921C20.619 63.9921 20.5635 63.9892 20.5074 63.9833C19.8451 63.9145 19.1697 63.7921 18.4996 63.6195C17.6473 63.3997 17.1347 62.5307 17.3543 61.6783C17.574 60.8262 18.4422 60.3135 19.2955 60.533C19.8124 60.6663 20.331 60.7605 20.8367 60.8131C21.712 60.904 22.3479 61.6872 22.2571 62.5628C22.1721 63.3824 21.4803 63.9921 20.674 63.9921V63.9921Z" fill="#A7F2D2"/>
<path d="M13.8148 61.1696C13.4641 61.1696 13.1111 61.0544 12.8166 60.8176C11.9732 60.1388 11.1959 59.3613 10.5061 58.5063C9.9533 57.8214 10.0606 56.818 10.7457 56.2654C11.4301 55.7127 12.4338 55.8196 12.9866 56.5049C13.5337 57.1828 14.1488 57.7983 14.815 58.3342C15.5007 58.8861 15.6091 59.8893 15.0574 60.575C14.7426 60.9662 14.2806 61.1696 13.8148 61.1696V61.1696Z" fill="#A7F2D2"/>
<path d="M43.5231 74.9049C46.0939 76.6926 49.5763 76.5716 51.6088 74.5168C51.4926 69.0805 50.6662 62.4585 47.6604 59.0056C46.1935 57.3202 43.6378 57.143 41.9527 58.6104C40.2674 60.0775 40.0904 62.6328 41.5575 64.3181C42.3101 65.1828 43.4102 68.69 43.5231 74.9049Z" fill="url(#paint1_linear)"/>
<path d="M25.3336 75.9651C23.1433 75.5238 21.7251 73.3906 22.1664 71.2003C22.6077 69.0102 24.7399 67.5919 26.9312 68.0332C27.7752 68.203 29.3231 68.3441 30.2089 67.3788C31.1943 66.305 31.3085 64.043 30.5143 61.3285C29.8869 59.1839 31.1167 56.9369 33.2611 56.3095C35.4069 55.6819 37.6526 56.9119 38.28 59.0563C41.645 70.5575 34.4096 77.7935 25.3336 75.9651Z" fill="url(#paint2_linear)"/>
<path d="M38.2799 59.0563C37.6525 56.9119 35.4067 55.6819 33.2609 56.3095C31.1165 56.9369 29.8867 59.1839 30.5141 61.3285C31.3084 64.043 31.1941 66.3049 30.2088 67.3788C29.753 67.8754 29.1223 68.0781 28.5022 68.1358C27.1637 69.8802 26.1156 73.9516 28.3525 76.2429C35.9211 76.0867 41.2612 69.2461 38.2799 59.0563V59.0563Z" fill="url(#paint3_linear)"/>
<path d="M63.5697 54.302C61.9683 53.8747 61.1291 52.7222 59.7866 50.7049C58.5356 48.8253 57.1179 46.6951 54.5319 45.512C52.5001 44.5826 50.0994 45.4763 49.1699 47.5081C48.2405 49.5399 49.134 51.9406 51.1659 52.8701C52.8625 53.6462 54.672 60.4876 61.8266 62.1992C63.8045 61.0164 64.7622 57.8524 63.5697 54.302Z" fill="url(#paint4_linear)"/>
<path d="M69.3147 58.5407C69.3147 56.3064 67.5035 54.495 65.2691 54.495C64.6088 54.495 64.0547 54.4312 63.5696 54.302C61.8444 55.9931 60.9802 60.0008 61.8267 62.1992C62.8579 62.4459 64.0001 62.5863 65.2691 62.5863C67.5035 62.5863 69.3147 60.775 69.3147 58.5407V58.5407Z" fill="url(#paint5_linear)"/>
<path d="M37.7086 22.3391C37.7283 16.0349 32.5758 10.701 26.2716 10.6994C19.9522 10.6978 14.8287 15.8204 14.8287 22.1394C14.8287 24.1168 14.8094 28.0406 11.6867 29.8634C8.78044 31.56 8.76084 35.7829 11.6469 37.5135C17.917 41.2731 27.0617 42.6237 34.4413 37.6779C34.4415 37.6779 37.6721 33.9821 37.7086 22.3391V22.3391Z" fill="url(#paint6_linear)"/>
<path d="M38.4895 24.8C44.8077 24.8 49.9296 19.678 49.9296 13.3598C49.9296 7.04159 44.8077 1.91965 38.4895 1.91965C32.1713 1.91965 27.0493 7.04159 27.0493 13.3598C27.0493 19.678 32.1713 24.8 38.4895 24.8Z" fill="url(#paint7_linear)"/>
<path d="M56.4187 7.87413C53.0689 6.65485 47.4709 11.6843 45.9975 17.6343C45.1406 21.0945 46.9063 23.5866 50.2559 24.8058C53.6057 26.0251 56.5602 25.2509 58.128 22.0494C60.8238 16.5444 59.7683 9.09326 56.4187 7.87413V7.87413Z" fill="url(#paint8_linear)"/>
<path d="M49.6417 40.1261C60.0564 50.2392 58.6945 60.4964 55.8103 63.5366C52.9263 66.5767 48.2 67.9527 41.1306 67.9527C34.0613 67.9527 29.3349 66.5766 26.4509 63.5366C23.567 60.4964 22.2051 50.2392 32.6196 40.1261H49.6417Z" fill="url(#paint9_linear)"/>
<path d="M71.9867 34.5117C71.532 43.2007 64.9545 47.9151 47.595 47.9151C30.2353 47.9151 23.8772 41.1025 23.8772 31.2319C23.8772 21.3614 30.5763 13.3598 43.6753 13.3598C56.7741 13.3598 72.5682 23.3973 71.9867 34.5117V34.5117Z" fill="url(#paint10_linear)"/>
<path d="M36.5668 34.9206C37.8813 34.9206 38.947 34.0642 38.947 33.0078C38.947 31.9514 37.8813 31.095 36.5668 31.095C35.2522 31.095 34.1865 31.9514 34.1865 33.0078C34.1865 34.0642 35.2522 34.9206 36.5668 34.9206Z" fill="#EAADCD"/>
<path d="M64.578 34.9206C65.8926 34.9206 66.9582 34.0642 66.9582 33.0078C66.9582 31.9514 65.8926 31.095 64.578 31.095C63.2634 31.095 62.1978 31.9514 62.1978 33.0078C62.1978 34.0642 63.2634 34.9206 64.578 34.9206Z" fill="#EAADCD"/>
<path d="M40.6475 28.9198C41.7922 28.9198 42.8488 29.1731 43.7007 29.6008C44.4249 29.9643 45.2883 29.4731 45.3525 28.6653C45.3705 28.4386 45.3724 28.2072 45.3571 27.9724C45.1992 25.5587 43.1895 23.6314 40.7715 23.5694C38.108 23.5012 35.9275 25.6398 35.9275 28.2878C35.9275 28.4221 35.9332 28.5552 35.9442 28.6867C36.0115 29.4851 36.8776 29.9608 37.5935 29.6011C38.4456 29.1732 39.5025 28.9198 40.6475 28.9198V28.9198Z" fill="white"/>
<path d="M56.5253 41.1425C55.4979 41.1425 54.4705 40.7991 53.6133 40.1122C52.8182 39.4752 52.6899 38.3143 53.3269 37.5192C53.9639 36.724 55.1248 36.596 55.9199 37.2328C56.2764 37.5184 56.7742 37.5184 57.1307 37.2328C57.9256 36.5959 59.0866 36.724 59.7237 37.5192C60.3607 38.3143 60.2326 39.4752 59.4374 40.1122C58.5801 40.7991 57.5527 41.1425 56.5253 41.1425V41.1425Z" fill="#3B3B44"/>
<path d="M40.6475 28.9198C41.5919 28.9198 42.4759 29.0923 43.2351 29.3927C43.3803 29.0534 43.4606 28.6803 43.4606 28.2878C43.4606 26.7342 42.2012 25.4747 40.6475 25.4747C39.0939 25.4747 37.8345 26.7342 37.8345 28.2878C37.8345 28.6803 37.9148 29.0532 38.06 29.3927C38.819 29.0923 39.7032 28.9198 40.6475 28.9198V28.9198Z" fill="#3B3B44"/>
<path d="M60.4973 28.9198C61.642 28.9198 62.6985 29.1731 63.5503 29.6008C64.2745 29.9643 65.1379 29.4731 65.2021 28.6653C65.2201 28.4386 65.2222 28.2072 65.2067 27.9724C65.0488 25.5587 63.0391 23.6314 60.6211 23.5694C57.9577 23.5012 55.7771 25.6398 55.7771 28.2878C55.7771 28.4221 55.7827 28.5552 55.7938 28.6867C55.8611 29.4851 56.7272 29.9608 57.4431 29.6011C58.2955 29.1732 59.3522 28.9198 60.4973 28.9198V28.9198Z" fill="white"/>
<path d="M60.4974 28.9198C61.4418 28.9198 62.3258 29.0923 63.085 29.3927C63.2301 29.0534 63.3105 28.6803 63.3105 28.2878C63.3105 26.7342 62.051 25.4747 60.4974 25.4747C58.9438 25.4747 57.6843 26.7342 57.6843 28.2878C57.6843 28.6803 57.7646 29.0532 57.9098 29.3927C58.669 29.0923 59.5532 28.9198 60.4974 28.9198V28.9198Z" fill="#3B3B44"/>
<path d="M41.1453 15.5292C40.9165 17.7976 43.5267 20.0967 47.1112 20.7288C50.8022 21.3796 54.1278 20.0164 54.5391 17.684C54.7893 16.2653 54.8725 14.3665 54.7953 12.3394C49.9295 11.4145 46.1064 12.109 41.1453 15.5292Z" fill="url(#paint11_linear)"/>
<path d="M46.322 15.9003C46.0235 15.753 45.7937 15.6003 45.6355 15.47C45.6739 15.3079 45.7185 15.1377 45.766 14.964C44.2409 14.8287 43.0203 14.8604 41.1456 15.5291C40.9792 17.1776 42.3115 18.8419 44.428 19.8713C45.7362 20.5074 47.2906 19.7106 47.5432 18.278L47.5457 18.2636C47.7174 17.2901 47.2085 16.3379 46.322 15.9003V15.9003Z" fill="#FCB500"/>
<path d="M53.8676 5.23969C50.3292 4.99714 46.8712 5.49594 43.5579 8.38853C42.3954 10.8843 41.5034 13.4504 41.1724 15.327C41.1605 15.3944 41.1519 15.4618 41.145 15.5293C45.2652 15.2338 50.0135 14.3565 54.7949 12.3393C54.7045 9.96017 54.3922 7.40495 53.8676 5.23969V5.23969Z" fill="url(#paint12_linear)"/>
<path d="M45.6763 8.84464C44.5584 8.40081 43.2894 8.93659 42.83 10.0481C42.0287 11.9866 41.4303 13.8657 41.1726 15.3269C41.1606 15.3943 41.1524 15.4617 41.1455 15.5289C42.6145 15.4236 44.1643 15.2424 45.7659 14.9638C46.0274 14.0067 46.4198 12.8873 46.8958 11.7345C47.3649 10.5986 46.8186 9.29818 45.6763 8.84464Z" fill="#E05D6F"/>
<path d="M53.8677 5.23968C53.1852 2.4231 52.1436 0.267247 50.7621 0.023582C48.6107 -0.355701 45.6475 3.90279 43.5581 8.38852C46.8228 7.91219 50.3758 6.96669 53.8677 5.23968Z" fill="url(#paint13_linear)"/>
<path d="M26.2308 8.03587C29.5806 6.81659 35.1785 11.8461 36.652 17.796C37.5089 21.2563 35.7432 23.7484 32.3935 24.9675C29.0437 26.1868 26.0893 25.4126 24.5215 22.2112C21.8257 16.7063 22.8812 9.25515 26.2308 8.03587Z" fill="url(#paint14_linear)"/>
<path d="M43.7602 45.0166C42.0292 46.3286 39.0077 47.3135 35.6038 47.1025C33.3726 46.9599 31.4544 48.661 31.3167 50.8912C31.1788 53.1211 32.8752 55.0406 35.1054 55.1783C40.2491 55.4975 46.0966 54.0091 49.8048 50.4995C49.4172 48.474 47.7331 45.4333 43.7602 45.0166V45.0166Z" fill="url(#paint15_linear)"/>
<path d="M18.0035 7.56049C18.0035 5.22057 16.1066 3.32352 13.7666 3.32352C12.7811 3.32352 11.8742 3.66009 11.1545 4.22439C10.8827 4.43762 10.5039 4.43762 10.232 4.22439C9.5123 3.65993 8.60537 3.32352 7.61987 3.32352C5.27995 3.32352 3.38306 5.22041 3.38306 7.56049C3.38306 10.3262 6.28154 12.9712 8.53015 14.6121C9.81875 15.5525 11.5681 15.5525 12.8567 14.6121C15.105 12.9712 18.0035 10.3262 18.0035 7.56049V7.56049Z" fill="url(#paint16_linear)"/>
<path d="M76.6169 13.3963C76.6169 11.7345 75.2696 10.3872 73.6078 10.3872C72.9079 10.3872 72.2637 10.6263 71.7527 11.0271C71.5595 11.1785 71.2905 11.1785 71.0974 11.0271C70.5863 10.6263 69.9422 10.3872 69.2422 10.3872C67.5804 10.3872 66.2332 11.7345 66.2332 13.3963C66.2332 15.3606 68.2916 17.239 69.8886 18.4044C70.8038 19.0723 72.0462 19.0723 72.9614 18.4044C74.5584 17.239 76.6169 15.3606 76.6169 13.3963V13.3963Z" fill="url(#paint17_linear)"/>
<path d="M15.2495 44.1461C15.2495 42.2735 13.7314 40.7554 11.8587 40.7554C11.07 40.7554 10.3443 41.0247 9.76819 41.4763C9.5505 41.647 9.24739 41.647 9.02986 41.4763C8.45392 41.0247 7.72819 40.7554 6.93934 40.7554C5.06667 40.7554 3.54858 42.2735 3.54858 44.1461C3.54858 46.3595 5.86827 48.4762 7.66763 49.7895C8.69886 50.5421 10.0989 50.5421 11.1301 49.7895C12.9299 48.4762 15.2495 46.3595 15.2495 44.1461Z" fill="url(#paint18_linear)"/>
<path d="M50.5109 42.2848C48.5842 41.1538 46.1051 41.7987 44.9736 43.7254C44.7126 44.1702 44.2979 44.6089 43.7603 45.0164C44.7233 46.9015 47.3324 49.8046 49.8049 50.4993C50.6391 49.7096 51.3661 48.8186 51.9513 47.8218C53.0826 45.8951 52.4375 43.4159 50.5109 42.2848V42.2848Z" fill="url(#paint19_linear)"/>
<path d="M28.5025 68.1356C27.917 68.1901 27.341 68.1155 26.9313 68.033C24.7401 67.5915 22.6076 69.0099 22.1664 71.2001C21.7252 73.3904 23.1432 75.5238 25.3335 75.9651C26.3683 76.1735 27.3788 76.2629 28.3528 76.2428C29.3114 74.2446 28.8523 69.9657 28.5025 68.1356V68.1356Z" fill="url(#paint20_linear)"/>
<path d="M43.5229 74.9049C43.5292 75.2472 43.5331 75.5957 43.5331 75.9544C43.5331 78.1888 45.3445 80.0002 47.5789 80.0002C49.8133 80.0002 51.6246 78.1888 51.6246 75.9544C51.6246 75.4873 51.6194 75.0065 51.6089 74.517C49.5539 74.0596 45.6606 74.3536 43.5229 74.9049V74.9049Z" fill="url(#paint21_linear)"/>
</g>
<defs>
<linearGradient id="paint0_linear" x1="25.6412" y1="56.7525" x2="9.77598" y2="56.7525" gradientUnits="userSpaceOnUse">
<stop stop-color="#7ED99E"/>
<stop offset="0.2532" stop-color="#81DAA3"/>
<stop offset="0.5725" stop-color="#88DDB3"/>
<stop offset="0.9261" stop-color="#95E2CD"/>
<stop offset="1" stop-color="#98E3D3"/>
</linearGradient>
<linearGradient id="paint1_linear" x1="46.0861" y1="57.6159" x2="46.0861" y2="76.1581" gradientUnits="userSpaceOnUse">
<stop stop-color="#CDD4D4"/>
<stop offset="1" stop-color="#F3F3F3"/>
</linearGradient>
<linearGradient id="paint2_linear" x1="30.6032" y1="56.1455" x2="30.6032" y2="76.2469" gradientUnits="userSpaceOnUse">
<stop stop-color="#D9E0E0"/>
<stop offset="1" stop-color="#F3F3F3"/>
</linearGradient>
<linearGradient id="paint3_linear" x1="33.0853" y1="56.1455" x2="33.0853" y2="76.2429" gradientUnits="userSpaceOnUse">
<stop stop-color="#CDD4D4"/>
<stop offset="1" stop-color="#F3F3F3"/>
</linearGradient>
<linearGradient id="paint4_linear" x1="54.8312" y1="53.6719" x2="63.7122" y2="53.6719" gradientUnits="userSpaceOnUse">
<stop stop-color="#CDD4D4"/>
<stop offset="1" stop-color="#F3F3F3"/>
</linearGradient>
<linearGradient id="paint5_linear" x1="65.4065" y1="63.3264" x2="65.4065" y2="56.7335" gradientUnits="userSpaceOnUse">
<stop stop-color="#E08243"/>
<stop offset="1" stop-color="#F0BB78"/>
</linearGradient>
<linearGradient id="paint6_linear" x1="25.08" y1="25.792" x2="6.71351" y2="25.792" gradientUnits="userSpaceOnUse">
<stop stop-color="#B39BDB"/>
<stop offset="1" stop-color="#D0C3E8"/>
</linearGradient>
<linearGradient id="paint7_linear" x1="38.4895" y1="14.4272" x2="38.4895" y2="1.75455" gradientUnits="userSpaceOnUse">
<stop stop-color="#B39BDB"/>
<stop offset="1" stop-color="#D0C3E8"/>
</linearGradient>
<linearGradient id="paint8_linear" x1="52.7199" y1="19.8894" x2="52.7199" y2="7.21087" gradientUnits="userSpaceOnUse">
<stop stop-color="#CDD4D4"/>
<stop offset="1" stop-color="#F3F3F3"/>
</linearGradient>
<linearGradient id="paint9_linear" x1="41.1306" y1="38.6526" x2="41.1306" y2="65.1769" gradientUnits="userSpaceOnUse">
<stop stop-color="#CDD4D4"/>
<stop offset="1" stop-color="#F3F3F3"/>
</linearGradient>
<linearGradient id="paint10_linear" x1="12.8047" y1="30.6375" x2="61.5679" y2="30.6375" gradientUnits="userSpaceOnUse">
<stop stop-color="#D9E0E0"/>
<stop offset="1" stop-color="#F3F3F3"/>
</linearGradient>
<linearGradient id="paint11_linear" x1="40.7885" y1="16.4285" x2="56.4349" y2="16.4285" gradientUnits="userSpaceOnUse">
<stop stop-color="#F4D952"/>
<stop offset="1" stop-color="#F9EDAF"/>
</linearGradient>
<linearGradient id="paint12_linear" x1="40.7877" y1="10.3576" x2="53.2845" y2="10.3576" gradientUnits="userSpaceOnUse">
<stop stop-color="#EC6F80"/>
<stop offset="1" stop-color="#ECA0AA"/>
</linearGradient>
<linearGradient id="paint13_linear" x1="43.2384" y1="4.19426" x2="52.8778" y2="4.19426" gradientUnits="userSpaceOnUse">
<stop stop-color="#7ED99E"/>
<stop offset="0.2532" stop-color="#81DAA3"/>
<stop offset="0.5725" stop-color="#88DDB3"/>
<stop offset="0.9261" stop-color="#95E2CD"/>
<stop offset="1" stop-color="#98E3D3"/>
</linearGradient>
<linearGradient id="paint14_linear" x1="29.9296" y1="27.9058" x2="29.9296" y2="12.8982" gradientUnits="userSpaceOnUse">
<stop stop-color="#CDD4D4"/>
<stop offset="1" stop-color="#F3F3F3"/>
</linearGradient>
<linearGradient id="paint15_linear" x1="40.5568" y1="54.2188" x2="40.5568" y2="47.6555" gradientUnits="userSpaceOnUse">
<stop stop-color="#D9E0E0"/>
<stop offset="1" stop-color="#F3F3F3"/>
</linearGradient>
<linearGradient id="paint16_linear" x1="10.6932" y1="16.9235" x2="10.6932" y2="3.91794" gradientUnits="userSpaceOnUse">
<stop stop-color="#EC6F80"/>
<stop offset="1" stop-color="#ECA0AA"/>
</linearGradient>
<linearGradient id="paint17_linear" x1="71.425" y1="20.046" x2="71.425" y2="10.8094" gradientUnits="userSpaceOnUse">
<stop stop-color="#EC6F80"/>
<stop offset="1" stop-color="#ECA0AA"/>
</linearGradient>
<linearGradient id="paint18_linear" x1="9.3991" y1="51.6392" x2="9.3991" y2="41.2311" gradientUnits="userSpaceOnUse">
<stop stop-color="#EC6F80"/>
<stop offset="1" stop-color="#ECA0AA"/>
</linearGradient>
<linearGradient id="paint19_linear" x1="41.2028" y1="46.1135" x2="49.3116" y2="46.1135" gradientUnits="userSpaceOnUse">
<stop stop-color="#E08243"/>
<stop offset="1" stop-color="#F0BB78"/>
</linearGradient>
<linearGradient id="paint20_linear" x1="25.5055" y1="77.6607" x2="25.5055" y2="70.3716" gradientUnits="userSpaceOnUse">
<stop stop-color="#E08243"/>
<stop offset="1" stop-color="#F0BB78"/>
</linearGradient>
<linearGradient id="paint21_linear" x1="42.0543" y1="77.1458" x2="49.685" y2="77.1458" gradientUnits="userSpaceOnUse">
<stop stop-color="#E08243"/>
<stop offset="1" stop-color="#F0BB78"/>
</linearGradient>
<clipPath id="clip0">
<rect width="80" height="80" fill="white"/>
</clipPath>
</defs>
</svg>
