<svg width="80" height="80" viewBox="0 0 80 80" fill="none" xmlns="http://www.w3.org/2000/svg">
<g clip-path="url(#clip0)">
<path d="M80 55.3807V33.2832C77.2674 31.0971 70.1861 24.445 67.7624 21.0456H12.2376C9.81386 24.445 2.73259 31.0971 0 33.2832V55.3809C2.73259 57.567 9.81386 64.2191 12.2376 67.6185H67.7624C70.1861 64.2191 77.2674 57.5669 80 55.3807Z" fill="url(#paint0_linear)"/>
<path d="M46.0642 60.4002C51.7616 60.4002 56.3525 59.8771 60.0929 58.7812C61.6715 58.3187 62.4972 56.5844 61.8808 55.0591C61.3416 53.7249 59.8796 53.0268 58.4977 53.4285C55.3295 54.3493 51.2379 54.8225 46.0642 54.8225C36.3203 54.8225 30.4908 52.3986 27.5265 48.3984C24.5192 48.843 21.4769 48.498 18.7088 47.622C17.4761 47.2319 16.1362 47.7205 15.4648 48.8255C14.5222 50.3769 15.293 52.3904 17.0239 52.9377C19.6733 53.7753 22.4726 54.2126 25.2514 54.1669C29.7638 58.306 36.7451 60.4002 46.0642 60.4002Z" fill="#04B048"/>
<path d="M12.2382 43.128C12.0167 43.0497 11.7912 42.9683 11.5654 42.8843V38.905C12.0286 39.0707 12.2981 39.2991 12.3198 39.3181C12.7429 39.6975 13.4739 39.8102 13.9644 39.3197C14.4549 38.8292 14.3912 37.8977 13.9281 37.5498C13.8737 37.4996 13 36.7125 11.5652 36.4358V35.7275C11.5652 35.0672 11.0301 34.5323 10.37 34.5323C9.70992 34.5323 9.17478 35.0672 9.17478 35.7275V36.5197C5.81111 37.3797 5.07342 41.6464 7.30848 43.399C7.79183 43.7782 8.38195 44.1257 9.17478 44.4878V49.7377C8.59725 49.6607 8.16362 49.4711 7.48665 49.0282C6.9343 48.6669 6.19342 48.8215 5.83215 49.374C5.47071 49.9265 5.62561 50.6672 6.17797 51.0287C7.34976 51.7954 8.1735 52.0596 9.17478 52.1421V52.9364C9.17478 53.5966 9.70992 54.1316 10.37 54.1316C11.0301 54.1316 11.5652 53.5966 11.5652 52.9364V52.0293C13.6081 51.5229 14.9179 49.7831 15.2063 48.0676C15.5815 45.8366 14.4164 43.8978 12.2382 43.128V43.128ZM8.78386 41.5182C8.19247 41.0542 8.32394 39.686 9.1751 39.0908V41.7892C9.03342 41.7005 8.90131 41.6103 8.78386 41.5182ZM12.8492 47.6711C12.7329 48.363 12.2978 49.0926 11.5654 49.488V45.4288C12.9663 45.9904 12.9322 47.1769 12.8492 47.6711Z" fill="#C7F0B6"/>
<path d="M71.3252 43.128C71.1037 43.0497 70.8782 42.9683 70.6524 42.8843V38.905C71.1156 39.0707 71.3851 39.2991 71.4068 39.3181C71.8299 39.6975 72.5609 39.8102 73.0514 39.3197C73.5419 38.8292 73.4782 37.8977 73.0152 37.5498C72.9609 37.4996 72.0871 36.7125 70.6524 36.4358V35.7275C70.6524 35.0672 70.1172 34.5323 69.4571 34.5323C68.7971 34.5323 68.2619 35.0672 68.2619 35.7275V36.5197C64.8983 37.3797 64.1606 41.6464 66.3956 43.399C66.879 43.7782 67.4691 44.1257 68.2619 44.4878V49.7377C67.6844 49.6607 67.2508 49.4711 66.5738 49.0282C66.0215 48.6669 65.2806 48.8215 64.9193 49.374C64.5579 49.9265 64.7128 50.6672 65.2651 51.0287C66.4369 51.7954 67.2607 52.0596 68.2619 52.1421V52.9364C68.2619 53.5966 68.7971 54.1316 69.4571 54.1316C70.1172 54.1316 70.6524 53.5966 70.6524 52.9364V52.0293C72.6954 51.5229 74.0052 49.7831 74.2935 48.0676C74.6685 45.8366 73.5034 43.8978 71.3252 43.128V43.128ZM67.8709 41.5182C67.2793 41.0542 67.4109 39.686 68.2621 39.0908V41.7892C68.1204 41.7005 67.9883 41.6103 67.8709 41.5182ZM71.9362 47.6711C71.8198 48.363 71.3848 49.0926 70.6524 49.488V45.4288C72.0533 45.9904 72.0194 47.1769 71.9362 47.6711Z" fill="#C7F0B6"/>
<path d="M39.9999 63.7296C50.7129 63.7296 59.3975 55.045 59.3975 44.332C59.3975 33.619 50.7129 24.9344 39.9999 24.9344C29.2869 24.9344 20.6023 33.619 20.6023 44.332C20.6023 55.045 29.2869 63.7296 39.9999 63.7296Z" fill="url(#paint1_linear)"/>
<path d="M56.9142 53.8322C53.9993 54.4865 50.4159 54.8225 46.0642 54.8225C36.3203 54.8225 30.4908 52.3986 27.5265 48.3984C25.3257 48.7238 23.1067 48.6249 20.9897 48.2057C21.4186 50.3216 22.1925 52.3119 23.249 54.1167C23.9161 54.1602 24.5845 54.1779 25.2516 54.1669C29.7638 58.3058 36.7451 60.4 46.0642 60.4C47.846 60.4 49.5196 60.3488 51.0929 60.2449C53.4825 58.5762 55.4784 56.3831 56.9142 53.8322Z" fill="#A4D376"/>
<path d="M37.3073 32.1684C37.3249 26.5843 32.761 21.8599 27.177 21.8586C21.5795 21.8573 17.0415 26.3945 17.0415 31.9917C17.0415 33.7432 17.0243 37.2186 14.2586 38.8333C11.6844 40.3359 11.6669 44.0765 14.2232 45.6094C19.777 48.9394 27.8769 50.1357 34.4135 45.755C34.4135 45.7549 37.275 42.4814 37.3073 32.1684Z" fill="url(#paint2_linear)"/>
<path d="M37.999 34.3482C43.5954 34.3482 48.1321 29.8115 48.1321 24.2151C48.1321 18.6188 43.5954 14.0821 37.999 14.0821C32.4027 14.0821 27.866 18.6188 27.866 24.2151C27.866 29.8115 32.4027 34.3482 37.999 34.3482Z" fill="url(#paint3_linear)"/>
<path d="M53.8798 19.356C50.9128 18.276 45.9542 22.731 44.6492 28.0011C43.8902 31.066 45.4542 33.2733 48.4212 34.3533C51.3882 35.4333 54.0051 34.7476 55.3938 31.9119C57.7818 27.0359 56.8468 20.436 53.8798 19.356V19.356Z" fill="url(#paint4_linear)"/>
<path d="M67.6692 42.9505C67.2665 50.6467 61.4405 54.8225 46.0641 54.8225C30.6877 54.8225 25.0562 48.7882 25.0562 40.0454C25.0562 31.3026 30.9899 24.2151 42.5924 24.2151C54.1946 24.2151 68.1843 33.1058 67.6692 42.9505Z" fill="url(#paint5_linear)"/>
<path d="M34.7677 44.5978C36.0823 44.5978 37.1479 43.7414 37.1479 42.685C37.1479 41.6285 36.0823 40.7721 34.7677 40.7721C33.4531 40.7721 32.3875 41.6285 32.3875 42.685C32.3875 43.7414 33.4531 44.5978 34.7677 44.5978Z" fill="#EAADCD"/>
<path d="M62.7789 44.5978C64.0935 44.5978 65.1592 43.7414 65.1592 42.685C65.1592 41.6285 64.0935 40.7721 62.7789 40.7721C61.4644 40.7721 60.3987 41.6285 60.3987 42.685C60.3987 43.7414 61.4644 44.5978 62.7789 44.5978Z" fill="#EAADCD"/>
<path d="M38.8484 42.6851C41.4552 42.6851 43.5684 40.5719 43.5684 37.9651C43.5684 35.3583 41.4552 33.2451 38.8484 33.2451C36.2416 33.2451 34.1284 35.3583 34.1284 37.9651C34.1284 40.5719 36.2416 42.6851 38.8484 42.6851Z" fill="white"/>
<path d="M58.6983 42.6851C61.3051 42.6851 63.4183 40.5719 63.4183 37.9651C63.4183 35.3583 61.3051 33.2451 58.6983 33.2451C56.0915 33.2451 53.9783 35.3583 53.9783 37.9651C53.9783 40.5719 56.0915 42.6851 58.6983 42.6851Z" fill="white"/>
<path d="M38.8485 40.7782C40.4021 40.7782 41.6615 39.5187 41.6615 37.9651C41.6615 36.4115 40.4021 35.152 38.8485 35.152C37.2949 35.152 36.0354 36.4115 36.0354 37.9651C36.0354 39.5187 37.2949 40.7782 38.8485 40.7782Z" fill="#3B3B44"/>
<path d="M58.6981 40.7782C60.2517 40.7782 61.5111 39.5187 61.5111 37.9651C61.5111 36.4115 60.2517 35.152 58.6981 35.152C57.1445 35.152 55.885 36.4115 55.885 37.9651C55.885 39.5187 57.1445 40.7782 58.6981 40.7782Z" fill="#3B3B44"/>
<path d="M54.1802 48.6539C53.344 48.6539 52.5076 48.3377 51.8254 47.7052C51.5027 47.4059 51.4836 46.9018 51.7829 46.5791C52.082 46.2564 52.5864 46.2376 52.9089 46.5364C53.6573 47.2304 54.703 47.2304 55.4514 46.5364C55.7741 46.2373 56.2782 46.2564 56.5774 46.5791C56.8766 46.9018 56.8576 47.4061 56.5349 47.7052C55.8527 48.3375 55.0163 48.6539 54.1802 48.6539V48.6539Z" fill="#3B3B44"/>
<path d="M40.3515 26.1366C40.1488 28.1458 42.4608 30.1821 45.6358 30.742C48.9051 31.3184 51.8508 30.1109 52.2151 28.0451C52.4366 26.7885 52.5104 25.1066 52.442 23.3111C48.132 22.4921 44.7459 23.1072 40.3515 26.1366V26.1366Z" fill="url(#paint6_linear)"/>
<path d="M44.9368 26.4654C44.6724 26.3348 44.4687 26.1997 44.3286 26.0843C44.3627 25.9407 44.4023 25.79 44.4443 25.6362C43.0934 25.5163 42.0125 25.5444 40.3517 26.1367C40.2043 27.5968 41.3844 29.0711 43.2592 29.9828C44.418 30.5463 45.7948 29.8405 46.0185 28.5715L46.0207 28.5587C46.1728 27.6964 45.7219 26.8529 44.9368 26.4654Z" fill="#FCB500"/>
<path d="M51.6204 17.0226C48.4862 16.8078 45.4233 17.2496 42.4886 19.8118C41.459 22.0225 40.6689 24.2953 40.3758 25.9576C40.3653 26.0172 40.3576 26.077 40.3516 26.1367C44.001 25.8749 48.2069 25.0979 52.4421 23.3112C52.3618 21.204 52.0853 18.9406 51.6204 17.0226V17.0226Z" fill="url(#paint7_linear)"/>
<path d="M44.3649 20.2158C43.3746 19.8227 42.2506 20.2972 41.8438 21.2818C41.1341 22.9988 40.6039 24.6631 40.3757 25.9575C40.3652 26.0171 40.3577 26.0768 40.3518 26.1366C41.653 26.0432 43.0258 25.8827 44.4444 25.636C44.6761 24.7884 45.0235 23.7968 45.4452 22.7756C45.8605 21.7694 45.3765 20.6176 44.3649 20.2158Z" fill="#E05D6F"/>
<path d="M51.6203 17.0226C51.0157 14.5278 50.0931 12.6183 48.8694 12.4026C46.9637 12.0665 44.3392 15.8386 42.4885 19.8118C45.3803 19.3898 48.5274 18.5525 51.6203 17.0226Z" fill="url(#paint8_linear)"/>
<path d="M27.1409 19.4994C30.1079 18.4196 35.0665 22.8744 36.3715 28.1445C37.1305 31.2094 35.5665 33.4167 32.5995 34.4967C29.6325 35.5767 27.0156 34.891 25.6269 32.0553C23.2391 27.1793 24.1739 20.5794 27.1409 19.4994Z" fill="url(#paint9_linear)"/>
<path d="M0 29.454V33.283C3.52749 33.9399 7.0757 33.0747 9.55251 30.5979C12.0293 28.1211 12.8943 24.5729 12.2376 21.0454H8.40861C3.76462 21.0456 0 24.8102 0 29.454H0Z" fill="url(#paint10_linear)"/>
<path d="M79.9999 29.454V33.283C76.4724 33.9399 72.9242 33.0747 70.4474 30.5979C67.9706 28.1211 67.1054 24.5729 67.7623 21.0454H71.5913C76.2352 21.0456 79.9999 24.8102 79.9999 29.454Z" fill="url(#paint11_linear)"/>
<path d="M0 59.2099V55.3809C3.52749 54.724 7.0757 55.5891 9.55251 58.066C12.0293 60.5428 12.8943 64.091 12.2376 67.6185H8.40861C3.76462 67.6183 0 63.8537 0 59.2099H0Z" fill="url(#paint12_linear)"/>
<path d="M79.9999 59.2099V55.3809C76.4724 54.724 72.9242 55.5891 70.4474 58.066C67.9706 60.5428 67.1054 64.091 67.7623 67.6185H71.5913C76.2352 67.6183 79.9999 63.8537 79.9999 59.2099Z" fill="url(#paint13_linear)"/>
</g>
<defs>
<linearGradient id="paint0_linear" x1="40" y1="71.9261" x2="40" y2="14.4204" gradientUnits="userSpaceOnUse">
<stop stop-color="#6AC65E"/>
<stop offset="1" stop-color="#AFD986"/>
</linearGradient>
<linearGradient id="paint1_linear" x1="39.9999" y1="23.489" x2="39.9999" y2="64.5218" gradientUnits="userSpaceOnUse">
<stop stop-color="#81D676"/>
<stop offset="1" stop-color="#C3E6A1"/>
</linearGradient>
<linearGradient id="paint2_linear" x1="26.1217" y1="35.2271" x2="9.85332" y2="35.2271" gradientUnits="userSpaceOnUse">
<stop stop-color="#B39BDB"/>
<stop offset="1" stop-color="#D0C3E8"/>
</linearGradient>
<linearGradient id="paint3_linear" x1="37.999" y1="25.1606" x2="37.999" y2="13.9358" gradientUnits="userSpaceOnUse">
<stop stop-color="#B39BDB"/>
<stop offset="1" stop-color="#D0C3E8"/>
</linearGradient>
<linearGradient id="paint4_linear" x1="50.6036" y1="29.9987" x2="50.6036" y2="18.7688" gradientUnits="userSpaceOnUse">
<stop stop-color="#CDD4D4"/>
<stop offset="1" stop-color="#F3F3F3"/>
</linearGradient>
<linearGradient id="paint5_linear" x1="15.2485" y1="39.5189" x2="58.4407" y2="39.5189" gradientUnits="userSpaceOnUse">
<stop stop-color="#D9E0E0"/>
<stop offset="1" stop-color="#F3F3F3"/>
</linearGradient>
<linearGradient id="paint6_linear" x1="40.0355" y1="26.9332" x2="53.8943" y2="26.9332" gradientUnits="userSpaceOnUse">
<stop stop-color="#F4D952"/>
<stop offset="1" stop-color="#F9EDAF"/>
</linearGradient>
<linearGradient id="paint7_linear" x1="40.0349" y1="21.5559" x2="51.1039" y2="21.5559" gradientUnits="userSpaceOnUse">
<stop stop-color="#EC6F80"/>
<stop offset="1" stop-color="#ECA0AA"/>
</linearGradient>
<linearGradient id="paint8_linear" x1="42.2055" y1="16.0967" x2="50.7435" y2="16.0967" gradientUnits="userSpaceOnUse">
<stop stop-color="#7ED99E"/>
<stop offset="0.2532" stop-color="#81DAA3"/>
<stop offset="0.5725" stop-color="#88DDB3"/>
<stop offset="0.9261" stop-color="#95E2CD"/>
<stop offset="1" stop-color="#98E3D3"/>
</linearGradient>
<linearGradient id="paint9_linear" x1="30.4172" y1="37.0993" x2="30.4172" y2="23.8062" gradientUnits="userSpaceOnUse">
<stop stop-color="#CDD4D4"/>
<stop offset="1" stop-color="#F3F3F3"/>
</linearGradient>
<linearGradient id="paint10_linear" x1="-5.19697" y1="27.2703" x2="8.56956" y2="27.2703" gradientUnits="userSpaceOnUse">
<stop stop-color="#81D676"/>
<stop offset="1" stop-color="#C3E6A1"/>
</linearGradient>
<linearGradient id="paint11_linear" x1="85.1968" y1="27.2703" x2="71.4303" y2="27.2703" gradientUnits="userSpaceOnUse">
<stop stop-color="#81D676"/>
<stop offset="1" stop-color="#C3E6A1"/>
</linearGradient>
<linearGradient id="paint12_linear" x1="6.2247" y1="70.0808" x2="6.2247" y2="58.0041" gradientUnits="userSpaceOnUse">
<stop stop-color="#81D676"/>
<stop offset="1" stop-color="#C3E6A1"/>
</linearGradient>
<linearGradient id="paint13_linear" x1="73.7752" y1="70.0808" x2="73.7752" y2="58.0041" gradientUnits="userSpaceOnUse">
<stop stop-color="#81D676"/>
<stop offset="1" stop-color="#C3E6A1"/>
</linearGradient>
<clipPath id="clip0">
<rect width="80" height="80" fill="white"/>
</clipPath>
</defs>
</svg>
