<svg width="320" height="39" viewBox="0 0 320 39" fill="none" xmlns="http://www.w3.org/2000/svg">
<path fill-rule="evenodd" clip-rule="evenodd" d="M0 -1L7.01754 3.05143C15.4386 8.45334 30.8772 17.9067 46.3158 19.2571C60.3509 20.6076 75.7895 13.8552 91.2281 9.80381C106.667 5.75238 122.105 1.70095 137.544 0.350477C152.982 -1 167.018 -1 182.456 7.10286C197.895 13.8552 213.333 30.061 228.772 35.4629C244.211 42.2152 259.649 38.1638 273.684 32.7619C289.123 26.0095 304.561 17.9067 312.982 12.5048L320 8.45334V-1H312.982C304.561 -1 289.123 -1 273.684 -1C259.649 -1 244.211 -1 228.772 -1C213.333 -1 197.895 -1 182.456 -1C167.018 -1 152.982 -1 137.544 -1C122.105 -1 106.667 -1 91.2281 -1C75.7895 -1 60.3509 -1 46.3158 -1C30.8772 -1 15.4386 -1 7.01754 -1H0Z" fill="#0099FF"/>
</svg>
