<svg width="60" height="60" viewBox="0 0 60 60" fill="none" xmlns="http://www.w3.org/2000/svg">
<g clip-path="url(#clip0)">
<path d="M44.4685 36.2294C44.4685 39.1995 43.0374 41.9569 41.4502 44.223H34.0291C36.949 42.7493 38.9498 39.723 38.9498 36.2294C38.9498 31.286 34.9434 27.2784 30 27.2784C25.0566 27.2784 21.0502 31.286 21.0502 36.2294C21.0502 39.723 23.051 42.7493 25.9709 44.223H18.5498C16.9625 41.9569 15.5315 39.1995 15.5315 36.2294C15.5315 28.5262 22.2968 21.7804 30 21.7804C37.7032 21.7804 44.4685 28.5262 44.4685 36.2294V36.2294Z" fill="url(#paint0_linear)"/>
<path d="M49.7627 36.2294C49.7627 39.0836 48.3573 41.792 47.2242 44.2231H41.4501C43.0373 41.9569 43.9696 39.1996 43.9696 36.2294C43.9696 28.5262 37.7031 22.2585 29.9999 22.2585C22.2967 22.2585 16.0302 28.5262 16.0302 36.2294C16.0302 39.1996 16.9624 41.9569 18.5497 44.2231H12.7756C11.6425 41.792 10.2371 39.0836 10.2371 36.2294C10.2371 25.7581 19.5286 16.641 29.9999 16.641C40.4712 16.641 49.7627 25.7581 49.7627 36.2294V36.2294Z" fill="url(#paint1_linear)"/>
<path d="M54.6505 36.2293C54.6505 39.0309 53.5266 41.7214 52.641 44.223H47.2242C48.3573 41.7919 48.9896 39.0835 48.9896 36.2293C48.9896 25.758 40.4712 17.2385 29.9999 17.2385C19.5286 17.2385 11.0103 25.758 11.0103 36.2293C11.0103 39.0835 11.6426 41.7919 12.7756 44.223H7.35889C6.47323 41.7214 5.34937 39.0309 5.34937 36.2293C5.34937 22.9899 16.7605 11.5015 29.9999 11.5015C43.2394 11.5015 54.6505 22.9899 54.6505 36.2293Z" fill="url(#paint2_linear)"/>
<path d="M59.0294 36.2294C59.0294 39.0011 58.6386 41.6832 57.9095 44.223H52.641C53.5266 41.7214 54.0095 39.031 54.0095 36.2294C54.0095 22.99 43.2394 12.2186 29.9999 12.2186C16.7605 12.2186 5.99038 22.99 5.99038 36.2294C5.99038 39.031 6.47325 41.7214 7.35891 44.223H2.09038C1.3613 41.6832 0.970459 39.0011 0.970459 36.2294C0.970459 20.2218 13.9936 7.19873 29.9999 7.19873C46.0063 7.19873 59.0294 20.2218 59.0294 36.2294Z" fill="url(#paint3_linear)"/>
<path d="M4.18717 35.9584C3.02888 36.1982 1.95127 36.6417 0.988281 37.2464C1.03884 38.7068 1.19876 40.1398 1.45848 41.5381C2.47083 40.3388 3.93031 39.5297 5.57876 39.3689C5.78888 39.3483 5.99003 39.2905 6.1747 39.2017C6.05374 38.2275 5.99051 37.2358 5.99051 36.2295C5.99051 35.1999 6.05577 34.1853 6.18211 33.1896C5.40832 34.0121 4.73517 34.9403 4.18717 35.9584V35.9584Z" fill="#FCB500"/>
<path d="M6.17466 39.2017C6.54136 39.0255 6.84183 38.7257 7.01072 38.3418C7.8592 36.413 9.32777 34.819 11.1636 33.811C11.3533 32.3247 11.7168 30.892 12.2307 29.5328C9.9151 30.1774 7.82215 31.4461 6.18207 33.1896C6.05574 34.1855 5.99048 35.2 5.99048 36.2295C5.99048 37.2358 6.05383 38.2276 6.17466 39.2017V39.2017Z" fill="#E05D6F"/>
<path d="M14.2258 32.759C15.1006 32.6187 15.7493 31.8735 15.7493 30.9875C15.7493 29.8918 14.7735 29.0428 13.6915 29.2144C13.1964 29.2929 12.7089 29.3996 12.2307 29.5328C11.7167 30.8921 11.3534 32.3247 11.1636 33.8109C12.1001 33.2969 13.1317 32.9346 14.2258 32.759Z" fill="#24BD7F"/>
<path d="M25.2063 51.7224C28.6565 51.7224 31.5421 48.8993 31.498 45.4495C31.4575 42.2715 29.0229 39.6716 25.9198 39.3688C25.2922 39.3076 24.7418 38.9189 24.4879 38.3418C23.0105 34.9832 19.6538 32.6379 15.7493 32.6379C11.8447 32.6379 8.48809 34.9831 7.01067 38.3418C6.75681 38.9189 6.20641 39.3075 5.5788 39.3688C2.47458 39.6717 0.0401563 42.2731 0.000475069 45.4513C-0.0425528 48.9001 2.84307 51.7225 6.29211 51.7225H25.2063V51.7224Z" fill="url(#paint4_linear)"/>
<path d="M53.7078 52.8013C57.1579 52.8013 60.0435 49.9782 59.9994 46.5285C59.9589 43.3505 57.5244 40.7507 54.4212 40.4478C53.7937 40.3866 53.2432 39.9979 52.9893 39.4207C51.5119 36.0622 48.1553 33.7169 44.2507 33.7169C40.3462 33.7169 36.9896 36.0621 35.5121 39.4207C35.2583 39.9979 34.7079 40.3865 34.0803 40.4478C30.976 40.7507 28.5416 43.3521 28.5019 46.5303C28.4589 49.9792 31.3445 52.8015 34.7936 52.8015H53.7078V52.8013Z" fill="url(#paint5_linear)"/>
<path d="M28.502 46.5301C28.5238 44.7809 29.272 43.2075 30.4571 42.0948C29.7787 41.0802 28.8094 40.2771 27.6682 39.8059C25.987 41.5427 24.9488 43.8964 24.9165 46.4854C24.9096 47.0438 24.9531 47.5953 25.0395 48.1367H16.8526C15.8625 48.1367 15.0598 48.9394 15.0598 49.9295C15.0598 50.9196 15.8625 51.7224 16.8526 51.7224H25.2064C26.872 51.7224 28.4049 51.0631 29.5412 49.9942C28.8731 48.9999 28.4861 47.8083 28.502 46.5301Z" fill="#D2D9E0"/>
<path d="M47.6666 50.4109H46.4887C45.8286 50.4109 45.2935 49.8758 45.2935 49.2157C45.2935 48.5556 45.8286 48.0205 46.4887 48.0205H47.6666C48.3267 48.0205 48.8618 48.5556 48.8618 49.2157C48.8618 49.8758 48.3267 50.4109 47.6666 50.4109Z" fill="white"/>
<path d="M53.7076 50.4109H52.443C51.7829 50.4109 51.2478 49.8758 51.2478 49.2157C51.2478 48.5556 51.7829 48.0205 52.443 48.0205H53.7076C54.1197 48.0205 54.5114 47.8536 54.8104 47.5508C55.2741 47.081 56.0311 47.0763 56.5007 47.54C56.9705 48.0038 56.9753 48.7606 56.5116 49.2303C55.7598 49.9916 54.764 50.4109 53.7076 50.4109Z" fill="white"/>
</g>
<defs>
<linearGradient id="paint0_linear" x1="30" y1="38.1211" x2="30" y2="24.5682" gradientUnits="userSpaceOnUse">
<stop stop-color="#74D2E8"/>
<stop offset="1" stop-color="#BAEAF5"/>
</linearGradient>
<linearGradient id="paint1_linear" x1="29.9999" y1="39.3193" x2="29.9999" y2="18.2034" gradientUnits="userSpaceOnUse">
<stop stop-color="#7ED99E"/>
<stop offset="0.2532" stop-color="#81DAA3"/>
<stop offset="0.5725" stop-color="#88DDB3"/>
<stop offset="0.9261" stop-color="#95E2CD"/>
<stop offset="1" stop-color="#98E3D3"/>
</linearGradient>
<linearGradient id="paint2_linear" x1="29.9999" y1="38.6259" x2="29.9999" y2="14.1639" gradientUnits="userSpaceOnUse">
<stop stop-color="#EC6F80"/>
<stop offset="1" stop-color="#ECA0AA"/>
</linearGradient>
<linearGradient id="paint3_linear" x1="29.9999" y1="43.3381" x2="29.9999" y2="6.66674" gradientUnits="userSpaceOnUse">
<stop stop-color="#F4D952"/>
<stop offset="1" stop-color="#F9EDAF"/>
</linearGradient>
<linearGradient id="paint4_linear" x1="15.7493" y1="58.2036" x2="15.7493" y2="36.5973" gradientUnits="userSpaceOnUse">
<stop stop-color="#D9E0E0"/>
<stop offset="1" stop-color="#F3F3F3"/>
</linearGradient>
<linearGradient id="paint5_linear" x1="44.2507" y1="59.2825" x2="44.2507" y2="37.6763" gradientUnits="userSpaceOnUse">
<stop stop-color="#D9E0E0"/>
<stop offset="1" stop-color="#F3F3F3"/>
</linearGradient>
<clipPath id="clip0">
<rect width="60" height="60" fill="white"/>
</clipPath>
</defs>
</svg>
