<svg width="80" height="80" viewBox="0 0 80 80" fill="none" xmlns="http://www.w3.org/2000/svg">
<path d="M9.73462 57.9007V27.629C9.73462 23.6052 12.9965 20.3434 17.0202 20.3434H66.8752C70.8989 20.3434 74.1608 23.6052 74.1608 27.629V57.9008C74.1608 61.9246 70.8989 65.1864 66.8752 65.1864H17.0202C12.9965 65.1863 9.73462 61.9244 9.73462 57.9007V57.9007Z" fill="url(#paint0_linear)"/>
<path d="M21.6531 40.118C19.0833 40.4983 16.4909 40.3592 14.0308 39.8328C12.5234 39.5102 11.0415 40.475 10.7239 41.9835C10.4058 43.4938 11.3775 44.9657 12.8866 45.2883C14.8063 45.6985 16.7547 45.9125 18.6791 45.9126H18.6802C20.0163 45.9126 21.3351 45.8071 22.6281 45.6059C23.1696 44.7246 23.7899 43.8323 24.4959 42.9346C23.3649 42.0992 22.4229 41.156 21.6531 40.118Z" fill="#424E5E"/>
<path d="M66.6902 25.9312H17.2055C16.1655 25.9312 15.3225 26.7742 15.3225 27.8142V47.9834C20.7641 53.1661 47.916 57.4177 51.9972 59.5984H66.6902C67.7302 59.5984 68.5732 58.7554 68.5732 57.7154V27.8142C68.5732 26.7743 67.7302 25.9312 66.6902 25.9312V25.9312Z" fill="url(#paint1_linear)"/>
<path d="M21.6532 40.1181C19.5294 40.4324 17.3899 40.3921 15.3225 40.0721V45.6982C16.4428 45.8373 17.5651 45.9125 18.6793 45.9127H18.6804C20.0165 45.9127 21.3353 45.8072 22.6283 45.6059C23.1698 44.7246 23.7901 43.8324 24.4961 42.9347C23.3649 42.0993 22.4229 41.156 21.6532 40.1181Z" fill="#FCB500"/>
<path d="M50.5609 65.1863H33.3348L31.6355 72.2738H52.2602L50.5609 65.1863Z" fill="url(#paint2_linear)"/>
<path d="M54.6676 80H29.228C27.95 80 26.9595 78.8822 27.1135 77.6134L27.3135 75.9652C27.5691 73.8583 29.3574 72.2739 31.4798 72.2739H52.4158C54.5382 72.2739 56.3264 73.8583 56.5821 75.9652L56.7821 77.6134C56.9361 78.8822 55.9458 80 54.6676 80Z" fill="url(#paint3_linear)"/>
<path d="M25.4478 50.7332C23.1498 47.6454 18.977 46.4389 15.3225 47.9836V57.7155C15.3225 58.7555 16.1655 59.5985 17.2055 59.5985H19.846C20.9686 57.1391 22.8792 52.7923 25.4478 50.7332V50.7332Z" fill="url(#paint4_linear)"/>
<path d="M58.4375 47.7303C55.4404 47.7802 52.612 46.9361 49.5218 45.0989C47.627 43.9726 45.1779 44.5954 44.0516 46.4902C42.9252 48.3852 43.548 50.8341 45.4426 51.9605C49.781 54.5396 54.3206 55.909 59.2592 55.6886C60.3148 53.4553 60.4632 49.4129 58.4375 47.7303V47.7303Z" fill="url(#paint5_linear)"/>
<path d="M60.6897 47.5341C59.9242 47.6538 59.1759 47.7181 58.4375 47.7304C57.9599 49.4192 57.998 53.8958 59.2592 55.6887C60.1344 55.6496 61.0219 55.5615 61.9233 55.4205C64.1011 55.0797 65.5905 53.0381 65.2498 50.8603C64.9091 48.6828 62.8678 47.1934 60.6897 47.5341Z" fill="url(#paint6_linear)"/>
<path d="M32.5454 22.0387C32.565 15.8191 27.4817 10.5571 21.2622 10.5555C15.0278 10.5541 9.97329 15.6077 9.97329 21.8418C9.97329 23.7927 9.95416 27.6636 6.87352 29.4618C4.00643 31.1355 3.98699 35.3017 6.83416 37.0089C13.02 40.7179 22.0418 42.0505 29.3221 37.1712C29.3221 37.1713 32.5094 33.5251 32.5454 22.0387Z" fill="url(#paint7_linear)"/>
<path d="M33.3158 24.4665C39.549 24.4665 44.602 19.4134 44.602 13.1802C44.602 6.94704 39.549 1.89403 33.3158 1.89403C27.0826 1.89403 22.0295 6.94704 22.0295 13.1802C22.0295 19.4134 27.0826 24.4665 33.3158 24.4665Z" fill="url(#paint8_linear)"/>
<path d="M51.0041 7.76814C47.6994 6.56527 42.1767 11.5272 40.7231 17.3971C39.8777 20.8109 41.6197 23.2693 44.9244 24.4722C48.2291 25.6751 51.1438 24.9113 52.6904 21.7528C55.35 16.3219 54.3088 8.97101 51.0041 7.76814V7.76814Z" fill="url(#paint9_linear)"/>
<path d="M44.3182 39.5864H27.5248C19.5969 47.2849 18.5868 55.0671 19.8458 59.5985H51.997C53.2562 55.0671 52.2461 47.2849 44.3182 39.5864Z" fill="url(#paint10_linear)"/>
<path d="M66.3624 34.0477C65.9138 42.6196 59.4248 47.2708 42.2986 47.2708C25.1724 47.2708 18.8999 40.5498 18.8999 30.812C18.8999 21.0741 25.5088 13.1803 38.4317 13.1803C51.3544 13.1803 66.9361 23.0827 66.3624 34.0477V34.0477Z" fill="url(#paint11_linear)"/>
<path d="M31.1278 34.4272C32.4424 34.4272 33.508 33.5708 33.508 32.5144C33.508 31.458 32.4424 30.6016 31.1278 30.6016C29.8132 30.6016 28.7476 31.458 28.7476 32.5144C28.7476 33.5708 29.8132 34.4272 31.1278 34.4272Z" fill="#EAADCD"/>
<path d="M59.139 34.4272C60.4536 34.4272 61.5193 33.5708 61.5193 32.5144C61.5193 31.458 60.4536 30.6016 59.139 30.6016C57.8245 30.6016 56.7588 31.458 56.7588 32.5144C56.7588 33.5708 57.8245 34.4272 59.139 34.4272Z" fill="#EAADCD"/>
<path d="M35.2085 32.5144C37.8153 32.5144 39.9285 30.4012 39.9285 27.7944C39.9285 25.1876 37.8153 23.0744 35.2085 23.0744C32.6017 23.0744 30.4885 25.1876 30.4885 27.7944C30.4885 30.4012 32.6017 32.5144 35.2085 32.5144Z" fill="white"/>
<path d="M39.8549 28.4574C40.2122 26.9458 39.2764 25.4307 37.7648 25.0733C36.2531 24.716 34.738 25.6518 34.3806 27.1634C34.0233 28.6751 34.9591 30.1902 36.4708 30.5475C37.9824 30.9049 39.4975 29.9691 39.8549 28.4574Z" fill="#3B3B44"/>
<path d="M55.0584 32.5144C57.6652 32.5144 59.7784 30.4012 59.7784 27.7944C59.7784 25.1876 57.6652 23.0744 55.0584 23.0744C52.4516 23.0744 50.3384 25.1876 50.3384 27.7944C50.3384 30.4012 52.4516 32.5144 55.0584 32.5144Z" fill="white"/>
<path d="M58.935 29.7863C60.0334 28.6879 60.0334 26.9071 58.935 25.8086C57.8366 24.7102 56.0557 24.7102 54.9573 25.8086C53.8589 26.9071 53.8589 28.6879 54.9573 29.7863C56.0557 30.8847 57.8366 30.8847 58.935 29.7863Z" fill="#3B3B44"/>
<path d="M51.3384 41.8765C52.5048 41.8765 53.4503 40.6384 53.4503 39.1112C53.4503 37.584 52.5048 36.346 51.3384 36.346C50.1721 36.346 49.2266 37.584 49.2266 39.1112C49.2266 40.6384 50.1721 41.8765 51.3384 41.8765Z" fill="#3B3B44"/>
<path d="M35.9359 15.3203C35.7101 17.5582 38.2852 19.8263 41.8215 20.4499C45.4629 21.0919 48.7437 19.7471 49.1494 17.4461C49.3961 16.0465 49.4784 14.1732 49.4022 12.1734C44.6019 11.261 40.8302 11.9461 35.9359 15.3203V15.3203Z" fill="url(#paint12_linear)"/>
<path d="M41.043 15.6864C40.7485 15.541 40.5217 15.3904 40.3656 15.262C40.4035 15.102 40.4475 14.9342 40.4943 14.7628C38.9898 14.6295 37.7856 14.6605 35.9359 15.3205C35.7718 16.9466 37.086 18.5888 39.1742 19.6043C40.4648 20.232 41.9984 19.4459 42.2476 18.0325L42.2502 18.0183C42.4196 17.0575 41.9176 16.1181 41.043 15.6864Z" fill="#FCB500"/>
<path d="M48.4873 5.16923C44.9964 4.93003 41.585 5.42198 38.3163 8.27568C37.1693 10.738 36.2893 13.2695 35.963 15.1208C35.9512 15.1872 35.9427 15.2537 35.936 15.3203C40.0007 15.0288 44.6852 14.1633 49.4025 12.1734C49.3129 9.82628 49.0049 7.30533 48.4873 5.16923V5.16923Z" fill="url(#paint13_linear)"/>
<path d="M40.4058 8.72571C39.3029 8.28778 38.0511 8.81638 37.5979 9.91312C36.8074 11.8255 36.217 13.6793 35.9628 15.1209C35.951 15.1874 35.9427 15.2538 35.936 15.3205C37.3853 15.2165 38.9142 15.0377 40.4944 14.7628C40.7524 13.8186 41.1395 12.7142 41.6092 11.5769C42.0718 10.4561 41.5328 9.1732 40.4058 8.72571V8.72571Z" fill="#E05D6F"/>
<path d="M48.4871 5.16923C47.8138 2.39043 46.7861 0.263576 45.4232 0.0232572C43.3007 -0.350926 40.3774 3.85035 38.3162 8.27569C41.5369 7.80573 45.0422 6.87298 48.4871 5.16923Z" fill="url(#paint14_linear)"/>
<path d="M21.222 7.92781C24.5267 6.72494 30.0494 11.6869 31.503 17.5568C32.3484 20.9705 30.6064 23.429 27.3017 24.6319C23.997 25.8347 21.0823 25.0709 19.5357 21.9125C16.8761 16.4816 17.9173 9.13068 21.222 7.92781Z" fill="url(#paint15_linear)"/>
<path d="M40.6817 52.5205C38.0252 52.1858 35.0707 51.1612 33.2004 49.0667C31.7322 47.4224 29.2088 47.2797 27.565 48.7477C25.9207 50.2159 25.7779 52.7389 27.246 54.3831C30.1366 57.6205 34.5854 59.7767 39.5291 60.425C41.3586 59.3109 41.677 54.3754 40.6817 52.5205Z" fill="url(#paint16_linear)"/>
<path d="M46.6671 56.64C46.6671 54.4357 44.8803 52.6488 42.6758 52.6488C42.0479 52.6488 41.3748 52.6077 40.6816 52.5203C39.3815 54.3324 39.0804 58.5315 39.5292 60.4249C40.56 60.56 41.6118 60.6311 42.6758 60.6311C44.8801 60.6312 46.6671 58.8443 46.6671 56.64Z" fill="url(#paint17_linear)"/>
<path d="M70.1896 71.7295L67.9426 66.3052C67.6057 65.4919 67.9918 64.5598 68.8049 64.2231C69.6183 63.886 70.5502 64.2723 70.887 65.0854L73.134 70.5098C73.4709 71.323 73.0847 72.2551 72.2717 72.5919C71.4525 72.9313 70.5239 72.5369 70.1896 71.7295Z" fill="#65C5D4"/>
<path d="M71.3257 65.9321L73.8229 65.7447C75.1724 65.6435 75.7803 64.0047 74.8234 63.0478L68.2254 56.4498C66.5622 54.7867 63.7185 55.9646 63.7185 58.3166V67.6474C63.7185 69.0008 65.3072 69.7297 66.333 68.847L68.2313 67.2137C69.0994 66.4669 70.1837 66.0176 71.3257 65.9321Z" fill="url(#paint18_linear)"/>
<path d="M45.1336 77.7323H40.9935C40.1135 77.7323 39.3999 77.0188 39.3999 76.1386C39.3999 75.2586 40.1135 74.545 40.9935 74.545H45.1336C46.0136 74.545 46.7272 75.2586 46.7272 76.1386C46.7272 77.0188 46.0136 77.7323 45.1336 77.7323Z" fill="#8196AB"/>
<path d="M52.3208 77.7323H51.5502C50.67 77.7323 49.9565 77.0188 49.9565 76.1386C49.9565 75.2586 50.67 74.545 51.5502 74.545H52.3208C53.201 74.545 53.9145 75.2586 53.9145 76.1386C53.9145 77.0188 53.201 77.7323 52.3208 77.7323Z" fill="#8196AB"/>
<defs>
<linearGradient id="paint0_linear" x1="41.9477" y1="66.3713" x2="41.9477" y2="24.919" gradientUnits="userSpaceOnUse">
<stop stop-color="#4E5660"/>
<stop offset="1" stop-color="#64768D"/>
</linearGradient>
<linearGradient id="paint1_linear" x1="41.9478" y1="60.4883" x2="41.9478" y2="29.3664" gradientUnits="userSpaceOnUse">
<stop stop-color="#F4D952"/>
<stop offset="1" stop-color="#F9EDAF"/>
</linearGradient>
<linearGradient id="paint2_linear" x1="41.9479" y1="64.5148" x2="41.9479" y2="73.6278" gradientUnits="userSpaceOnUse">
<stop stop-color="#CDD4D4"/>
<stop offset="1" stop-color="#F3F3F3"/>
</linearGradient>
<linearGradient id="paint3_linear" x1="27.2027" y1="76.1369" x2="54.6832" y2="76.1369" gradientUnits="userSpaceOnUse">
<stop stop-color="#4E5660"/>
<stop offset="1" stop-color="#64768D"/>
</linearGradient>
<linearGradient id="paint4_linear" x1="19.6247" y1="53.4554" x2="14.4765" y2="53.4554" gradientUnits="userSpaceOnUse">
<stop stop-color="#7ED99E"/>
<stop offset="0.2532" stop-color="#81DAA3"/>
<stop offset="0.5725" stop-color="#88DDB3"/>
<stop offset="0.9261" stop-color="#95E2CD"/>
<stop offset="1" stop-color="#98E3D3"/>
</linearGradient>
<linearGradient id="paint5_linear" x1="51.2004" y1="50.1248" x2="58.766" y2="50.1248" gradientUnits="userSpaceOnUse">
<stop stop-color="#CDD4D4"/>
<stop offset="1" stop-color="#F3F3F3"/>
</linearGradient>
<linearGradient id="paint6_linear" x1="61.7266" y1="56.5025" x2="61.7266" y2="49.4778" gradientUnits="userSpaceOnUse">
<stop stop-color="#E08243"/>
<stop offset="1" stop-color="#F0BB78"/>
</linearGradient>
<linearGradient id="paint7_linear" x1="20.0868" y1="25.4453" x2="1.96707" y2="25.4453" gradientUnits="userSpaceOnUse">
<stop stop-color="#B39BDB"/>
<stop offset="1" stop-color="#D0C3E8"/>
</linearGradient>
<linearGradient id="paint8_linear" x1="33.3158" y1="14.2331" x2="33.3158" y2="1.731" gradientUnits="userSpaceOnUse">
<stop stop-color="#B39BDB"/>
<stop offset="1" stop-color="#D0C3E8"/>
</linearGradient>
<linearGradient id="paint9_linear" x1="47.355" y1="19.622" x2="47.355" y2="7.11396" gradientUnits="userSpaceOnUse">
<stop stop-color="#CDD4D4"/>
<stop offset="1" stop-color="#F3F3F3"/>
</linearGradient>
<linearGradient id="paint10_linear" x1="35.9215" y1="42.0231" x2="35.9215" y2="61.0986" gradientUnits="userSpaceOnUse">
<stop stop-color="#CDD4D4"/>
<stop offset="1" stop-color="#F3F3F3"/>
</linearGradient>
<linearGradient id="paint11_linear" x1="7.97624" y1="30.2255" x2="56.0837" y2="30.2255" gradientUnits="userSpaceOnUse">
<stop stop-color="#D9E0E0"/>
<stop offset="1" stop-color="#F3F3F3"/>
</linearGradient>
<linearGradient id="paint12_linear" x1="35.5839" y1="16.2075" x2="51.0199" y2="16.2075" gradientUnits="userSpaceOnUse">
<stop stop-color="#F4D952"/>
<stop offset="1" stop-color="#F9EDAF"/>
</linearGradient>
<linearGradient id="paint13_linear" x1="35.5834" y1="10.2183" x2="47.912" y2="10.2183" gradientUnits="userSpaceOnUse">
<stop stop-color="#EC6F80"/>
<stop offset="1" stop-color="#ECA0AA"/>
</linearGradient>
<linearGradient id="paint14_linear" x1="38.0008" y1="4.13784" x2="47.5104" y2="4.13784" gradientUnits="userSpaceOnUse">
<stop stop-color="#7ED99E"/>
<stop offset="0.2532" stop-color="#81DAA3"/>
<stop offset="0.5725" stop-color="#88DDB3"/>
<stop offset="0.9261" stop-color="#95E2CD"/>
<stop offset="1" stop-color="#98E3D3"/>
</linearGradient>
<linearGradient id="paint15_linear" x1="24.8713" y1="27.5305" x2="24.8713" y2="12.7248" gradientUnits="userSpaceOnUse">
<stop stop-color="#CDD4D4"/>
<stop offset="1" stop-color="#F3F3F3"/>
</linearGradient>
<linearGradient id="paint16_linear" x1="33.7344" y1="59.4121" x2="33.7344" y2="49.533" gradientUnits="userSpaceOnUse">
<stop stop-color="#D9E0E0"/>
<stop offset="1" stop-color="#F3F3F3"/>
</linearGradient>
<linearGradient id="paint17_linear" x1="43.0004" y1="61.436" x2="43.0004" y2="54.4904" gradientUnits="userSpaceOnUse">
<stop stop-color="#E08243"/>
<stop offset="1" stop-color="#F0BB78"/>
</linearGradient>
<linearGradient id="paint18_linear" x1="63.7185" y1="62.4521" x2="75.2892" y2="62.4521" gradientUnits="userSpaceOnUse">
<stop stop-color="#74D2E8"/>
<stop offset="1" stop-color="#BAEAF5"/>
</linearGradient>
</defs>
</svg>
