<svg width="80" height="80" viewBox="0 0 80 80" fill="none" xmlns="http://www.w3.org/2000/svg">
<g clip-path="url(#clip0)">
<path d="M66.4921 29.9651C64.0875 27.7028 63.4665 24.8855 65.3763 22.0647C68.8443 16.9425 75.8982 14.129 78.6462 16.4506C79.684 17.3272 80.1013 18.9322 79.9793 20.82C75.8827 25.9983 69.7595 29.5549 66.4921 29.9651Z" fill="url(#paint0_linear)"/>
<path d="M66.9118 30.3404C66.7661 30.2172 66.627 30.092 66.4922 29.9651C69.5559 23.8781 75.733 21.4764 79.9794 20.8198C79.7781 23.931 78.1102 27.8112 75.3277 30.4718C72.7277 32.9578 69.6598 32.6619 66.9118 30.3404Z" fill="url(#paint1_linear)"/>
<path d="M13.5078 29.9651C15.9124 27.7028 16.5334 24.8855 14.6236 22.0647C11.1556 16.9425 4.10172 14.129 1.35367 16.4506C0.315901 17.3272 -0.10147 18.9322 0.0206021 20.82C4.11734 25.9983 10.2405 29.5549 13.5078 29.9651Z" fill="url(#paint2_linear)"/>
<path d="M13.0883 30.3404C13.234 30.2172 13.3731 30.092 13.5079 29.9651C10.4442 23.8781 4.26713 21.4764 0.020752 20.8198C0.222027 23.931 1.88992 27.8112 4.67239 30.4718C7.27239 32.9578 10.3403 32.6619 13.0883 30.3404V30.3404Z" fill="url(#paint3_linear)"/>
<path d="M71.9351 24.9933C57.9004 32.2125 48.3648 38.8813 40.0001 38.8813C31.6355 38.8813 22.0999 32.2125 8.06516 24.9933C6.57528 26.4671 5.65161 28.5121 5.65161 30.7733V60.8969C5.65161 65.3874 9.29193 69.0278 13.7824 69.0278H66.218C70.7085 69.0278 74.3488 65.3874 74.3488 60.8969V30.7731C74.3487 28.5121 73.425 26.4671 71.9351 24.9933V24.9933Z" fill="url(#paint4_linear)"/>
<path d="M66.2176 22.6424H13.7822C11.5529 22.6424 9.53379 23.5402 8.06494 24.9933L33.4328 49.7036C37.0873 53.2632 42.9124 53.2632 46.5669 49.7036L71.9349 24.9933C70.4661 23.5402 68.4469 22.6424 66.2176 22.6424V22.6424Z" fill="url(#paint5_linear)"/>
<path d="M48.2666 51.4483C47.3648 50.5226 45.9509 50.368 44.8432 51.0338C41.2598 53.1876 36.5544 52.7441 33.4328 49.7034L8.08095 24.978C6.65625 26.3796 5.74676 28.302 5.65991 30.4373L29.541 53.6995C32.356 56.4413 36.0704 57.9514 40 57.9514C42.7477 57.9514 45.3901 57.2131 47.6935 55.8316C49.2534 54.8958 49.5359 52.7514 48.2666 51.4483Z" fill="#C9D0D6"/>
<path d="M60.582 60.6723L56.2834 56.3737C55.6611 55.7514 55.6611 54.7423 56.2834 54.1198C56.9059 53.4977 57.9146 53.4977 58.5372 54.1198L62.8359 58.4185C63.4582 59.0408 63.4582 60.0499 62.8359 60.6723C62.2133 61.2947 61.2047 61.2945 60.582 60.6723V60.6723Z" fill="#C9D0D6"/>
<path d="M17.1642 60.6723C16.5419 60.05 16.5419 59.041 17.1642 58.4185L21.4629 54.1198C22.0854 53.4977 23.0941 53.4977 23.7168 54.1198C24.3391 54.7422 24.3391 55.7512 23.7168 56.3737L19.4181 60.6723C18.7953 61.2947 17.7867 61.2945 17.1642 60.6723Z" fill="#C9D0D6"/>
<path d="M31.5764 31.9949C31.7763 34.821 35.4593 37.0837 39.9823 37.0988C44.6398 37.1144 48.4234 34.7412 48.4333 31.7979C48.4392 30.0078 48.1393 27.6652 47.6156 25.1992C41.4617 25.0969 36.9273 26.7567 31.5764 31.9949V31.9949Z" fill="url(#paint6_linear)"/>
<path d="M44.9768 16.702C40.5927 17.1541 36.4638 18.4969 33.0192 22.7402C32.124 26.0424 31.5749 29.3734 31.5669 31.7413C31.5666 31.8263 31.5703 31.9107 31.5762 31.9947C36.5586 30.7606 42.1875 28.6812 47.6154 25.199C47.0009 22.3052 46.0777 19.2424 44.9768 16.702V16.702Z" fill="url(#paint7_linear)"/>
<path d="M44.9769 16.702C43.5449 13.3976 41.8131 10.9782 40.0698 10.9723C37.3551 10.9632 34.6281 16.8051 33.0193 22.7402C36.916 21.4658 41.0666 19.556 44.9769 16.702V16.702Z" fill="url(#paint8_linear)"/>
<path d="M69.5677 53.5504C68.6876 53.5504 67.9741 52.8368 67.9741 51.9568V50.4322C67.9741 49.5522 68.6876 48.8386 69.5677 48.8386C70.4478 48.8386 71.1614 49.5522 71.1614 50.4322V51.9568C71.1614 52.837 70.4479 53.5504 69.5677 53.5504Z" fill="white"/>
<path d="M69.5677 45.4962C68.6876 45.4962 67.9741 44.7826 67.9741 43.9026V39.713C67.9741 38.833 68.6876 38.1194 69.5677 38.1194C70.4478 38.1194 71.1614 38.833 71.1614 39.713V43.9026C71.1614 44.7828 70.4479 45.4962 69.5677 45.4962Z" fill="white"/>
</g>
<defs>
<linearGradient id="paint0_linear" x1="72.1257" y1="28.2966" x2="72.1257" y2="16.8726" gradientUnits="userSpaceOnUse">
<stop stop-color="#CDD4D4"/>
<stop offset="1" stop-color="#F3F3F3"/>
</linearGradient>
<linearGradient id="paint1_linear" x1="68.2671" y1="26.3738" x2="78.8002" y2="26.4054" gradientUnits="userSpaceOnUse">
<stop stop-color="#D5738E"/>
<stop offset="1" stop-color="#E6A3C1"/>
</linearGradient>
<linearGradient id="paint2_linear" x1="7.87431" y1="28.2966" x2="7.87431" y2="16.8726" gradientUnits="userSpaceOnUse">
<stop stop-color="#CDD4D4"/>
<stop offset="1" stop-color="#F3F3F3"/>
</linearGradient>
<linearGradient id="paint3_linear" x1="11.7328" y1="26.3929" x2="1.19976" y2="26.4245" gradientUnits="userSpaceOnUse">
<stop stop-color="#D5738E"/>
<stop offset="1" stop-color="#E6A3C1"/>
</linearGradient>
<linearGradient id="paint4_linear" x1="40.0001" y1="89.6" x2="40.0001" y2="40.5819" gradientUnits="userSpaceOnUse">
<stop stop-color="#CDD4D4"/>
<stop offset="1" stop-color="#F3F3F3"/>
</linearGradient>
<linearGradient id="paint5_linear" x1="15.1752" y1="37.5079" x2="81.0414" y2="37.5079" gradientUnits="userSpaceOnUse">
<stop stop-color="#B39BDB"/>
<stop offset="1" stop-color="#D0C3E8"/>
</linearGradient>
<linearGradient id="paint6_linear" x1="39.9946" y1="38.4203" x2="40.0329" y2="25.6345" gradientUnits="userSpaceOnUse">
<stop stop-color="#F4D952"/>
<stop offset="1" stop-color="#F9EDAF"/>
</linearGradient>
<linearGradient id="paint7_linear" x1="30.7086" y1="24.3137" x2="49.4321" y2="24.3699" gradientUnits="userSpaceOnUse">
<stop stop-color="#EC6F80"/>
<stop offset="1" stop-color="#ECA0AA"/>
</linearGradient>
<linearGradient id="paint8_linear" x1="33.7602" y1="16.8365" x2="43.7831" y2="16.8665" gradientUnits="userSpaceOnUse">
<stop stop-color="#7ED99E"/>
<stop offset="0.2532" stop-color="#81DAA3"/>
<stop offset="0.5725" stop-color="#88DDB3"/>
<stop offset="0.9261" stop-color="#95E2CD"/>
<stop offset="1" stop-color="#98E3D3"/>
</linearGradient>
<clipPath id="clip0">
<rect width="80" height="80" fill="white"/>
</clipPath>
</defs>
</svg>
