<svg width="320" height="40" viewBox="0 0 320 40" fill="none" xmlns="http://www.w3.org/2000/svg">
<path fill-rule="evenodd" clip-rule="evenodd" d="M0 11.0246L13.3333 14.888C26.6667 18.7514 53.3333 26.4782 80 30.3415C106.667 34.2049 133.333 34.2049 160 27.444C186.667 20.6831 213.333 7.16122 240 2.33199C266.667 -2.49724 293.333 1.36615 306.667 3.29784L320 5.22953V40H306.667C293.333 40 266.667 40 240 40C213.333 40 186.667 40 160 40C133.333 40 106.667 40 80 40C53.3333 40 26.6667 40 13.3333 40H0V11.0246Z" fill="#9800FF"/>
</svg>
