<svg width="1440" height="94" viewBox="0 0 1440 94" preserveAspectRatio="none" fill="none" xmlns="http://www.w3.org/2000/svg">
<path fill-rule="evenodd" clip-rule="evenodd" d="M0 25.9078L60.0417 34.9868C120.083 44.0657 240.167 62.2237 360.25 71.3026C480.333 80.3816 600.417 80.3816 720.5 64.4934C840.583 48.6052 960.667 16.8289 1080.75 5.48018C1200.83 -5.86851 1320.92 3.21044 1380.96 7.74992L1441 12.2894V94H1380.96C1320.92 94 1200.83 94 1080.75 94C960.667 94 840.583 94 720.5 94C600.417 94 480.333 94 360.25 94C240.167 94 120.083 94 60.0417 94H0V25.9078Z" fill="#9800FF"/>
</svg>
