<svg width="90" height="90" viewBox="0 0 90 90" fill="none" xmlns="http://www.w3.org/2000/svg">
<g clip-path="url(#clip0)">
<path d="M73.7582 39.0803C70.8669 36.36 70.1202 32.9725 72.4164 29.5808C76.5864 23.4219 85.0681 20.0388 88.3723 22.8303C89.6201 23.8845 90.1219 25.8143 89.9751 28.0842C85.0493 34.3105 77.6868 38.5871 73.7582 39.0803Z" fill="url(#paint0_linear)"/>
<path d="M74.2627 39.5315C74.0876 39.3835 73.9203 39.2327 73.7582 39.0803C77.4421 31.7613 84.8693 28.8735 89.9752 28.084C89.7334 31.8249 87.7277 36.4904 84.382 39.6895C81.2556 42.6787 77.5669 42.323 74.2627 39.5315Z" fill="url(#paint1_linear)"/>
<path d="M16.2418 39.0803C19.1331 36.36 19.8798 32.9725 17.5835 29.5808C13.4136 23.4219 4.93189 20.0388 1.6277 22.8303C0.379895 23.8845 -0.121918 25.8143 0.0247355 28.0842C4.95071 34.3105 12.3131 38.5871 16.2418 39.0803Z" fill="url(#paint2_linear)"/>
<path d="M15.7373 39.5315C15.9126 39.3835 16.0797 39.2327 16.2418 39.0803C12.5579 31.7613 5.13071 28.8735 0.0247345 28.084C0.266766 31.8249 2.27222 36.4904 5.618 39.6895C8.74434 42.6787 12.4331 42.323 15.7373 39.5315Z" fill="url(#paint3_linear)"/>
<path d="M81.2402 42.9839H8.75958V70.2507C8.75958 77.2205 14.4099 82.8708 21.3797 82.8708H68.6202C75.59 82.8708 81.2402 77.2205 81.2402 70.2507V42.9839Z" fill="url(#paint4_linear)"/>
<path d="M81.2402 42.9839H8.75958V70.2507C8.75958 77.2205 14.4099 82.8708 21.3797 82.8708H68.6202C75.59 82.8708 81.2402 77.2205 81.2402 70.2507V42.9839Z" fill="url(#paint5_linear)"/>
<path d="M57.4501 66.3218H32.5499C18.2874 66.3218 6.72527 54.7598 6.72527 40.4972V37.7416C6.72527 33.6613 10.033 30.3535 14.1133 30.3535H75.8867C79.967 30.3535 83.2748 33.6613 83.2748 37.7416V40.4972C83.2746 54.7596 71.7126 66.3218 57.4501 66.3218Z" fill="url(#paint6_linear)"/>
<path d="M51.7715 58.4219H38.2285C35.732 58.4219 33.7082 60.4456 33.7082 62.9421V69.7013C33.7082 72.1978 35.732 74.2215 38.2285 74.2215H51.7715C54.268 74.2215 56.2918 72.1978 56.2918 69.7013V62.9421C56.2918 60.4458 54.268 58.4219 51.7715 58.4219Z" fill="url(#paint7_linear)"/>
<path d="M49.187 62.728H40.813C39.8956 62.728 39.152 63.4717 39.152 64.3891V68.2541C39.152 69.1714 39.8956 69.9151 40.813 69.9151H49.187C50.1044 69.9151 50.848 69.1714 50.848 68.2541V64.3891C50.848 63.4719 50.1044 62.728 49.187 62.728Z" fill="url(#paint8_linear)"/>
<path d="M68.355 30.3534H58.5518V23.8408C58.5518 20.0314 55.4525 16.9321 51.643 16.9321H38.357C34.5476 16.9321 31.4482 20.0314 31.4482 23.8408V30.3534H21.645V23.8408C21.645 14.6258 29.1419 7.12891 38.357 7.12891H51.643C60.8579 7.12891 68.355 14.6258 68.355 23.8408V30.3534Z" fill="url(#paint9_linear)"/>
<path d="M36.9577 38.7787C37.1485 41.4769 40.6647 43.6369 44.983 43.6514C49.4295 43.6663 53.0417 41.4005 53.051 38.5906C53.0568 36.8815 52.7705 34.645 52.2704 32.2908C46.3952 32.1933 42.0664 33.7776 36.9577 38.7787Z" fill="url(#paint10_linear)"/>
<path d="M49.7513 24.1787C45.5658 24.6104 41.6241 25.8923 38.3353 29.9435C37.4807 33.0962 36.9565 36.2764 36.9489 38.5369C36.9487 38.618 36.9521 38.6986 36.9579 38.7788C41.7148 37.6005 47.0884 35.6153 52.2706 32.2911C51.6836 29.528 50.8023 26.6039 49.7513 24.1787Z" fill="url(#paint11_linear)"/>
<path d="M49.7513 24.1786C48.3843 21.0238 46.7308 18.7141 45.0665 18.7085C42.4748 18.6999 39.8712 24.2772 38.3353 29.9434C42.0554 28.7267 46.0181 26.9033 49.7513 24.1786Z" fill="url(#paint12_linear)"/>
<path d="M35.9731 76.3932C36.528 75.2784 36.2313 73.9433 35.2863 73.1326C34.3201 72.3038 33.708 71.0741 33.708 69.7013V66.3218H32.5497C21.8571 66.3218 12.6825 59.8234 8.7594 50.5605V60.6653C13.659 66.4355 20.6156 70.4075 28.4848 71.4357C28.8956 73.7488 30.1118 75.7865 31.8322 77.2475C33.1607 78.3754 35.1966 77.9532 35.9731 76.3932Z" fill="#997BCE"/>
<path d="M29.2561 57.0521C30.7339 57.0521 31.9319 56.0894 31.9319 54.9018C31.9319 53.7142 30.7339 52.7515 29.2561 52.7515C27.7783 52.7515 26.5803 53.7142 26.5803 54.9018C26.5803 56.0894 27.7783 57.0521 29.2561 57.0521Z" fill="#FF8392"/>
<path d="M60.7439 57.0521C62.2217 57.0521 63.4197 56.0894 63.4197 54.9018C63.4197 53.7142 62.2217 52.7515 60.7439 52.7515C59.2661 52.7515 58.0681 53.7142 58.0681 54.9018C58.0681 56.0894 59.2661 57.0521 60.7439 57.0521Z" fill="#FF8392"/>
<path d="M61.3863 50.4769C61.8517 47.5884 59.8873 44.8695 56.9987 44.4042C54.1102 43.9388 51.3913 45.9033 50.926 48.7918C50.4607 51.6803 52.4251 54.3992 55.3136 54.8645C58.2022 55.3299 60.921 53.3654 61.3863 50.4769Z" fill="white"/>
<path d="M53.0062 49.8623C53.1416 51.4841 54.4998 52.7583 56.1566 52.7583C57.8133 52.7583 59.1716 51.4839 59.3069 49.8623H53.0062Z" fill="#3B3B44"/>
<path d="M56.1566 44.3037C53.23 44.3037 50.8575 46.6762 50.8575 49.6028C50.8575 49.6899 50.8599 49.7763 50.8642 49.8622H61.449C61.4531 49.7761 61.4556 49.6897 61.4556 49.6028C61.4556 46.6762 59.0832 44.3037 56.1566 44.3037Z" fill="#A37460"/>
<path d="M39.0669 50.4701C39.5322 47.5815 37.5678 44.8627 34.6793 44.3973C31.7907 43.932 29.0719 45.8964 28.6065 48.785C28.1412 51.6735 30.1056 54.3924 32.9942 54.8577C35.8827 55.323 38.6016 53.3586 39.0669 50.4701Z" fill="white"/>
<path d="M30.693 49.8623C30.8284 51.4841 32.1866 52.7583 33.8432 52.7583C35.5 52.7583 36.8582 51.4839 36.9936 49.8623H30.693Z" fill="#3B3B44"/>
<path d="M33.8434 44.3037C30.9168 44.3037 28.5443 46.6762 28.5443 49.6028C28.5443 49.6899 28.5468 49.7763 28.551 49.8622H39.1358C39.1399 49.7761 39.1425 49.6897 39.1425 49.6028C39.1425 46.6762 36.7698 44.3037 33.8434 44.3037Z" fill="#A37460"/>
<path d="M47.0375 55.5201C46.7105 55.5201 46.3826 55.4014 46.1236 55.1616C45.4516 54.5382 44.5482 54.5382 43.8762 55.1616C43.3318 55.6664 42.4811 55.6343 41.9758 55.0897C41.471 54.5452 41.5031 53.6943 42.0476 53.1895C43.7585 51.6035 46.2412 51.6035 47.9521 53.1895C48.4965 53.6943 48.5288 54.5452 48.0238 55.0897C47.7591 55.3755 47.3988 55.5201 47.0375 55.5201Z" fill="#3B3B44"/>
<path d="M68.4719 59.5044C67.8819 59.5044 67.3044 59.2136 66.9618 58.6804C66.4266 57.8473 66.6679 56.7382 67.5011 56.2029C67.8659 55.9684 68.2282 55.7174 68.5778 55.4567C69.3717 54.8647 70.4949 55.0288 71.0867 55.8226C71.6785 56.6165 71.5147 57.7397 70.7208 58.3315C70.305 58.6415 69.8737 58.9403 69.4393 59.2195C69.1393 59.4122 68.8036 59.5044 68.4719 59.5044Z" fill="#DFF7FA"/>
<path d="M74.6147 53.3843C74.2805 53.3843 73.9422 53.2909 73.6406 53.0955C72.81 52.5565 72.5734 51.4462 73.1123 50.6156C73.6677 49.7595 74.1552 48.8527 74.5616 47.9199C74.9573 47.012 76.014 46.597 76.9213 46.9925C77.829 47.388 78.2444 48.4445 77.8489 49.3522C77.3642 50.4648 76.7826 51.5465 76.1205 52.5673C75.7771 53.0964 75.2018 53.3843 74.6147 53.3843Z" fill="#DFF7FA"/>
</g>
<defs>
<linearGradient id="paint0_linear" x1="80.532" y1="34.5045" x2="80.532" y2="22.9445" gradientUnits="userSpaceOnUse">
<stop stop-color="#CDD4D4"/>
<stop offset="1" stop-color="#F3F3F3"/>
</linearGradient>
<linearGradient id="paint1_linear" x1="78.0367" y1="34.7212" x2="90.7018" y2="34.7592" gradientUnits="userSpaceOnUse">
<stop stop-color="#D5738E"/>
<stop offset="1" stop-color="#E6A3C1"/>
</linearGradient>
<linearGradient id="paint2_linear" x1="9.46792" y1="34.5045" x2="9.46792" y2="22.9445" gradientUnits="userSpaceOnUse">
<stop stop-color="#CDD4D4"/>
<stop offset="1" stop-color="#F3F3F3"/>
</linearGradient>
<linearGradient id="paint3_linear" x1="11.9629" y1="34.7428" x2="-0.702034" y2="34.7808" gradientUnits="userSpaceOnUse">
<stop stop-color="#D5738E"/>
<stop offset="1" stop-color="#E6A3C1"/>
</linearGradient>
<linearGradient id="paint4_linear" x1="45" y1="58.9431" x2="45" y2="94.0691" gradientUnits="userSpaceOnUse">
<stop stop-color="#B39BDB"/>
<stop offset="1" stop-color="#D0C3E8"/>
</linearGradient>
<linearGradient id="paint5_linear" x1="45" y1="58.9431" x2="45" y2="94.0691" gradientUnits="userSpaceOnUse">
<stop stop-color="#B39BDB"/>
<stop offset="1" stop-color="#D0C3E8"/>
</linearGradient>
<linearGradient id="paint6_linear" x1="45" y1="93.1509" x2="45" y2="41.5028" gradientUnits="userSpaceOnUse">
<stop stop-color="#74D2E8"/>
<stop offset="1" stop-color="#BAEAF5"/>
</linearGradient>
<linearGradient id="paint7_linear" x1="33.2968" y1="66.3218" x2="64.5327" y2="66.3218" gradientUnits="userSpaceOnUse">
<stop stop-color="#F4D952"/>
<stop offset="1" stop-color="#F9EDAF"/>
</linearGradient>
<linearGradient id="paint8_linear" x1="45" y1="63.601" x2="45" y2="72.3082" gradientUnits="userSpaceOnUse">
<stop stop-color="#B39BDB"/>
<stop offset="1" stop-color="#D0C3E8"/>
</linearGradient>
<linearGradient id="paint9_linear" x1="45" y1="27.6971" x2="45" y2="2.40749" gradientUnits="userSpaceOnUse">
<stop stop-color="#F4D952"/>
<stop offset="1" stop-color="#F9EDAF"/>
</linearGradient>
<linearGradient id="paint10_linear" x1="44.9971" y1="44.9115" x2="45.0337" y2="32.7048" gradientUnits="userSpaceOnUse">
<stop stop-color="#F4D952"/>
<stop offset="1" stop-color="#F9EDAF"/>
</linearGradient>
<linearGradient id="paint11_linear" x1="36.1319" y1="31.444" x2="54.0072" y2="31.4976" gradientUnits="userSpaceOnUse">
<stop stop-color="#EC6F80"/>
<stop offset="1" stop-color="#ECA0AA"/>
</linearGradient>
<linearGradient id="paint12_linear" x1="39.0451" y1="24.3053" x2="48.614" y2="24.334" gradientUnits="userSpaceOnUse">
<stop stop-color="#7ED99E"/>
<stop offset="0.2532" stop-color="#81DAA3"/>
<stop offset="0.5725" stop-color="#88DDB3"/>
<stop offset="0.9261" stop-color="#95E2CD"/>
<stop offset="1" stop-color="#98E3D3"/>
</linearGradient>
<clipPath id="clip0">
<rect width="90" height="90" fill="white"/>
</clipPath>
</defs>
</svg>
