<svg width="350" height="350" viewBox="0 0 350 350" fill="none" xmlns="http://www.w3.org/2000/svg">
<g clip-path="url(#clip0)">
<path d="M267.026 343.114C267.026 343.114 291.619 331.575 294.595 310.54C297.572 289.505 280.932 278.032 280.932 278.032C280.932 278.032 314.605 267.253 311.177 220.572C307.749 173.89 276.548 166.344 276.548 166.344C276.548 166.344 289.286 104.208 227.501 129.779C227.501 129.779 243.056 46.0755 183.632 73.3632L167.594 223.08L267.026 343.114Z" fill="#E8C2D8"/>
<path d="M279.735 277.842C279.735 277.842 316.04 267.383 313.078 218.503C312.545 209.713 305.774 197.172 303.645 190.801C306.16 260.582 255.148 284.793 210.621 240.537C208.232 238.163 197.207 261.41 194.033 260.465L263.812 345.541C263.812 345.541 290.382 334.069 293.9 312.151C297.418 290.235 279.735 277.842 279.735 277.842Z" fill="#D392D8"/>
<path d="M286.988 275.846C282.281 261.222 256.151 267.878 220.912 280.493C220.838 280.437 220.765 280.379 220.691 280.324C228.187 269.676 234.041 257.544 239.492 238.242L251.086 199.909C254.98 186.12 254.412 172.126 250.241 159.468C254.478 157.049 258.538 153.319 262.115 148.164C273.01 132.465 268.91 105.13 264.022 101.738C259.133 98.345 232.092 104.068 221.197 119.767C220.766 120.387 220.365 121.007 219.978 121.625C214.861 118.57 209.266 116.127 203.258 114.429L162.123 102.812C159.051 101.944 156.034 101.345 153.077 100.974C153.724 97.0755 153.703 92.7101 152.872 87.9366C149.628 69.3073 127.735 52.9106 121.934 53.9209C116.133 54.9313 101.071 77.7626 104.315 96.3919C105.388 102.556 107.503 107.625 110.332 111.575C100.768 117.741 93.4282 125.376 89.0627 131.44C78.5272 146.073 69.2809 167.472 69.2809 167.472C48.9461 178.057 37.9915 197.305 39.3361 217.118C40.4449 233.465 47.8373 247.31 59.7489 258.388C70.2181 268.125 89.4497 275.987 100.597 278.114L102.308 278.939C101.999 279.965 101.697 281.01 101.398 282.062C60.3033 266.673 26.7142 253.18 20.4771 271.975C14.2065 290.872 47.4066 302.249 88.803 317.74L99.5313 289.071C94.6252 308.694 91.6139 330.703 91.6399 343.046H265.424C260.855 330.741 255.094 319.649 248.451 309.888C274.665 298.746 290.996 288.297 286.988 275.846Z" fill="#FAF1A9"/>
<path d="M197.721 285.93C206.462 282.241 215.538 279.571 224.553 276.652C230.351 267.251 235.16 256.164 239.69 240.122L251.285 201.79C255.179 188 254.61 174.007 250.44 161.349C254.678 158.93 258.737 155.199 262.314 150.045C273.209 134.346 269.109 107.011 264.221 103.618C261.965 102.053 254.994 102.433 247.07 104.832C250.257 110.178 249.748 134.688 239.025 148.491C236.627 151.578 234.133 154.083 231.609 156.04C229.175 157.926 227.85 160.88 228.1 163.949C228.985 174.787 227.417 186.289 223.052 197.491L208.306 233.627C203.596 245.717 199.137 254.774 194.409 262.376C190.514 268.638 190.699 276.652 195.093 282.575C195.913 283.68 196.799 284.797 197.721 285.93V285.93Z" fill="#DFB5A7"/>
<path d="M250.945 313.397C238.23 317.194 225.468 321.307 212.201 322.198C208.156 328.095 200.762 332.369 193.637 331.973L92.7069 329.725C91.9727 336.168 91.8291 338.571 91.8387 343.046H265.623C261.59 332.187 256.621 322.285 250.945 313.397Z" fill="#DFB5A7"/>
<path d="M194.25 132.263C194.315 131.961 194.367 131.654 194.39 131.335C197.364 119.685 196.795 108.675 191.054 98.598C194.647 85.6398 194.175 74.5929 187.757 66.2353C187.823 50.7614 185.899 33.6661 182.58 15.436C182.3 12.6941 178.416 12.4111 177.741 15.0833C172.556 29.0915 168.589 42.356 168.04 53.5279C162.091 61.0023 159.52 69.5432 161.477 79.5353C156.162 87.3009 153.416 96.1849 154.617 106.72C147.786 114.513 148.486 123.675 148.466 127.911C149.249 142.377 191.36 145.654 194.25 132.263V132.263Z" fill="#CCF3E2"/>
<path d="M194.25 132.263C194.315 131.961 194.367 131.654 194.39 131.335C196.502 123.062 196.815 115.114 194.77 107.59C194.534 109.815 194.127 112.068 193.547 114.351C193.529 114.623 193.486 114.886 193.43 115.144C190.99 126.577 153.988 123.466 153.194 111.086C153.191 110.387 153.164 109.529 153.164 108.554C147.893 115.905 148.483 124.002 148.465 127.91C149.249 142.377 191.36 145.654 194.25 132.263V132.263Z" fill="#B1B6E1"/>
<path d="M90.5467 115.232C101.325 112.621 110.655 106.137 117.344 97.2915C119.244 94.7793 121.552 92.4947 124.262 90.5363C137.203 81.1813 155.324 82.7775 166.419 94.2618C179.651 107.959 178.27 129.73 163.904 141.695C151.536 151.996 136.111 153.274 123.415 149.099C116.019 146.667 100.153 137.012 88.1951 129.376C82.4051 125.679 83.8721 116.85 90.5467 115.232V115.232Z" fill="#E8C2D8"/>
<path d="M166.418 94.2618C155.323 82.7775 137.203 81.1813 124.261 90.5363C121.552 92.4947 119.244 94.7793 117.343 97.2922C110.655 106.138 101.324 112.621 90.5459 115.233C83.8713 116.851 82.405 125.68 88.193 129.376C100.15 137.012 116.017 146.667 123.413 149.099C136.109 153.274 151.534 151.996 163.902 141.695C178.269 129.73 179.651 107.959 166.418 94.2618V94.2618ZM159.184 124.161C151.88 133.165 141.034 136.119 131.322 134.811C125.664 134.048 112.862 129.24 103.159 125.359C98.4619 123.479 98.1864 116.969 102.72 114.93C110.041 111.637 115.744 105.765 119.202 98.5534C120.184 96.5047 121.494 94.5653 123.138 92.8058C130.994 84.403 144.2 83.1493 153.864 89.8978C165.388 97.9457 167.668 113.703 159.184 124.161V124.161Z" fill="#D392D8"/>
<path d="M50.0792 266.528C41.1692 262.334 26.7119 264.87 23.8716 271.397C21.0312 277.925 28.9213 291.602 37.9502 295.53C46.9804 299.46 54.5615 268.637 50.0792 266.528V266.528Z" fill="#D789B9"/>
<path d="M153.511 202.907C157.446 203.231 159.767 209.581 158.09 215.492C153.984 229.972 145.096 239.893 135.661 239.116C126.225 238.339 119.082 227.096 117.401 212.139C116.715 206.033 120.044 200.149 123.979 200.473L153.511 202.907Z" fill="#D789B9"/>
<path d="M153.511 202.907L123.979 200.473C120.044 200.149 116.715 206.033 117.401 212.139C119.082 227.096 126.225 238.339 135.661 239.116C136.92 239.22 138.169 239.127 139.399 238.864C134.868 237.158 130.911 232.992 130.082 225.614C129.649 221.76 133.414 215.155 135.897 215.36L154.532 216.896C155.578 216.982 156.439 217.747 157.011 218.878C157.399 217.779 157.762 216.652 158.09 215.493C159.767 209.581 157.446 203.231 153.511 202.907Z" fill="#C668B9"/>
<path d="M257.388 270.396C266.298 266.203 280.755 268.738 283.596 275.266C286.436 281.793 278.546 295.47 269.517 299.4C260.487 303.328 252.906 272.505 257.388 270.396V270.396Z" fill="#D789B9"/>
<path d="M62.9133 6.87134L88.2239 22.739L70.5529 50.9261L45.2423 35.0584L62.9133 6.87134Z" fill="#9781DD"/>
<path d="M230.882 30.3037L258.285 18.4104L271.53 48.927L244.127 60.8203L230.882 30.3037Z" fill="#F6E06E"/>
<path d="M320.595 114.623L342.111 135.361L319.015 159.322L297.5 138.583L320.595 114.623Z" fill="#C1E5EF"/>
<path d="M326.758 60.1111C335.389 60.1111 342.386 53.1141 342.386 44.4828C342.386 35.8515 335.389 28.8545 326.758 28.8545C318.127 28.8545 311.13 35.8515 311.13 44.4828C311.13 53.1141 318.127 60.1111 326.758 60.1111Z" fill="#96B4EB"/>
<path d="M41.2567 125.615C43.2419 117.216 38.0431 108.799 29.6449 106.814C21.2467 104.828 12.8292 110.027 10.844 118.425C8.85883 126.824 14.0576 135.241 22.4559 137.226C30.8541 139.212 39.2715 134.013 41.2567 125.615Z" fill="#E8A284"/>
<path d="M4.85691 260.872C4.11248 260.872 3.35916 260.671 2.67966 260.249C0.741677 259.044 0.148317 256.497 1.35281 254.559C10.34 240.103 22.1088 239.132 22.6051 239.098C24.8835 238.934 26.8543 240.659 27.0101 242.935C27.166 245.195 25.4741 247.155 23.2217 247.336C22.793 247.38 14.9597 248.319 8.36922 258.921C7.5865 260.18 6.23709 260.872 4.85691 260.872V260.872Z" fill="#3C122C"/>
<path d="M136.735 243.291C136.265 243.291 135.794 243.272 135.322 243.233C125.663 242.438 117.894 233.653 114.541 219.735C112.931 213.059 114.556 205.416 118.581 200.715C121.075 197.804 124.257 196.35 127.536 196.62L150.632 198.523C153.914 198.794 156.813 200.749 158.797 204.028C161.998 209.324 162.35 217.13 159.669 223.453C154.356 235.989 145.862 243.291 136.735 243.291ZM126.775 204.851C126.002 204.851 125.181 205.71 124.856 206.09C122.876 208.402 121.454 213.167 122.571 217.799C125.013 227.928 130.158 234.518 136 234.999C141.828 235.478 147.998 229.821 152.062 220.229C153.922 215.842 153.301 210.909 151.725 208.304C151.458 207.861 150.749 206.824 149.952 206.758L126.857 204.855C126.83 204.852 126.802 204.851 126.775 204.851V204.851Z" fill="#3C122C"/>
<path d="M302.365 271.514C310.596 262.726 319.997 246.668 318.044 220.068C315.196 181.294 294.558 166.782 284.124 161.882C284.989 153.139 285.108 136.622 275.791 126.067C275.915 123.821 275.919 121.803 275.87 120.132C275.737 115.689 274.776 100.821 267.947 96.0825C261.12 91.3452 246.856 95.645 242.646 97.0757C240.777 97.7108 238.476 98.5885 235.971 99.7404C234.974 87.2135 231.413 74.0735 221.945 66.6955C214.823 61.1447 205.66 59.6613 194.608 62.2296C194.38 48.166 192.669 32.4673 189.385 14.3876C188.778 10.0351 185.226 6.68553 180.81 6.36287C176.429 6.04705 172.471 8.78416 171.196 12.9329C165.212 29.1375 162.118 41.0252 161.308 51.0152C156.624 57.5134 154.178 64.5504 153.971 72.0296C150.438 66.1158 146.13 61.4612 143.115 58.5839C139.927 55.5406 128.879 45.7194 120.753 47.1392C112.617 48.5563 105.549 61.5275 103.576 65.4691C100.353 71.9099 95.2813 84.6453 97.533 97.5734C98.1196 100.945 98.9925 104.101 100.138 107.027C96.8009 108.906 93.251 110.328 89.5746 111.219H89.5753C84.8531 112.363 81.4228 116.05 80.6237 120.842C80.1246 123.831 80.7344 126.746 82.2568 129.152C73.8151 141.361 66.5184 156.843 63.9412 162.539C42.9631 174.394 30.9544 195.279 32.4679 217.585C33.4837 232.545 39.1521 245.933 49.3096 257.499C38.9258 255.375 30.3324 255.263 23.9052 258.333C19.1214 260.619 15.6768 264.587 13.9432 269.809C11.8343 276.165 12.7537 282.536 16.6024 288.234C19.6293 292.714 24.5252 296.919 31.5697 301.087C43.6877 308.257 60.8945 314.677 80.8178 322.109L86.1088 324.085C85.214 331.531 84.7457 338.12 84.7567 343.062C84.7649 346.859 87.8452 349.931 91.6405 349.931H91.6562C95.4583 349.923 98.5338 346.835 98.5256 343.032C98.4969 329.531 102.37 302.608 108.901 280.925C109.878 277.681 108.35 274.208 105.297 272.738L103.586 271.914C103.046 271.653 102.476 271.465 101.888 271.354C92.3453 269.533 74.0215 262.262 64.4382 253.348C53.2881 242.977 47.1542 230.631 46.2061 216.653C45.0166 199.134 55.0771 182.629 72.4609 173.58C73.8643 172.85 74.9731 171.657 75.6013 170.205C75.6874 170.007 83.8673 151.194 93.2619 137.45C107.064 146.022 116.764 151.261 122.125 153.024C127.091 154.657 132.166 155.457 137.173 155.457C147.839 155.457 158.199 151.823 166.548 144.87C166.771 144.685 166.981 144.488 167.199 144.298C168.351 144.462 169.498 144.594 170.624 144.684C172.044 144.797 173.506 144.857 174.982 144.857C185.256 144.857 196.169 141.927 198.222 133.401C198.233 133.36 198.243 133.318 198.253 133.277C198.264 133.229 198.278 133.184 198.289 133.135C198.293 133.114 198.295 133.093 198.299 133.072C198.314 132.996 198.326 132.921 198.336 132.845C198.388 132.575 198.442 132.304 198.471 132.049C199.445 128.156 200.022 124.378 200.203 120.721L201.387 121.056C206.683 122.551 211.751 124.733 216.45 127.537C219.665 129.459 223.826 128.453 225.814 125.279C226.197 124.667 226.527 124.162 226.854 123.693C234.809 112.23 253.927 107.175 259.92 107.65C262.472 113.094 264.415 132.776 256.46 144.24C253.599 148.362 250.359 151.475 246.828 153.491C243.985 155.114 242.679 158.514 243.703 161.623C247.587 173.411 247.854 185.982 244.478 197.98L232.903 236.25C232.891 236.29 232.88 236.331 232.868 236.372C228.241 252.754 223.18 264.389 216.124 274.813C213.646 275.738 211.13 276.682 208.567 277.644L202.995 279.733C199.434 281.066 197.628 285.032 198.961 288.594C200.292 292.154 204.26 293.962 207.821 292.629L213.406 290.534C226.332 285.682 239.464 280.756 250.686 277.458L258.936 298.274C248.775 303.025 236.023 307.786 221.84 313.077L216.254 315.163C212.693 316.496 210.887 320.462 212.22 324.024C213.255 326.79 215.879 328.497 218.668 328.497C219.47 328.497 220.285 328.356 221.08 328.059L226.652 325.978C233.438 323.446 239.897 321.034 245.958 318.668C251.023 326.852 255.395 335.813 258.972 345.444C260.002 348.218 262.63 349.934 265.426 349.934C265.604 349.934 265.783 349.924 265.962 349.91C266.315 349.966 266.672 350.001 267.032 350.001C268.011 350.001 269.007 349.791 269.952 349.348C271.093 348.812 297.955 335.947 301.413 311.506C303.211 298.795 299.095 289.027 294.512 282.426C294.654 281.1 294.668 279.761 294.539 278.413C297.032 276.608 299.714 274.343 302.365 271.514V271.514ZM93.1273 286.314C91.1312 294.154 89.4502 302.325 88.1316 310.142L85.6296 309.208C66.3215 302.005 49.6452 295.783 38.5806 289.236C24.7242 281.038 26.3265 276.207 27.0115 274.146C27.5741 272.449 28.4197 271.435 29.8395 270.758C39.3401 266.22 66.5717 276.347 93.1273 286.314V286.314ZM174.866 54.3641C174.882 54.2288 174.899 54.0934 174.907 53.9574C174.909 53.9266 174.914 53.8965 174.917 53.8651C175.215 47.7791 176.712 40.885 178.602 34.2603C179.767 42.9857 180.476 51.0589 180.747 58.6024L174.856 54.468C174.86 54.4332 174.862 54.3983 174.866 54.3641V54.3641ZM170.781 61.7018L181.584 69.2849C181.597 69.3109 181.614 69.3362 181.627 69.3622C181.681 69.4695 181.74 69.5741 181.8 69.678C181.853 69.7682 181.905 69.8585 181.962 69.9466C182.031 70.0533 182.103 70.1558 182.178 70.2584C182.218 70.3144 182.253 70.3732 182.295 70.4286C185.773 74.9574 186.235 80.7761 183.744 90.0245L168.349 79.2907C168.336 78.9338 168.303 78.5736 168.232 78.212C167.048 72.1622 167.862 66.8199 170.781 61.7018V61.7018ZM123.17 61.0182C127.517 62.6506 137.521 70.553 142.872 80.3393C135.511 80.3926 128.134 82.6389 121.842 87.1882C118.861 89.3429 116.239 91.9037 114.049 94.7994C113.28 95.8165 112.472 96.7961 111.633 97.7381C111.433 96.9171 111.249 96.0797 111.098 95.2102C108.743 81.6894 118.616 64.8853 123.17 61.0182V61.0182ZM171.389 118.335C170.965 126.155 167.274 133.513 161.26 138.521C151.195 146.904 137.529 149.391 124.704 145.175C119.258 143.384 107.08 136.537 90.4168 125.895C88.5199 124.683 88.6778 122.761 88.7714 122.201C88.8644 121.641 89.3381 119.776 91.5195 119.247C102.89 116.492 113.232 109.579 120.639 99.7834C122.333 97.5426 124.366 95.5582 126.681 93.884C131.607 90.3239 137.391 88.5828 143.152 88.5828C150.593 88.5828 157.996 91.4894 163.447 97.1325C168.998 102.878 171.818 110.408 171.389 118.335V118.335ZM173.863 136.579C175.792 133.58 177.272 130.306 178.26 126.872L188.574 133.519C185.994 135.393 180.638 136.749 173.863 136.579ZM191.393 125.508L179.662 117.947C179.98 108.008 176.358 98.6056 169.388 91.3916C167.463 89.3983 165.348 87.6715 163.097 86.2107C163.274 86.1663 163.454 86.1259 163.626 86.0692L188.116 103.143C188.383 103.329 188.667 103.467 188.957 103.582C191.928 110.147 192.731 117.381 191.393 125.508V125.508ZM217.969 112.713C213.856 110.699 209.557 109.056 205.129 107.804L198.596 105.959C197.845 103.322 196.842 100.771 195.586 98.3103C195.708 98.0471 195.819 97.7764 195.908 97.492C197.991 90.8817 199.821 83.088 198.757 75.3983C205.039 74.1159 209.972 74.8234 213.475 77.5502C220.509 83.0251 222.422 96.2568 222.419 108.283C220.86 109.629 219.36 111.1 217.969 112.713V112.713ZM246.1 240.176L257.676 201.902C257.688 201.862 257.7 201.821 257.711 201.78C261.375 188.809 261.546 175.282 258.25 162.351C261.743 159.615 264.932 156.18 267.772 152.089C268.744 150.688 269.602 149.238 270.361 147.76C271.247 154.504 270.502 161.492 269.804 164.961C269.059 168.594 271.264 172.149 274.869 173.02C275.948 173.303 301.325 180.404 304.312 221.075C306.134 245.882 296.517 259.083 288.573 265.668C287.126 264.269 285.451 263.102 283.564 262.2C273.016 257.162 256.639 260.684 236.064 267.64C239.858 259.729 243.081 250.854 246.1 240.176V240.176ZM258.722 275.315C267.097 273.354 273.804 272.798 277.629 274.625C279.048 275.303 279.894 276.317 280.457 278.013C281.142 280.075 282.745 284.905 268.888 293.104C268.073 293.586 267.219 294.066 266.344 294.545L258.722 275.315ZM287.779 309.575C286.124 321.267 275.663 329.737 269.206 333.927C266.174 326.702 262.711 319.844 258.858 313.395C265.261 310.626 271.002 307.851 275.899 304.953C280.295 302.353 283.854 299.737 286.644 297.05C287.852 300.575 288.46 304.76 287.779 309.575Z" fill="#3C122C"/>
<path d="M113.565 181.259C113.334 181.259 113.099 181.239 112.864 181.199C110.616 180.815 109.104 178.681 109.488 176.432C109.685 175.283 109.422 174.127 108.748 173.175C108.074 172.224 107.071 171.592 105.921 171.396C104.772 171.2 103.616 171.462 102.663 172.136C101.712 172.809 101.08 173.814 100.884 174.963C100.5 177.212 98.3698 178.725 96.1174 178.339C93.8684 177.955 92.3562 175.821 92.7411 173.572C93.9128 166.71 100.447 162.08 107.313 163.253C110.637 163.82 113.542 165.649 115.491 168.402C117.44 171.153 118.201 174.499 117.632 177.824C117.288 179.836 115.54 181.259 113.565 181.259V181.259Z" fill="#3C122C"/>
<path d="M198.509 195.769C198.278 195.769 198.044 195.749 197.809 195.709C195.56 195.325 194.047 193.191 194.432 190.942C194.629 189.793 194.366 188.636 193.692 187.684C193.018 186.734 192.014 186.102 190.865 185.906C189.717 185.711 188.559 185.972 187.607 186.646C186.656 187.319 186.024 188.324 185.828 189.473C185.444 191.721 183.313 193.238 181.061 192.849C178.812 192.465 177.3 190.331 177.685 188.082C178.252 184.758 180.081 181.853 182.834 179.904C185.587 177.955 188.932 177.194 192.257 177.763C195.581 178.33 198.485 180.158 200.434 182.911C202.383 185.662 203.144 189.009 202.576 192.334C202.232 194.346 200.484 195.769 198.509 195.769V195.769Z" fill="#3C122C"/>
<path d="M70.5632 57.8387C69.2794 57.8387 68.0113 57.4799 66.906 56.7874L41.5884 40.913C38.3673 38.8929 37.3932 34.6444 39.4125 31.4226L57.0902 3.22781C59.1089 0.00739611 63.3581 -0.968092 66.5799 1.05193L91.8982 16.9257C93.4451 17.8957 94.5437 19.4399 94.9518 21.2207C95.3599 23.0001 95.0441 24.8697 94.074 26.4167L76.3963 54.6122C75.4263 56.1592 73.8814 57.257 72.1013 57.6651C71.5934 57.7813 71.0773 57.8387 70.5632 57.8387V57.8387ZM54.7353 32.9047L68.3873 41.4646L78.7513 24.9346L65.0985 16.3754L54.7353 32.9047Z" fill="#3C122C"/>
<path d="M244.221 67.7399C243.363 67.7399 242.505 67.5799 241.692 67.2586C239.994 66.588 238.631 65.27 237.905 63.5952L224.662 33.0653C223.149 29.5776 224.751 25.5225 228.238 24.0097L255.653 12.1179C257.329 11.3899 259.224 11.3591 260.922 12.0304C262.62 12.7003 263.983 14.019 264.709 15.6938L277.951 46.2238C279.465 49.7114 277.863 53.7665 274.375 55.2793L246.961 67.1711C246.087 67.5498 245.155 67.7399 244.221 67.7399ZM240.034 33.9006L247.797 51.7991L262.58 45.3863L254.816 27.4885L240.034 33.9006Z" fill="#3C122C"/>
<path d="M319.11 166.163C317.33 166.163 315.618 165.474 314.333 164.237L292.812 143.504C290.074 140.866 289.993 136.508 292.63 133.77L315.718 109.803C316.985 108.488 318.722 107.729 320.549 107.696C322.376 107.677 324.138 108.354 325.453 109.621L346.974 130.354C349.713 132.992 349.794 137.35 347.157 140.088L324.068 164.055C322.802 165.37 321.064 166.128 319.238 166.162C319.194 166.162 319.151 166.163 319.11 166.163ZM307.323 138.365L318.928 149.544L332.463 135.493L320.858 124.313L307.323 138.365Z" fill="#3C122C"/>
<path d="M326.758 66.9956C314.344 66.9956 304.245 56.8969 304.245 44.4828C304.245 32.0688 314.344 21.9694 326.758 21.9694C339.172 21.9694 349.271 32.0688 349.271 44.4828C349.271 56.8962 339.172 66.9956 326.758 66.9956ZM326.758 35.7383C321.936 35.7383 318.014 39.6608 318.014 44.4828C318.014 49.3042 321.936 53.226 326.758 53.226C331.579 53.226 335.502 49.3035 335.502 44.4828C335.502 39.6608 331.579 35.7383 326.758 35.7383V35.7383Z" fill="#3C122C"/>
<path d="M26.0751 144.496C13.6611 144.496 3.56165 134.397 3.56165 121.983C3.56165 109.569 13.6611 99.4705 26.0751 99.4705C38.4892 99.4705 48.5879 109.569 48.5879 121.983C48.5879 134.397 38.4892 144.496 26.0751 144.496ZM26.0751 113.24C21.2531 113.24 17.3306 117.163 17.3306 121.984C17.3306 126.805 21.2531 130.728 26.0751 130.728C30.8965 130.728 34.819 126.805 34.819 121.984C34.819 117.163 30.8965 113.24 26.0751 113.24V113.24Z" fill="#3C122C"/>
<path d="M129.289 116.188C127.622 116.188 125.951 115.586 124.628 114.369C121.831 111.793 121.65 107.438 124.225 104.641C133.707 94.3413 144.466 94.165 145.661 94.2019C145.661 94.2019 152.923 93.9483 152.823 100.581C152.722 107.213 145.598 107.97 145.598 107.97C145.359 107.976 139.683 108.179 134.355 113.967C132.998 115.44 131.147 116.188 129.289 116.188Z" fill="white"/>
</g>
<defs>
<clipPath id="clip0">
<rect width="350" height="350" fill="white"/>
</clipPath>
</defs>
</svg>
