<svg width="150" height="150" viewBox="0 0 150 150" fill="none" xmlns="http://www.w3.org/2000/svg">
<g clip-path="url(#clip0)">
<path d="M91.22 132.794C94.2278 124.53 89.9668 115.392 81.7028 112.385C73.4387 109.377 64.301 113.638 61.2932 121.902C58.7011 129.024 61.4351 137.405 56.1092 143.301C54.2555 145.353 55.217 148.657 57.9182 149.251C73.8621 152.752 87.3484 143.432 91.22 132.794Z" fill="url(#paint0_linear)"/>
<path d="M134.818 103.456C124.418 99.2812 109.082 98.0196 104.145 99.0502C100.003 99.9149 97.3449 103.974 98.2096 108.117C99.0666 112.222 103.06 114.87 107.165 114.075C109.911 113.73 121.172 114.659 128.439 117.407C133.199 114.828 135.605 107.67 134.818 103.456Z" fill="url(#paint1_linear)"/>
<path d="M101.373 145.678C95.2389 134.652 93.1897 131.193 86.8829 124.886C83.8903 121.894 83.8903 117.042 86.8829 114.049C89.8754 111.057 94.7274 111.057 97.7199 114.049C105.43 121.759 108.12 126.282 114.766 138.227C116.823 141.925 115.493 146.592 111.795 148.649C108.096 150.707 103.43 149.376 101.373 145.678Z" fill="url(#paint2_linear)"/>
<path d="M101.373 145.678C95.2389 134.652 93.1897 131.193 86.8829 124.886C83.8903 121.894 83.8903 117.042 86.8829 114.049C89.8754 111.057 94.7274 111.057 97.7199 114.049C105.43 121.759 108.12 126.282 114.766 138.227C116.823 141.925 115.493 146.592 111.795 148.649C108.096 150.707 103.43 149.376 101.373 145.678Z" fill="url(#paint3_linear)"/>
<path d="M113.745 136.396C107.824 125.799 105.022 121.351 97.7202 114.049C94.7277 111.057 89.8757 111.057 86.8831 114.049C83.8906 117.042 83.8906 121.893 86.8831 124.886C92.8425 130.845 95.0023 134.266 100.397 143.926C105.171 143.926 111.126 139.809 113.745 136.396Z" fill="url(#paint4_linear)"/>
<path d="M114.766 138.227C114.414 137.595 114.076 136.988 113.745 136.396C108.957 136.508 102.511 140.803 100.397 143.926C100.711 144.49 101.035 145.07 101.373 145.678C103.429 149.375 108.095 150.706 111.795 148.649C115.493 146.591 116.823 141.925 114.766 138.227Z" fill="url(#paint5_linear)"/>
<path d="M114.329 58.3506C107.081 61.8355 101.349 66.6397 94.3398 74.9083C91.6034 78.1365 92.0017 82.9721 95.23 85.7086C98.4735 88.4582 103.307 88.0309 106.031 84.8184C111.574 78.2791 115.631 74.7702 120.83 72.2328C120.974 66.5701 118.011 60.7225 114.329 58.3506Z" fill="url(#paint6_linear)"/>
<path d="M84.1581 71.8536C110.967 71.4601 122.584 86.6343 122.788 94.3709C122.992 102.108 118.616 110.077 109.384 119.31C100.152 128.542 92.1822 132.918 84.4452 132.714C76.7083 132.51 61.5341 120.893 61.9279 94.0841L84.1581 71.8536Z" fill="url(#paint7_linear)"/>
<path d="M103.703 94.3849C99.3756 90.2214 90.2471 84.5752 86.4397 82.9455C84.695 82.1988 83.8861 80.1792 84.6329 78.4344C85.3793 76.69 87.3986 75.88 89.1442 76.6276C93.4575 78.4736 103.364 84.5223 108.468 89.4325C109.836 90.7485 109.878 92.9238 108.562 94.2914C107.247 95.6573 105.072 95.7018 103.703 94.3849Z" fill="#04A3DB"/>
<path d="M75.3266 123.872C74.7454 118.33 75.7745 112.687 78.404 107.073C80.1992 103.24 78.5474 98.6782 74.7146 96.8832C70.8822 95.088 66.3197 96.7398 64.5251 100.573C60.7231 108.691 59.2315 116.976 60.0624 125.241C64.8236 127.862 71.6319 127.474 75.3266 123.872Z" fill="url(#paint8_linear)"/>
<path d="M75.5253 125.416C75.4434 124.902 75.3804 124.387 75.3263 123.872C69.7832 122.17 63.4052 123.657 60.0621 125.241C60.1491 126.105 60.2531 126.969 60.3908 127.833C61.0598 132.021 64.9963 134.858 69.1664 134.191C73.3461 133.524 76.1928 129.595 75.5253 125.416Z" fill="url(#paint9_linear)"/>
<path d="M109.81 60.4835C120.142 39.5181 114.273 21.9738 99.4593 10.3264C79.0225 -5.74274 46.2093 -2.99463 25.0864 18.1282C8.85716 34.3572 3.47718 57.4867 9.14252 76.6025C16.0987 71.0477 75.9329 46.0733 109.81 60.4835Z" fill="url(#paint10_linear)"/>
<path d="M61.1094 88.5078C61.1094 88.5078 60.502 79.462 45.3442 64.2087C37.1369 55.9494 23.4418 55.7128 15.2065 63.9442C11.6608 67.488 9.64241 71.9788 9.14222 76.6028C10.8505 82.3667 13.5615 87.7664 17.2843 92.5013C28.2334 106.426 42.9066 113.933 62.3187 105.925C63.3932 99.7449 62.1299 92.2488 61.1094 88.5078Z" fill="url(#paint11_linear)"/>
<path d="M34.6374 72.5913C46.3067 72.5913 55.7665 63.1315 55.7665 51.4622C55.7665 39.793 46.3067 30.3332 34.6374 30.3332C22.9682 30.3332 13.5083 39.793 13.5083 51.4622C13.5083 63.1315 22.9682 72.5913 34.6374 72.5913Z" fill="url(#paint12_linear)"/>
<path d="M50.8882 20.8826C44.9214 23.665 44.1789 37.5442 50.025 47.2389C53.4248 52.8768 58.9855 53.8258 64.9524 51.0433C70.9192 48.2608 73.7668 43.3915 71.6334 37.1629C67.9646 26.4526 56.8554 18.1001 50.8882 20.8826Z" fill="url(#paint13_linear)"/>
<path d="M106.008 35.3396C92.2521 20.065 58.5167 27.5829 41.4099 44.6898C24.303 61.7967 26.0041 80.9955 38.8945 93.8862C48.2181 103.21 55.2747 106.849 62.3184 105.927C71.0973 102.305 80.8452 95.5111 91.6572 84.6992C100.105 76.2511 106.037 68.1394 109.81 60.4837C114.108 50.4215 112.358 42.3908 106.008 35.3396Z" fill="url(#paint14_linear)"/>
<path d="M60.0481 77.1349C61.4489 78.5357 61.1713 81.084 59.4284 82.8269C57.6855 84.5698 55.1369 84.8474 53.7364 83.4466C52.3356 82.0458 52.6132 79.4976 54.3562 77.7547C56.0991 76.0117 58.6473 75.7341 60.0481 77.1349Z" fill="#EAADCD"/>
<path d="M96.5508 45.6925C98.2934 43.9499 98.5708 41.4019 97.1704 40.0015C95.77 38.6011 93.222 38.8785 91.4794 40.6211C89.7368 42.3637 89.4594 44.9117 90.8598 46.3121C92.2602 47.7125 94.8082 47.4351 96.5508 45.6925Z" fill="#EAADCD"/>
<path d="M56.0447 77.4726C60.9324 77.4726 64.8947 73.5103 64.8947 68.6226C64.8947 63.7349 60.9324 59.7726 56.0447 59.7726C51.157 59.7726 47.1947 63.7349 47.1947 68.6226C47.1947 73.5103 51.157 77.4726 56.0447 77.4726Z" fill="white"/>
<path d="M82.3623 51.1551C87.25 51.1551 91.2123 47.1928 91.2123 42.3051C91.2123 37.4174 87.25 33.4551 82.3623 33.4551C77.4745 33.4551 73.5123 37.4174 73.5123 42.3051C73.5123 47.1928 77.4745 51.1551 82.3623 51.1551Z" fill="white"/>
<path d="M60.6825 71.1055C62.072 68.545 61.1227 65.3428 58.5622 63.9533C56.0016 62.5638 52.7995 63.5131 51.4099 66.0736C50.0204 68.6342 50.9697 71.8364 53.5303 73.2259C56.0908 74.6154 59.293 73.6661 60.6825 71.1055Z" fill="#3B3B44"/>
<path d="M86.0919 38.5754C88.1519 40.6353 88.1519 43.9748 86.0919 46.0348C84.032 48.0947 80.6925 48.0947 78.6326 46.0348C76.5726 43.9748 76.5726 40.6353 78.6326 38.5754C80.6922 36.5157 84.032 36.5157 86.0919 38.5754Z" fill="#3B3B44"/>
<path d="M90.4165 65.0555C89.6172 65.0555 88.9548 64.4232 88.9246 63.6179C88.8935 62.7932 89.5366 62.0997 90.3613 62.0683C92.2733 61.996 93.6598 60.6098 93.7321 58.6975C93.7631 57.8731 94.4456 57.2259 95.2817 57.2608C96.1061 57.2922 96.7491 57.9857 96.718 58.8104C96.5863 62.2966 93.9601 64.9228 90.4742 65.0543C90.4548 65.0552 90.4354 65.0555 90.4165 65.0555Z" fill="#3B3B44"/>
<path d="M40.9389 50.8267C43.6025 54.0881 50.0139 53.6815 55.5206 49.8257C61.191 45.8552 63.7536 39.7318 61.2448 36.1485C59.7188 33.969 57.3478 31.3805 54.5997 28.834C47.0373 33.9813 42.9514 39.8809 40.9389 50.8267Z" fill="url(#paint15_linear)"/>
<path d="M48.1843 44.5506C47.6023 44.7481 47.1027 44.8488 46.7259 44.8853C46.5645 44.6232 46.4005 44.3429 46.2355 44.054C44.0671 45.8692 42.5145 47.5043 40.9392 50.8264C42.8746 53.1965 46.7883 53.6304 50.8969 52.2105C53.4364 51.3329 54.4258 48.2621 52.8845 46.0611L52.869 46.0389C51.8217 44.5434 49.9135 43.9643 48.1843 44.5506Z" fill="#FCB500"/>
<path d="M44.1161 20.7738C39.1784 25.0781 35.3136 30.2456 34.7644 38.3504C36.5056 43.128 38.6919 47.6441 40.7106 50.5273C40.7829 50.6307 40.8597 50.7302 40.9389 50.827C45.9337 45.0604 50.9892 37.7133 54.5994 28.8347C51.3741 25.8457 47.6292 22.9162 44.1161 20.7738Z" fill="url(#paint16_linear)"/>
<path d="M38.1266 36.1796C36.0869 37.0598 35.1293 39.4168 35.9812 41.4687C37.4665 45.0466 39.1389 48.2824 40.7106 50.527C40.783 50.6304 40.8601 50.7296 40.9392 50.8264C42.7201 48.7703 44.5073 46.5095 46.2355 44.054C45.3272 42.4625 44.3776 40.488 43.4937 38.3608C42.6224 36.265 40.2107 35.2802 38.1266 36.1796Z" fill="#E05D6F"/>
<path d="M44.1161 20.7738C39.5462 17.9868 35.3704 16.5317 33.248 18.0176C29.9429 20.3319 31.6347 29.7633 34.7644 38.3501C38.406 33.4643 41.8114 27.5895 44.1161 20.7738Z" fill="url(#paint17_linear)"/>
<path d="M11.6752 60.5184C14.4577 54.5516 28.3368 53.8091 38.0316 59.6552C43.6694 63.055 44.6181 68.6157 41.8359 74.5826C39.0535 80.5494 34.1842 83.397 27.9556 81.2635C17.2452 77.5948 8.89272 66.4856 11.6752 60.5184Z" fill="url(#paint18_linear)"/>
<path d="M130.202 32.3363L126.107 33.5139C123.761 34.1883 121.406 32.4777 121.323 30.0382L121.177 25.7791C121.153 25.0751 120.931 24.3917 120.537 23.8082L118.151 20.2769C116.785 18.2543 117.684 15.4861 119.978 14.6531L123.984 13.1985C124.646 12.958 125.228 12.5357 125.661 11.9803L128.282 8.62021C129.783 6.69561 132.694 6.69561 134.195 8.62021L136.816 11.9803C137.249 12.5357 137.831 12.958 138.493 13.1985L142.499 14.6531C144.793 15.4861 145.692 18.2543 144.326 20.2769L141.94 23.8082C141.546 24.392 141.324 25.0751 141.3 25.7791L141.154 30.0382C141.071 32.4777 138.716 34.1883 136.37 33.5139L132.275 32.3363C131.598 32.1415 130.879 32.1415 130.202 32.3363Z" fill="url(#paint19_linear)"/>
<path d="M17.7251 136.706L13.6294 137.883C11.2838 138.558 8.92887 136.847 8.84551 134.407L8.69999 130.148C8.67579 129.444 8.45407 128.761 8.05965 128.177L5.67399 124.646C4.30756 122.623 5.20696 119.855 7.50119 119.022L11.507 117.567C12.1691 117.327 12.7503 116.905 13.1836 116.349L15.8047 112.989C17.3059 111.065 20.2165 111.065 21.7177 112.989L24.3388 116.349C24.7721 116.905 25.3533 117.327 26.0154 117.567L30.0212 119.022C32.3154 119.855 33.2148 122.623 31.8484 124.646L29.4627 128.177C29.0683 128.761 28.8463 129.444 28.8224 130.148L28.6769 134.407C28.5935 136.847 26.2386 138.558 23.893 137.883L19.7973 136.706C19.1205 136.511 18.4022 136.511 17.7251 136.706Z" fill="url(#paint20_linear)"/>
<path d="M118.092 56.7069C116.786 57.2244 115.537 57.7697 114.329 58.3506C114.87 62.4863 118.215 69.5154 120.83 72.2327C121.758 71.7795 122.723 71.3567 123.739 70.9539C127.674 69.3944 129.599 64.9407 128.039 61.0064C126.48 57.072 122.025 55.1477 118.092 56.7069Z" fill="url(#paint21_linear)"/>
<path d="M137.606 104.709C136.729 104.265 135.795 103.848 134.817 103.456C130.961 106.145 128.407 114.099 128.439 117.407C129.24 117.71 129.995 118.034 130.683 118.383C134.476 120.303 139.079 118.765 140.981 115.008C142.893 111.232 141.382 106.621 137.606 104.709Z" fill="url(#paint22_linear)"/>
<path d="M88.5266 125.936C87.2504 125.936 86.0689 125.113 85.6727 123.829C85.1853 122.253 86.0683 120.58 87.6451 120.092C88.0882 119.955 88.5523 119.784 89.0238 119.583C90.5411 118.935 92.2969 119.641 92.9444 121.159C93.5919 122.677 92.8861 124.432 91.3682 125.08C90.7078 125.361 90.049 125.605 89.4098 125.802C89.1158 125.893 88.8185 125.936 88.5266 125.936Z" fill="#BDEBFF"/>
<path d="M100.153 118.406C99.3418 118.406 98.5333 118.077 97.9437 117.43C96.8322 116.21 96.92 114.32 98.14 113.209C98.9952 112.429 99.8797 111.584 100.769 110.695C101.221 110.242 101.662 109.792 102.079 109.355C103.219 108.162 105.111 108.12 106.304 109.26C107.497 110.401 107.54 112.292 106.399 113.485C105.951 113.954 105.478 114.437 104.995 114.921C104.041 115.875 103.088 116.785 102.165 117.627C101.592 118.148 100.871 118.406 100.153 118.406Z" fill="#BDEBFF"/>
</g>
<defs>
<linearGradient id="paint0_linear" x1="73.6679" y1="125.3" x2="73.6679" y2="147.745" gradientUnits="userSpaceOnUse">
<stop stop-color="#74D2E8"/>
<stop offset="1" stop-color="#BAEAF5"/>
</linearGradient>
<linearGradient id="paint1_linear" x1="110.364" y1="108.058" x2="131.328" y2="108.058" gradientUnits="userSpaceOnUse">
<stop stop-color="#CDD4D4"/>
<stop offset="1" stop-color="#F3F3F3"/>
</linearGradient>
<linearGradient id="paint2_linear" x1="100.186" y1="120.887" x2="100.186" y2="140.578" gradientUnits="userSpaceOnUse">
<stop stop-color="#CDD4D4"/>
<stop offset="1" stop-color="#F3F3F3"/>
</linearGradient>
<linearGradient id="paint3_linear" x1="100.186" y1="120.887" x2="100.186" y2="140.578" gradientUnits="userSpaceOnUse">
<stop stop-color="#CDD4D4"/>
<stop offset="1" stop-color="#F3F3F3"/>
</linearGradient>
<linearGradient id="paint4_linear" x1="99.1918" y1="120.914" x2="99.1918" y2="137.642" gradientUnits="userSpaceOnUse">
<stop stop-color="#CDD4D4"/>
<stop offset="1" stop-color="#F3F3F3"/>
</linearGradient>
<linearGradient id="paint5_linear" x1="95.6104" y1="143.006" x2="111.825" y2="143.006" gradientUnits="userSpaceOnUse">
<stop stop-color="#53AAE6"/>
<stop offset="1" stop-color="#A4D2F0"/>
</linearGradient>
<linearGradient id="paint6_linear" x1="106.679" y1="77.3068" x2="106.679" y2="61.3058" gradientUnits="userSpaceOnUse">
<stop stop-color="#CDD4D4"/>
<stop offset="1" stop-color="#F3F3F3"/>
</linearGradient>
<linearGradient id="paint7_linear" x1="63.2531" y1="102.283" x2="126.749" y2="102.283" gradientUnits="userSpaceOnUse">
<stop stop-color="#53AAE6"/>
<stop offset="1" stop-color="#A4D2F0"/>
</linearGradient>
<linearGradient id="paint8_linear" x1="69.4844" y1="97.7907" x2="69.4844" y2="125.159" gradientUnits="userSpaceOnUse">
<stop stop-color="#D9E0E0"/>
<stop offset="1" stop-color="#F3F3F3"/>
</linearGradient>
<linearGradient id="paint9_linear" x1="67.8424" y1="134.86" x2="67.8424" y2="122.943" gradientUnits="userSpaceOnUse">
<stop stop-color="#53AAE6"/>
<stop offset="1" stop-color="#A4D2F0"/>
</linearGradient>
<linearGradient id="paint10_linear" x1="60.9878" y1="77.1938" x2="60.9878" y2="6.67589" gradientUnits="userSpaceOnUse">
<stop stop-color="#74D2E8"/>
<stop offset="1" stop-color="#BAEAF5"/>
</linearGradient>
<linearGradient id="paint11_linear" x1="43.8756" y1="83.5464" x2="24.4658" y2="83.5464" gradientUnits="userSpaceOnUse">
<stop stop-color="#B39BDB"/>
<stop offset="1" stop-color="#D0C3E8"/>
</linearGradient>
<linearGradient id="paint12_linear" x1="34.6374" y1="62.6632" x2="34.6374" y2="39.6971" gradientUnits="userSpaceOnUse">
<stop stop-color="#B39BDB"/>
<stop offset="1" stop-color="#D0C3E8"/>
</linearGradient>
<linearGradient id="paint13_linear" x1="59.1723" y1="34.4597" x2="59.1723" y2="20.9608" gradientUnits="userSpaceOnUse">
<stop stop-color="#CDD4D4"/>
<stop offset="1" stop-color="#F3F3F3"/>
</linearGradient>
<linearGradient id="paint14_linear" x1="17.6095" y1="66.5704" x2="88.0894" y2="66.5704" gradientUnits="userSpaceOnUse">
<stop stop-color="#D9E0E0"/>
<stop offset="0.7622" stop-color="#F3F3F3"/>
</linearGradient>
<linearGradient id="paint15_linear" x1="51.5734" y1="53.6244" x2="51.5734" y2="35.7517" gradientUnits="userSpaceOnUse">
<stop stop-color="#F4D952"/>
<stop offset="1" stop-color="#F9EDAF"/>
</linearGradient>
<linearGradient id="paint16_linear" x1="44.0698" y1="51.6571" x2="44.8407" y2="28.9129" gradientUnits="userSpaceOnUse">
<stop stop-color="#EC6F80"/>
<stop offset="1" stop-color="#ECA0AA"/>
</linearGradient>
<linearGradient id="paint17_linear" x1="37.783" y1="41.8025" x2="37.783" y2="19.9204" gradientUnits="userSpaceOnUse">
<stop stop-color="#7ED99E"/>
<stop offset="0.2532" stop-color="#81DAA3"/>
<stop offset="0.5725" stop-color="#88DDB3"/>
<stop offset="0.9261" stop-color="#95E2CD"/>
<stop offset="1" stop-color="#98E3D3"/>
</linearGradient>
<linearGradient id="paint18_linear" x1="27.2402" y1="90.4838" x2="27.2402" y2="61.728" gradientUnits="userSpaceOnUse">
<stop stop-color="#CDD4D4"/>
<stop offset="1" stop-color="#F3F3F3"/>
</linearGradient>
<linearGradient id="paint19_linear" x1="131.239" y1="35.2428" x2="131.239" y2="7.19252" gradientUnits="userSpaceOnUse">
<stop stop-color="#F4D952"/>
<stop offset="1" stop-color="#F9EDAF"/>
</linearGradient>
<linearGradient id="paint20_linear" x1="18.7613" y1="139.612" x2="18.7613" y2="111.562" gradientUnits="userSpaceOnUse">
<stop stop-color="#E08243"/>
<stop offset="1" stop-color="#F0BB78"/>
</linearGradient>
<linearGradient id="paint21_linear" x1="121.455" y1="73.9306" x2="121.455" y2="61.6315" gradientUnits="userSpaceOnUse">
<stop stop-color="#53AAE6"/>
<stop offset="1" stop-color="#A4D2F0"/>
</linearGradient>
<linearGradient id="paint22_linear" x1="135.124" y1="121.729" x2="135.124" y2="109.009" gradientUnits="userSpaceOnUse">
<stop stop-color="#53AAE6"/>
<stop offset="1" stop-color="#A4D2F0"/>
</linearGradient>
<clipPath id="clip0">
<rect width="150" height="150" fill="white"/>
</clipPath>
</defs>
</svg>
