<svg width="570" height="422" viewBox="0 0 570 422" fill="none" xmlns="http://www.w3.org/2000/svg">
<path d="M474.39 15H83.3016C72.3131 15 62.234 16.3695 54.3596 18.6495C47.8876 21.4235 44 24.9741 44 28.8448V104H520V31.0675C520 22.1935 499.58 15 474.39 15Z" fill="#0055A6"/>
<path d="M44 253V104H520V253H44Z" fill="white"/>
<path d="M103.57 413.484C124.766 413.484 141.949 396.301 141.949 375.105C141.949 353.908 124.766 336.725 103.57 336.725C82.3734 336.725 65.1904 353.908 65.1904 375.105C65.1904 396.301 82.3734 413.484 103.57 413.484Z" fill="#5A5A5A"/>
<path d="M180.328 413.484C201.525 413.484 218.707 396.301 218.707 375.105C218.707 353.908 201.525 336.725 180.328 336.725C159.132 336.725 141.949 353.908 141.949 375.105C141.949 396.301 159.132 413.484 180.328 413.484Z" fill="#5A5A5A"/>
<path d="M389.672 413.484C410.868 413.484 428.051 396.301 428.051 375.105C428.051 353.908 410.868 336.725 389.672 336.725C368.476 336.725 351.293 353.908 351.293 375.105C351.293 396.301 368.476 413.484 389.672 413.484Z" fill="#5A5A5A"/>
<path d="M466.43 413.484C487.627 413.484 504.81 396.301 504.81 375.105C504.81 353.908 487.627 336.725 466.43 336.725C445.234 336.725 428.051 353.908 428.051 375.105C428.051 396.301 445.234 413.484 466.43 413.484Z" fill="#5A5A5A"/>
<path d="M526.22 291.103V248.281H43.7798V291.103C43.7798 316.3 64.2063 336.727 89.4032 336.727H480.597C505.794 336.725 526.22 316.299 526.22 291.103Z" fill="#0055A6"/>
<path d="M482.04 248.281V291.102C482.04 316.299 461.613 336.724 436.416 336.724H480.597C505.794 336.724 526.22 316.298 526.22 291.102V248.281H482.04Z" fill="#004688"/>
<path d="M103.57 336.725C98.551 336.725 93.7628 337.698 89.3687 339.451C103.532 345.097 113.547 358.927 113.547 375.105C113.547 391.282 103.533 405.112 89.3687 410.759C93.7628 412.51 98.551 413.484 103.57 413.484C124.765 413.484 141.949 396.301 141.949 375.105C141.949 353.908 124.767 336.725 103.57 336.725Z" fill="#444444"/>
<path d="M180.328 336.725C175.31 336.725 170.521 337.698 166.127 339.451C180.29 345.097 190.305 358.927 190.305 375.105C190.305 391.282 180.291 405.112 166.127 410.759C170.521 412.51 175.31 413.484 180.328 413.484C201.524 413.484 218.707 396.301 218.707 375.105C218.707 353.908 201.524 336.725 180.328 336.725Z" fill="#444444"/>
<path d="M389.672 336.725C384.653 336.725 379.865 337.698 375.471 339.451C389.634 345.097 399.649 358.927 399.649 375.105C399.649 391.282 389.635 405.112 375.471 410.759C379.865 412.51 384.653 413.484 389.672 413.484C410.868 413.484 428.051 396.301 428.051 375.105C428.051 353.908 410.869 336.725 389.672 336.725Z" fill="#444444"/>
<path d="M466.43 336.725C461.412 336.725 456.623 337.698 452.229 339.451C466.393 345.097 476.408 358.927 476.408 375.105C476.408 391.282 466.394 405.112 452.229 410.759C456.623 412.51 461.412 413.484 466.43 413.484C487.626 413.484 504.81 396.301 504.81 375.105C504.81 353.908 487.626 336.725 466.43 336.725Z" fill="#444444"/>
<path d="M103.57 387.878C110.624 387.878 116.343 382.159 116.343 375.105C116.343 368.05 110.624 362.331 103.57 362.331C96.5149 362.331 90.7958 368.05 90.7958 375.105C90.7958 382.159 96.5149 387.878 103.57 387.878Z" fill="#BFBFBF"/>
<path d="M180.328 387.878C187.383 387.878 193.102 382.159 193.102 375.105C193.102 368.05 187.383 362.331 180.328 362.331C173.273 362.331 167.554 368.05 167.554 375.105C167.554 382.159 173.273 387.878 180.328 387.878Z" fill="#BFBFBF"/>
<path d="M389.672 387.878C396.727 387.878 402.446 382.159 402.446 375.105C402.446 368.05 396.727 362.331 389.672 362.331C382.617 362.331 376.898 368.05 376.898 375.105C376.898 382.159 382.617 387.878 389.672 387.878Z" fill="#BFBFBF"/>
<path d="M466.43 387.878C473.485 387.878 479.204 382.159 479.204 375.105C479.204 368.05 473.485 362.331 466.43 362.331C459.376 362.331 453.657 368.05 453.657 375.105C453.657 382.159 459.376 387.878 466.43 387.878Z" fill="#BFBFBF"/>
<path d="M561.65 226.341C557.038 226.341 553.301 230.078 553.301 234.691V259.187H534.57V248.28V54.1398C534.57 24.3796 510.357 0.167969 480.597 0.167969H89.4043C59.644 0.167969 35.4313 24.3796 35.4313 54.1398V103.81C35.4313 108.422 39.1686 112.16 43.7809 112.16C48.3932 112.16 52.1305 108.422 52.1305 103.81V54.1398C52.1305 33.5875 68.852 16.8672 89.4043 16.8672H480.597C501.15 16.8672 517.871 33.5887 517.871 54.1398V239.932H52.1294V134.774C52.1294 130.161 48.3921 126.424 43.7798 126.424C39.1675 126.424 35.4302 130.161 35.4302 134.774V259.187H16.6992V234.691C16.6992 230.078 12.9619 226.341 8.34961 226.341C3.73729 226.341 0 230.078 0 234.691V290.021C0 294.633 3.73729 298.37 8.34961 298.37C12.9619 298.37 16.6992 294.633 16.6992 290.021V275.887H35.4302V291.102C35.4302 314.346 50.2001 334.206 70.847 341.788C62.2113 350.272 56.8408 362.071 56.8408 375.104C56.8408 400.871 77.8028 421.833 103.57 421.833C119.453 421.833 133.501 413.862 141.949 401.716C150.396 413.862 164.445 421.833 180.328 421.833C206.095 421.833 227.057 400.871 227.057 375.104C227.057 363.679 222.929 353.203 216.093 345.075H289.041C293.654 345.075 297.391 341.337 297.391 336.725C297.391 332.113 293.654 328.375 289.041 328.375H89.4032C68.8509 328.375 52.1305 311.654 52.1305 291.102V256.63H517.872V291.102C517.872 311.655 501.15 328.375 480.599 328.375H328.006C323.394 328.375 319.656 332.113 319.656 336.725C319.656 341.337 323.394 345.075 328.006 345.075H353.908C347.072 353.203 342.944 363.678 342.944 375.104C342.944 400.871 363.906 421.833 389.673 421.833C405.556 421.833 419.605 413.862 428.052 401.716C436.5 413.862 450.548 421.833 466.431 421.833C492.198 421.833 513.16 400.871 513.16 375.104C513.16 362.07 507.791 350.272 499.154 341.788C519.801 334.206 534.571 314.346 534.571 291.102V275.887H553.301V290.021C553.301 294.633 557.038 298.37 561.65 298.37C566.263 298.37 570 294.633 570 290.021V234.691C570 230.079 566.263 226.341 561.65 226.341ZM103.57 405.134C87.0118 405.134 73.54 391.662 73.54 375.104C73.54 358.547 87.0118 345.075 103.57 345.075C120.127 345.075 133.599 358.547 133.599 375.104C133.599 391.662 120.127 405.134 103.57 405.134ZM210.357 375.104C210.357 391.662 196.885 405.134 180.327 405.134C163.769 405.134 150.297 391.662 150.297 375.104C150.297 358.547 163.769 345.075 180.327 345.075C196.885 345.075 210.357 358.547 210.357 375.104ZM389.672 405.134C373.114 405.134 359.642 391.662 359.642 375.104C359.642 358.547 373.114 345.075 389.672 345.075C406.23 345.075 419.701 358.547 419.701 375.104C419.701 391.662 406.231 405.134 389.672 405.134ZM466.43 405.134C449.872 405.134 436.401 391.662 436.401 375.104C436.401 358.547 449.872 345.075 466.43 345.075C482.988 345.075 496.46 358.547 496.46 375.104C496.46 391.662 482.988 405.134 466.43 405.134Z" fill="black"/>
<rect x="37" y="96" width="491" height="16" rx="8" fill="black"/>
<path fill-rule="evenodd" clip-rule="evenodd" d="M289.741 316.402C288.523 314.875 287.907 312.87 287.907 310.446C287.907 307.959 288.496 305.956 289.657 304.492C290.922 302.889 292.786 302.078 295.199 302.078H295.384V297.927H295.199C291.435 297.927 288.531 299.139 286.566 301.527C284.778 303.69 283.871 306.699 283.871 310.479C283.871 314.13 284.854 317.132 286.794 319.402C288.836 321.788 291.681 323 295.254 323H295.439V318.849H295.254C292.899 318.849 291.043 318.026 289.741 316.402ZM275.405 316.402C274.187 314.875 273.57 312.872 273.57 310.446C273.57 307.959 274.159 305.956 275.319 304.492C276.585 302.889 278.449 302.078 280.861 302.078H281.046V297.927H280.861C277.097 297.927 274.193 299.139 272.228 301.527C270.44 303.69 269.533 306.699 269.533 310.479C269.533 314.13 270.518 317.132 272.459 319.402C274.5 321.788 277.345 323 280.919 323H281.103V318.849H280.919C278.563 318.849 276.707 318.026 275.405 316.402ZM288.58 275.977V287.532H292.861V263.61H288.58V271.942H286.251C285.291 271.942 284.574 271.717 284.12 271.273C283.793 270.959 283.634 270.54 283.634 269.989V263.61H279.354V270.44C279.354 272.013 279.958 273.345 281.151 274.401C282.331 275.447 283.775 275.977 285.451 275.977H288.58ZM329.529 297.359L329.228 297.683L320.677 306.867V298.498H316.937V322.285H320.677V312.514L326.099 306.608L326.642 322.285H330.454L329.529 297.359ZM301.528 287.532H305.807V267.587H309.415V263.612H297.98V267.587H301.528V287.532ZM311.386 297.683L302.834 306.867V298.498H299.095V322.285H302.834V312.514L308.256 306.608L308.797 322.285H312.609L311.689 297.357L311.386 297.683ZM319.083 267.587H320.633C321.736 267.587 322.495 267.927 322.954 268.628C323.324 269.211 323.587 270.338 323.755 271.881H318.98L319.083 267.587ZM318.904 275.857L324.246 275.859L325.447 287.534L329.758 287.532L327.784 270.044C327.785 267.751 327.097 266.021 325.739 264.933C324.658 264.056 323.177 263.61 321.338 263.61H314.997L314.21 287.532H318.491L318.904 275.857ZM244.305 267.587H249.605V287.534H253.886V263.61H240.025V287.532H244.305V267.587ZM246.306 311.485C246 312.095 245.641 312.4 245.243 312.4C244.856 312.4 244.53 312.137 244.25 311.592C243.951 311.014 243.8 310.17 243.8 309.078V302.078H243.957C244.841 302.078 245.516 302.581 246.021 303.612C246.539 304.675 246.802 306.373 246.802 308.666C246.8 309.884 246.634 310.833 246.306 311.485ZM243.966 298.535H240V322.27H243.8V315.371C244.536 316.036 245.338 316.432 246.217 316.432C247.482 316.432 248.534 315.744 249.348 314.389C250.259 312.867 250.719 310.612 250.719 307.681C250.719 305.645 250.349 303.818 249.621 302.257C248.473 299.789 246.569 298.535 243.966 298.535ZM269.428 281.681C268.872 283.231 268.087 283.983 267.033 283.983C266.022 283.983 265.26 283.221 264.702 281.651C264.119 280.01 263.823 277.929 263.823 275.464C263.823 272.935 264.113 270.854 264.686 269.278C265.232 267.77 266 267.038 267.033 267.038C268.191 267.038 269.018 267.78 269.556 269.305C270.055 270.709 270.307 272.758 270.307 275.396C270.307 277.946 270.011 280.059 269.428 281.681ZM272.733 284.386C274.002 282.131 274.646 279.106 274.646 275.396C274.646 271.729 273.979 268.725 272.668 266.469C271.326 264.166 269.428 263 267.025 263C264.746 263 262.931 264.174 261.635 266.49C260.366 268.75 259.722 271.757 259.722 275.426C259.722 279.225 260.337 282.291 261.553 284.542C262.796 286.848 264.637 288.018 267.025 288.018C269.451 288.02 271.372 286.798 272.733 284.386ZM262.016 316.553C261.515 318.117 260.778 318.91 259.828 318.91C258.916 318.91 258.199 318.106 257.696 316.52C257.174 314.868 256.907 312.773 256.907 310.292C256.907 307.747 257.168 305.653 257.681 304.065C258.172 302.543 258.895 301.771 259.827 301.771C260.884 301.771 261.639 302.533 262.129 304.098C262.577 305.512 262.804 307.572 262.804 310.227C262.805 312.792 262.541 314.919 262.016 316.553ZM264.843 301.355C263.652 299.082 261.967 297.927 259.832 297.927C257.808 297.927 256.198 299.087 255.047 301.378C253.917 303.627 253.341 306.615 253.341 310.259C253.341 314.035 253.892 317.086 254.972 319.324C256.074 321.601 257.709 322.756 259.83 322.756C261.984 322.756 263.69 321.548 264.9 319.16C266.03 316.924 266.604 313.919 266.604 310.227C266.606 306.579 266.013 303.595 264.843 301.355Z" fill="white"/>
</svg>
