<svg width="90" height="90" viewBox="0 0 90 90" fill="none" xmlns="http://www.w3.org/2000/svg">
<g clip-path="url(#clip0)">
<path d="M57.3969 55.1184C58.4688 52.8055 61.2129 51.7995 63.5257 52.8713C65.1157 53.6081 68.8215 54.2552 73.8099 54.2069C75.1859 56.6787 75.1859 60.6852 73.6817 63.4386C69.0286 63.4653 63.4172 62.9958 59.6442 61.2472C57.3311 60.1753 56.325 57.4314 57.3969 55.1184Z" fill="url(#paint0_linear)"/>
<path d="M30.5086 73.4675C35.4322 71.1716 37.5625 65.3189 35.2666 60.3953C32.9707 55.4717 27.118 53.3414 22.1943 55.6373C17.9511 57.6159 15.4845 62.4712 10.5825 62.7202C8.87649 62.8068 7.85295 64.6703 8.77375 66.1092C14.2087 74.6031 24.1709 76.4228 30.5086 73.4675Z" fill="url(#paint1_linear)"/>
<path d="M23.0107 72.9849C23.9181 72.9849 24.6964 72.2988 24.7921 71.3765C24.8939 70.3916 24.1782 69.5106 23.1934 69.4085C22.616 69.3488 22.0234 69.2411 21.432 69.0885C20.4723 68.8411 19.4954 69.4182 19.2481 70.3769C19.0009 71.3357 19.5778 72.3133 20.5366 72.5605C21.3004 72.7576 22.0701 72.8969 22.8241 72.975C22.8865 72.9817 22.9491 72.9849 23.0107 72.9849Z" fill="#A7F2D2"/>
<path d="M15.1852 69.7647C15.7094 69.7647 16.2288 69.5359 16.5831 69.0956C17.2038 68.3242 17.0815 67.1956 16.31 66.5749C15.5486 65.9623 14.8455 65.2588 14.2203 64.4839C13.5984 63.7134 12.4698 63.5927 11.6992 64.2146C10.9285 64.8364 10.8078 65.9652 11.4298 66.7357C12.2158 67.7098 13.1014 68.5958 14.0624 69.3688C14.3937 69.6351 14.7908 69.7647 15.1852 69.7647Z" fill="#A7F2D2"/>
<path d="M49.0889 84.3147C49.2467 79.3378 48.088 74.7081 46.9999 72.1709C45.9952 69.8281 47.08 67.1142 49.4231 66.1097C51.7658 65.1048 54.4796 66.1899 55.4843 68.5329C56.968 71.9929 58.4197 77.7337 58.33 83.9688C55.803 85.9454 51.6896 85.8547 49.0889 84.3147Z" fill="url(#paint2_linear)"/>
<path d="M44.2956 84.2529C41.0979 85.9403 37.4495 85.7193 35.0629 83.96C35.4754 77.9492 35.5538 75.3869 34.9935 69.0833C34.7678 66.5441 36.6431 64.3027 39.1823 64.077C41.722 63.8514 43.9629 65.7269 44.1886 68.2659C44.7788 74.9019 44.7212 77.9377 44.2956 84.2529Z" fill="url(#paint3_linear)"/>
<path d="M34.9865 85.0616C35.0132 84.6808 35.0385 84.3154 35.0629 83.9601C37.4545 83.0201 42.0148 83.3496 44.2956 84.253C44.2642 84.7192 44.2311 85.2014 44.1957 85.7059C44.0175 88.2521 41.8091 90.1658 39.2689 89.9883C36.7259 89.8103 34.8087 87.6046 34.9865 85.0616Z" fill="url(#paint4_linear)"/>
<path d="M42.4459 25.4875C42.4685 18.2949 36.5899 12.2093 29.3972 12.2075C22.1872 12.2059 16.3418 18.0502 16.3418 25.2599C16.3418 27.516 16.3198 31.9926 12.7571 34.0723C9.44123 36.0079 9.41882 40.8261 12.7115 42.8005C19.8653 47.0901 30.2988 48.631 38.7183 42.9881C38.7183 42.9881 42.4044 38.7715 42.4459 25.4875Z" fill="url(#paint5_linear)"/>
<path d="M43.3368 28.2951C36.1282 28.2951 30.2845 22.4514 30.2845 15.2428C30.2845 8.03416 36.1282 2.19043 43.3368 2.19043C50.5454 2.19043 56.3891 8.03416 56.3891 15.2428C56.3891 22.4514 50.5454 28.2951 43.3368 28.2951Z" fill="url(#paint6_linear)"/>
<path d="M63.793 8.98352C59.9712 7.59246 53.5842 13.3308 51.9031 20.1191C50.9255 24.0669 52.9399 26.9104 56.7619 28.3012C60.5836 29.6923 63.9545 28.809 65.7432 25.1564C68.819 18.8758 67.6147 10.3746 63.793 8.98352Z" fill="url(#paint7_linear)"/>
<path d="M56.0609 45.7808C67.9432 57.3192 66.3894 69.0219 63.0988 72.4903C59.8082 75.9589 54.4158 77.5289 46.3504 77.5289C38.285 77.5289 32.8923 75.9589 29.6019 72.4903C26.3116 69.0217 24.7577 57.319 36.6399 45.7808H56.0609Z" fill="url(#paint8_linear)"/>
<path d="M81.5547 39.3754C81.0359 49.2888 73.5316 54.6677 53.7255 54.6677C33.9194 54.6677 26.6653 46.8949 26.6653 35.6334C26.6653 24.3719 34.3085 15.2427 49.2535 15.2427C64.1983 15.2427 82.2182 26.6947 81.5547 39.3754Z" fill="url(#paint9_linear)"/>
<path d="M72.8493 39.6461C71.3262 39.6461 70.0915 38.6539 70.0915 37.43C70.0915 36.2061 71.3262 35.2139 72.8493 35.2139C74.3723 35.2139 75.607 36.2061 75.607 37.43C75.607 38.6539 74.3723 39.6461 72.8493 39.6461Z" fill="#EAADCD"/>
<path d="M40.3964 39.6461C38.8733 39.6461 37.6387 38.6539 37.6387 37.43C37.6387 36.2061 38.8733 35.2139 40.3964 35.2139C41.9194 35.2139 43.1541 36.2061 43.1541 37.43C43.1541 38.6539 41.9194 39.6461 40.3964 39.6461Z" fill="#EAADCD"/>
<path d="M68.1214 37.4298C65.1013 37.4298 62.6531 34.9815 62.6531 31.9615C62.6531 28.9414 65.1013 26.4932 68.1214 26.4932C71.1414 26.4932 73.5897 28.9414 73.5897 31.9615C73.5897 34.9815 71.1414 37.4298 68.1214 37.4298Z" fill="white"/>
<path d="M68.0319 34.2642C66.7593 32.9916 66.7593 30.9283 68.0319 29.6557C69.3045 28.3831 71.3678 28.3831 72.6404 29.6557C73.913 30.9283 73.913 32.9916 72.6404 34.2642C71.3678 35.5368 69.3045 35.5368 68.0319 34.2642Z" fill="#3B3B44"/>
<path d="M45.1242 37.4298C42.1042 37.4298 39.6559 34.9815 39.6559 31.9615C39.6559 28.9414 42.1042 26.4932 45.1242 26.4932C48.1443 26.4932 50.5926 28.9414 50.5926 31.9615C50.5926 34.9815 48.1443 37.4298 45.1242 37.4298Z" fill="white"/>
<path d="M44.1271 32.4809C43.8391 30.7043 45.0459 29.0306 46.8225 28.7426C48.5991 28.4546 50.2727 29.6614 50.5607 31.438C50.8487 33.2146 49.642 34.8883 47.8654 35.1763C46.0888 35.4643 44.4151 34.2575 44.1271 32.4809Z" fill="#3B3B44"/>
<path d="M62.7784 42.6592H65.5813C66.1366 42.6592 66.626 43.024 66.7825 43.5568C67.2759 45.2351 67.8426 48.68 64.1799 48.68C60.5171 48.68 61.0838 45.2351 61.5772 43.5568C61.7337 43.024 62.2232 42.6592 62.7784 42.6592Z" fill="#3B3B44"/>
<path d="M46.367 17.7179C46.1058 20.306 49.0841 22.929 53.1737 23.6502C57.3849 24.3928 61.179 22.8373 61.6484 20.1762C61.9338 18.5577 62.0288 16.3912 61.9408 14.0785C56.3891 13.0234 52.0273 13.8158 46.367 17.7179Z" fill="url(#paint10_linear)"/>
<path d="M52.2733 18.1413C51.9329 17.9733 51.6706 17.799 51.49 17.6504C51.534 17.4654 51.5849 17.2712 51.639 17.0731C49.8991 16.9189 48.5064 16.9548 46.3674 17.7178C46.1775 19.5985 47.6975 21.4974 50.1124 22.6719C51.6051 23.3978 53.3786 22.4887 53.6667 20.8542L53.6696 20.8379C53.8653 19.727 53.2848 18.6406 52.2733 18.1413Z" fill="#FCB500"/>
<path d="M60.8823 5.9778C56.8452 5.70116 52.8999 6.27021 49.1197 9.57045C47.7934 12.418 46.7756 15.3457 46.398 17.4867C46.3844 17.5636 46.3745 17.6403 46.3668 17.7174C51.0676 17.3802 56.485 16.3793 61.9404 14.078C61.8371 11.3636 61.4809 8.44831 60.8823 5.9778Z" fill="url(#paint11_linear)"/>
<path d="M51.5366 10.091C50.261 9.58449 48.8133 10.1958 48.2891 11.4641C47.3749 13.6757 46.6922 15.8196 46.3982 17.4867C46.3846 17.5635 46.3751 17.6406 46.3674 17.7175C48.0433 17.5972 49.8116 17.3905 51.639 17.0726C51.9375 15.9806 52.385 14.7034 52.9281 13.3882C53.4632 12.0921 52.8399 10.6084 51.5366 10.091Z" fill="#E05D6F"/>
<path d="M60.8823 5.97802C60.1037 2.76455 58.9152 0.304791 57.339 0.0269026C54.8844 -0.405886 51.5035 4.45286 49.1197 9.57067C52.8445 9.02708 56.8983 7.94852 60.8823 5.97802Z" fill="url(#paint12_linear)"/>
<path d="M29.3508 9.16858C33.1726 7.77752 39.5595 13.5158 41.2406 20.3042C42.2183 24.252 40.2038 27.0954 36.3819 28.4863C32.5601 29.8774 29.1893 28.994 27.4005 25.3415C24.3248 19.0609 25.529 10.5596 29.3508 9.16858Z" fill="url(#paint13_linear)"/>
<path d="M36.3631 55.2225C38.0887 53.3463 41.0088 53.2242 42.8852 54.95C45.2316 57.1084 49.0796 59.128 52.4628 60.4633C53.2178 64.4652 50.6255 66.7905 48.6992 68.9059C43.9439 66.996 39.4958 64.3754 36.6356 61.7444C34.7594 60.0187 34.6375 57.0989 36.3631 55.2225Z" fill="url(#paint14_linear)"/>
<path d="M63.5122 30.4254L70.3142 27.2535C71.2115 26.8351 71.5999 25.7684 71.1814 24.8711C70.763 23.9736 69.6961 23.5854 68.7989 24.0039L61.9969 27.1757C61.0996 27.5942 60.7113 28.6609 61.1297 29.5582C61.5494 30.4584 62.6176 30.8428 63.5122 30.4254Z" fill="#C9D0D6"/>
<path d="M53.4376 29.5581C53.856 28.6608 53.4677 27.5941 52.5704 27.1757L45.7684 24.0038C44.8709 23.5855 43.8045 23.9735 43.3859 24.871C42.9675 25.7683 43.3558 26.835 44.2531 27.2535L51.0551 30.4253C51.9486 30.842 53.0172 30.4596 53.4376 29.5581Z" fill="#C9D0D6"/>
<path d="M74.3011 20.3519C75.2913 20.3519 76.0939 19.5493 76.0939 18.5591V14.5012L80.3103 12.0597C81.6225 11.3001 81.4545 9.34665 80.0281 8.82458L75.377 7.12247L78.8843 5.37625C79.7707 4.93504 80.1316 3.8588 79.6902 2.97225C79.249 2.08588 78.1725 1.72498 77.2862 2.16637L70.0492 5.76942C68.6431 6.46934 68.7577 8.51819 70.2323 9.05801L75.1993 10.8758L73.4027 11.9161C72.8491 12.2367 72.5083 12.828 72.5083 13.4677V18.5591C72.5083 19.5493 73.3109 20.3519 74.3011 20.3519Z" fill="#E07281"/>
<path d="M76.2479 63.3739C75.4417 63.4105 74.5792 63.4338 73.6815 63.439C72.8566 60.884 73.2546 56.0776 73.8097 54.2074C74.4621 54.2011 75.1355 54.1833 75.83 54.152C78.3766 54.0344 80.5348 56.0074 80.6501 58.5539C80.7655 61.1004 78.7947 63.2584 76.2479 63.3739Z" fill="url(#paint15_linear)"/>
<path d="M52.463 60.4634C53.1898 60.7502 53.8955 61.0061 54.5599 61.2243C56.982 62.0196 58.3007 64.6278 57.5052 67.0497C56.7117 69.4661 54.1072 70.7924 51.6797 69.995C50.6806 69.6669 49.6834 69.3013 48.6993 68.906C48.9415 65.6649 50.686 62.4292 52.463 60.4634Z" fill="url(#paint16_linear)"/>
<path d="M49.0536 85.1069C49.0696 84.8419 49.0805 84.5778 49.0889 84.3145C51.5496 83.3214 55.8057 83.325 58.33 83.9684C58.322 84.5292 58.3026 85.0936 58.2686 85.661C58.1212 88.1113 56.0879 89.9999 53.6653 89.9999C51.0008 89.9999 48.894 87.7594 49.0536 85.1069Z" fill="url(#paint17_linear)"/>
</g>
<defs>
<linearGradient id="paint0_linear" x1="64.2426" y1="57.9411" x2="75.2974" y2="57.9411" gradientUnits="userSpaceOnUse">
<stop stop-color="#CDD4D4"/>
<stop offset="1" stop-color="#F3F3F3"/>
</linearGradient>
<linearGradient id="paint1_linear" x1="28.6781" y1="64.7504" x2="10.577" y2="64.7504" gradientUnits="userSpaceOnUse">
<stop stop-color="#7ED99E"/>
<stop offset="0.2532" stop-color="#81DAA3"/>
<stop offset="0.5725" stop-color="#88DDB3"/>
<stop offset="0.9261" stop-color="#95E2CD"/>
<stop offset="1" stop-color="#98E3D3"/>
</linearGradient>
<linearGradient id="paint2_linear" x1="52.4795" y1="65.7347" x2="52.4795" y2="85.4623" gradientUnits="userSpaceOnUse">
<stop stop-color="#D9E0E0"/>
<stop offset="1" stop-color="#F3F3F3"/>
</linearGradient>
<linearGradient id="paint3_linear" x1="39.7992" y1="64.0587" x2="39.7992" y2="85.4061" gradientUnits="userSpaceOnUse">
<stop stop-color="#D9E0E0"/>
<stop offset="1" stop-color="#F3F3F3"/>
</linearGradient>
<linearGradient id="paint4_linear" x1="33.6005" y1="86.6979" x2="42.4266" y2="86.6979" gradientUnits="userSpaceOnUse">
<stop stop-color="#E08243"/>
<stop offset="1" stop-color="#F0BB78"/>
</linearGradient>
<linearGradient id="paint5_linear" x1="28.0377" y1="29.4273" x2="7.08276" y2="29.4273" gradientUnits="userSpaceOnUse">
<stop stop-color="#B39BDB"/>
<stop offset="1" stop-color="#D0C3E8"/>
</linearGradient>
<linearGradient id="paint6_linear" x1="43.3368" y1="16.4605" x2="43.3368" y2="2.002" gradientUnits="userSpaceOnUse">
<stop stop-color="#B39BDB"/>
<stop offset="1" stop-color="#D0C3E8"/>
</linearGradient>
<linearGradient id="paint7_linear" x1="59.5728" y1="22.6922" x2="59.5728" y2="8.22694" gradientUnits="userSpaceOnUse">
<stop stop-color="#CDD4D4"/>
<stop offset="1" stop-color="#F3F3F3"/>
</linearGradient>
<linearGradient id="paint8_linear" x1="46.3504" y1="44.0996" x2="46.3504" y2="74.362" gradientUnits="userSpaceOnUse">
<stop stop-color="#CDD4D4"/>
<stop offset="1" stop-color="#F3F3F3"/>
</linearGradient>
<linearGradient id="paint9_linear" x1="14.0323" y1="34.9552" x2="69.6675" y2="34.9552" gradientUnits="userSpaceOnUse">
<stop stop-color="#D9E0E0"/>
<stop offset="1" stop-color="#F3F3F3"/>
</linearGradient>
<linearGradient id="paint10_linear" x1="45.9599" y1="18.744" x2="63.8114" y2="18.744" gradientUnits="userSpaceOnUse">
<stop stop-color="#F4D952"/>
<stop offset="1" stop-color="#F9EDAF"/>
</linearGradient>
<linearGradient id="paint11_linear" x1="45.9591" y1="11.817" x2="60.217" y2="11.817" gradientUnits="userSpaceOnUse">
<stop stop-color="#EC6F80"/>
<stop offset="1" stop-color="#ECA0AA"/>
</linearGradient>
<linearGradient id="paint12_linear" x1="48.7551" y1="4.78543" x2="59.7528" y2="4.78543" gradientUnits="userSpaceOnUse">
<stop stop-color="#7ED99E"/>
<stop offset="0.2532" stop-color="#81DAA3"/>
<stop offset="0.5725" stop-color="#88DDB3"/>
<stop offset="0.9261" stop-color="#95E2CD"/>
<stop offset="1" stop-color="#98E3D3"/>
</linearGradient>
<linearGradient id="paint13_linear" x1="33.5709" y1="31.8387" x2="33.5709" y2="14.7161" gradientUnits="userSpaceOnUse">
<stop stop-color="#CDD4D4"/>
<stop offset="1" stop-color="#F3F3F3"/>
</linearGradient>
<linearGradient id="paint14_linear" x1="43.8709" y1="69.45" x2="43.8709" y2="58.3797" gradientUnits="userSpaceOnUse">
<stop stop-color="#D9E0E0"/>
<stop offset="1" stop-color="#F3F3F3"/>
</linearGradient>
<linearGradient id="paint15_linear" x1="76.9326" y1="64.1663" x2="76.9326" y2="57.0978" gradientUnits="userSpaceOnUse">
<stop stop-color="#E08243"/>
<stop offset="1" stop-color="#F0BB78"/>
</linearGradient>
<linearGradient id="paint16_linear" x1="53.218" y1="71.0452" x2="53.218" y2="63.4768" gradientUnits="userSpaceOnUse">
<stop stop-color="#E08243"/>
<stop offset="1" stop-color="#F0BB78"/>
</linearGradient>
<linearGradient id="paint17_linear" x1="46.6754" y1="86.7604" x2="55.5659" y2="86.7604" gradientUnits="userSpaceOnUse">
<stop stop-color="#E08243"/>
<stop offset="1" stop-color="#F0BB78"/>
</linearGradient>
<clipPath id="clip0">
<rect width="90" height="90" fill="white" transform="matrix(-1 0 0 1 90 0)"/>
</clipPath>
</defs>
</svg>
