<svg width="90" height="90" viewBox="0 0 90 90" fill="none" xmlns="http://www.w3.org/2000/svg">
<g clip-path="url(#clip0)">
<path d="M59.1655 31.864C56.4556 29.3144 55.7557 26.1395 57.908 22.9605C61.8164 17.1879 69.7659 14.0171 72.8627 16.6334C74.0322 17.6214 74.5026 19.4302 74.3651 21.5576C69.7482 27.3936 62.8478 31.4018 59.1655 31.864Z" fill="url(#paint0_linear)"/>
<path d="M59.6383 32.287C59.474 32.1482 59.3173 32.0069 59.1655 31.864C62.6183 25.0043 69.5795 22.2977 74.3651 21.5576C74.1383 25.0639 72.2585 29.4366 69.1227 32.4349C66.1927 35.2369 62.7352 34.9034 59.6383 32.287Z" fill="url(#paint1_linear)"/>
<path d="M30.5656 31.864C33.2754 29.3144 33.9754 26.1395 31.8231 22.9605C27.9147 17.1879 19.9651 14.0171 16.8684 16.6334C15.6989 17.6214 15.2285 19.4302 15.366 21.5576C19.9829 27.3936 26.8833 31.4018 30.5656 31.864Z" fill="url(#paint2_linear)"/>
<path d="M30.0928 32.287C30.2571 32.1482 30.4137 32.0069 30.5656 31.864C27.1128 25.0043 20.1516 22.2977 15.366 21.5576C15.5928 25.0639 17.4726 29.4366 20.6084 32.4349C23.5384 35.2369 26.9959 34.9034 30.0928 32.287Z" fill="url(#paint3_linear)"/>
<path d="M44.8655 90.0001C50.7497 90.0001 55.5198 85.4429 55.5198 79.8214C55.5198 74.1998 50.7497 69.6426 44.8655 69.6426C38.9813 69.6426 34.2113 74.1998 34.2113 79.8214C34.2113 85.4429 38.9813 90.0001 44.8655 90.0001Z" fill="url(#paint4_linear)"/>
<path d="M20.9745 37.8803C20.9745 49.5919 30.9344 54.292 30.9344 67.6039H58.7969C58.7969 54.292 68.7568 49.5919 68.7568 37.8803C68.7568 25.586 58.0604 15.6196 44.8657 15.6196C31.671 15.6196 20.9745 25.586 20.9745 37.8803Z" fill="url(#paint5_linear)"/>
<path d="M54.3437 80.9793H35.3874C30.7992 80.9793 27.0796 77.2597 27.0796 72.6715V70.1961C27.0796 67.9712 28.8834 66.1675 31.1083 66.1675H57.8503C60.5019 66.1675 62.6515 68.3171 62.6515 70.9687V72.6715C62.6515 77.2599 58.9319 80.9793 54.3437 80.9793Z" fill="url(#paint6_linear)"/>
<path d="M34.7934 25.1359C35.0324 28.5151 39.4361 31.2204 44.8442 31.2385C50.4131 31.2572 54.9369 28.4195 54.9488 24.9005C54.9559 22.7601 54.5974 19.959 53.9711 17.0107C46.613 16.8882 41.1915 18.8727 34.7934 25.1359Z" fill="url(#paint7_linear)"/>
<path d="M50.8161 6.85107C45.5741 7.39161 40.6373 8.99709 36.5187 14.071C35.4483 18.0193 34.7918 22.0021 34.7823 24.8335C34.7819 24.9352 34.7863 25.0359 34.7934 25.1365C40.751 23.661 47.4811 21.1747 53.9713 17.011C53.2363 13.5507 52.1324 9.88849 50.8161 6.85107Z" fill="url(#paint8_linear)"/>
<path d="M50.8161 6.85095C49.104 2.89973 47.0331 0.00700486 44.9487 1.28248e-05C41.7028 -0.0109234 38.4422 6.9743 36.5187 14.0707C41.1779 12.5469 46.1406 10.2634 50.8161 6.85095Z" fill="url(#paint9_linear)"/>
<path d="M60.5225 9.50567C59.7173 8.70051 59.7173 7.39515 60.5225 6.58981L64.7057 2.4066C65.511 1.60162 66.8164 1.60127 67.6215 2.4066C68.4267 3.21176 68.4267 4.51712 67.6215 5.32246L63.4383 9.50567C62.6332 10.3106 61.3276 10.3112 60.5225 9.50567Z" fill="#FFE05C"/>
<path d="M26.2927 9.50553L22.1093 5.32233C21.3042 4.51717 21.3042 3.21181 22.1093 2.40647C22.9145 1.60149 24.2199 1.60149 25.0252 2.40647L29.2084 6.58968C30.0136 7.39484 30.0136 8.70019 29.2084 9.50553C28.4032 10.3109 27.0981 10.3107 26.2927 9.50553Z" fill="#71C4D1"/>
<path d="M14.3175 41.3571H9.18017C8.18999 41.3571 7.38734 40.5543 7.38734 39.5643C7.38734 38.5741 8.18999 37.7715 9.18017 37.7715H14.3175C15.3077 37.7715 16.1104 38.5741 16.1104 39.5643C16.1104 40.5543 15.3077 41.3571 14.3175 41.3571Z" fill="#997BCE"/>
<path d="M80.5509 41.626H75.4135C74.2749 41.626 73.3518 40.703 73.3518 39.5642C73.3518 38.4254 74.2749 37.5024 75.4135 37.5024H80.5509C81.6895 37.5024 82.6126 38.4254 82.6126 39.5642C82.6126 40.7028 81.6895 41.626 80.5509 41.626Z" fill="#05C95A"/>
<path d="M54.2092 62.5584C54.0722 62.5584 53.9331 62.5426 53.794 62.5098C52.8305 62.2813 52.2348 61.3149 52.4634 60.3516C52.5704 59.9004 52.6903 59.4414 52.8198 58.9871C53.091 58.0349 54.0821 57.4827 55.0354 57.7542C55.9875 58.0256 56.5395 59.0176 56.2681 59.9696C56.1532 60.373 56.0469 60.7799 55.9522 61.179C55.7566 62.0034 55.021 62.5584 54.2092 62.5584Z" fill="#DFF7FA"/>
<path d="M57.3128 54.4926C57.0333 54.4926 56.7498 54.4271 56.485 54.2889C55.6073 53.8308 55.2668 52.748 55.7247 51.8702C56.3143 50.7398 56.9081 49.6966 57.4618 48.7372C57.9568 47.8795 59.0531 47.5857 59.9108 48.0809C60.7683 48.5759 61.0621 49.6722 60.5671 50.5297C60.0332 51.4546 59.4622 52.4581 58.9037 53.5286C58.5841 54.1415 57.9594 54.4926 57.3128 54.4926Z" fill="#DFF7FA"/>
<path d="M39.6226 33.2948C40.2375 32.0033 39.7395 30.4398 38.4709 29.7789C36.3293 28.6633 34.9256 27.0031 34.7934 25.1362C34.7863 25.0356 34.782 24.9349 34.7823 24.8332C34.7891 22.7788 35.138 20.1176 35.7372 17.3037C33.5422 18.1501 31.5117 19.2916 29.7036 20.6766C29.5288 22.0472 29.3343 24.1839 29.4282 25.5158C29.6957 29.2959 32.1867 32.5245 35.9358 34.5093C37.288 35.2254 38.9648 34.6764 39.6226 33.2948Z" fill="#65C5D4"/>
<path d="M29.1091 47.1461C30.588 47.1461 31.7868 46.1827 31.7868 44.9942C31.7868 43.8057 30.588 42.8423 29.1091 42.8423C27.6302 42.8423 26.4313 43.8057 26.4313 44.9942C26.4313 46.1827 27.6302 47.1461 29.1091 47.1461Z" fill="#EFC5DB"/>
<path d="M60.6218 47.1461C62.1007 47.1461 63.2996 46.1827 63.2996 44.9942C63.2996 43.8057 62.1007 42.8423 60.6218 42.8423C59.1429 42.8423 57.944 43.8057 57.944 44.9942C57.944 46.1827 59.1429 47.1461 60.6218 47.1461Z" fill="#EFC5DB"/>
<path d="M33.7 44.994C36.6326 44.994 39.0099 42.6167 39.0099 39.684C39.0099 36.7514 36.6326 34.374 33.7 34.374C30.7673 34.374 28.39 36.7514 28.39 39.684C28.39 42.6167 30.7673 44.994 33.7 44.994Z" fill="white"/>
<path d="M39.0054 40.0207C39.1785 38.2816 37.9089 36.7315 36.1699 36.5585C34.4308 36.3855 32.8807 37.655 32.7077 39.3941C32.5347 41.1332 33.8042 42.6832 35.5433 42.8563C37.2823 43.0293 38.8324 41.7598 39.0054 40.0207Z" fill="#3B3B44"/>
<path d="M56.0311 44.994C58.9637 44.994 61.3411 42.6167 61.3411 39.684C61.3411 36.7514 58.9637 34.374 56.0311 34.374C53.0984 34.374 50.7211 36.7514 50.7211 39.684C50.7211 42.6167 53.0984 44.994 56.0311 44.994Z" fill="white"/>
<path d="M61.2746 40.188C61.5542 38.4629 60.3825 36.8377 58.6574 36.5581C56.9323 36.2784 55.3071 37.4502 55.0275 39.1753C54.7478 40.9004 55.9196 42.5255 57.6447 42.8052C59.3698 43.0848 60.9949 41.9131 61.2746 40.188Z" fill="#3B3B44"/>
<path d="M44.8655 46.82C46.1777 46.82 47.2414 45.4272 47.2414 43.7091C47.2414 41.9909 46.1777 40.5981 44.8655 40.5981C43.5534 40.5981 42.4897 41.9909 42.4897 43.7091C42.4897 45.4272 43.5534 46.82 44.8655 46.82Z" fill="#3B3B44"/>
</g>
<defs>
<linearGradient id="paint0_linear" x1="65.5142" y1="29.9837" x2="65.5142" y2="17.1092" gradientUnits="userSpaceOnUse">
<stop stop-color="#CDD4D4"/>
<stop offset="1" stop-color="#F3F3F3"/>
</linearGradient>
<linearGradient id="paint1_linear" x1="61.1653" y1="28.0368" x2="73.0358" y2="28.0724" gradientUnits="userSpaceOnUse">
<stop stop-color="#D5738E"/>
<stop offset="1" stop-color="#E6A3C1"/>
</linearGradient>
<linearGradient id="paint2_linear" x1="24.2168" y1="29.9837" x2="24.2168" y2="17.1092" gradientUnits="userSpaceOnUse">
<stop stop-color="#CDD4D4"/>
<stop offset="1" stop-color="#F3F3F3"/>
</linearGradient>
<linearGradient id="paint3_linear" x1="28.5658" y1="28.0153" x2="16.6953" y2="28.0509" gradientUnits="userSpaceOnUse">
<stop stop-color="#D5738E"/>
<stop offset="1" stop-color="#E6A3C1"/>
</linearGradient>
<linearGradient id="paint4_linear" x1="44.8655" y1="79.9234" x2="44.8655" y2="89.5862" gradientUnits="userSpaceOnUse">
<stop stop-color="#4E5660"/>
<stop offset="1" stop-color="#64768D"/>
</linearGradient>
<linearGradient id="paint5_linear" x1="23.2688" y1="41.6117" x2="77.7084" y2="41.6117" gradientUnits="userSpaceOnUse">
<stop stop-color="#74D2E8"/>
<stop offset="1" stop-color="#BAEAF5"/>
</linearGradient>
<linearGradient id="paint6_linear" x1="29.4009" y1="73.5735" x2="64.973" y2="73.5735" gradientUnits="userSpaceOnUse">
<stop stop-color="#B39BDB"/>
<stop offset="1" stop-color="#D0C3E8"/>
</linearGradient>
<linearGradient id="paint7_linear" x1="44.8553" y1="32.82" x2="44.9012" y2="17.5322" gradientUnits="userSpaceOnUse">
<stop stop-color="#F4D952"/>
<stop offset="1" stop-color="#F9EDAF"/>
</linearGradient>
<linearGradient id="paint8_linear" x1="33.7525" y1="15.9533" x2="56.1399" y2="16.0205" gradientUnits="userSpaceOnUse">
<stop stop-color="#EC6F80"/>
<stop offset="1" stop-color="#ECA0AA"/>
</linearGradient>
<linearGradient id="paint9_linear" x1="37.401" y1="7.0128" x2="49.3854" y2="7.04875" gradientUnits="userSpaceOnUse">
<stop stop-color="#7ED99E"/>
<stop offset="0.2532" stop-color="#81DAA3"/>
<stop offset="0.5725" stop-color="#88DDB3"/>
<stop offset="0.9261" stop-color="#95E2CD"/>
<stop offset="1" stop-color="#98E3D3"/>
</linearGradient>
<clipPath id="clip0">
<rect width="90" height="90" fill="white"/>
</clipPath>
</defs>
</svg>
