<svg width="90" height="90" viewBox="0 0 90 90" fill="none" xmlns="http://www.w3.org/2000/svg">
<g clip-path="url(#clip0)">
<path d="M85.0565 24.7518C85.0565 23.613 84.1333 22.6901 82.9947 22.6901C81.8561 22.6901 80.933 23.613 80.933 24.7518C80.933 27.7111 79.8469 30.3672 78.0985 31.6835C76.7028 32.7341 74.9119 32.9553 72.775 32.3402C71.8733 32.0807 71.3318 31.6143 71.0191 30.8274C69.8043 27.7701 72.3478 21.3487 73.9795 18.5901C74.5591 17.6101 74.2346 16.3456 73.2546 15.7658C72.2745 15.1866 71.0102 15.5107 70.4304 16.4908C68.8423 19.1756 65.1636 27.2586 67.187 32.35C67.9715 34.3246 69.5098 35.6915 71.6348 36.3029C79.5804 38.5889 85.0565 32.664 85.0565 24.7518Z" fill="#5B6C82"/>
<path d="M24.4024 73.467C29.326 71.1711 31.4563 65.3185 29.1604 60.3948C26.8645 55.4712 21.0118 53.3409 16.0881 55.6368C11.8449 57.6154 9.3783 62.4706 4.47652 62.7196C2.77047 62.8062 1.74695 64.6696 2.66774 66.1086C8.1027 74.6026 18.0647 76.4223 24.4024 73.467Z" fill="url(#paint0_linear)"/>
<path d="M16.9048 72.9843C17.8119 72.9843 18.5902 72.2982 18.6859 71.3762C18.7881 70.3914 18.0724 69.5102 17.0876 69.408C16.5091 69.3479 15.9166 69.2402 15.3258 69.088C14.3659 68.8407 13.3892 69.4177 13.142 70.3763C12.8947 71.3351 13.4717 72.3129 14.4305 72.5601C15.1933 72.7568 15.9628 72.8961 16.7179 72.9745C16.7807 72.9811 16.8429 72.9843 16.9048 72.9843Z" fill="#A7F2D2"/>
<path d="M9.07922 69.7641C9.60326 69.7641 10.1226 69.5355 10.4769 69.0954C11.0978 68.3241 10.9757 67.1955 10.2042 66.5747C9.44245 65.9615 8.7393 65.2578 8.11432 64.4833C7.49239 63.7126 6.36345 63.5925 5.59307 64.2141C4.82251 64.836 4.70204 65.9648 5.32379 66.7353C6.10941 67.7088 6.99506 68.5945 7.95619 69.3679C8.28751 69.6345 8.68444 69.7641 9.07922 69.7641Z" fill="#A7F2D2"/>
<path d="M48.1972 89.9993C50.7464 89.9993 52.813 87.9327 52.813 85.3835C52.813 78.1449 50.9488 72.2329 49.3847 68.5481C48.3888 66.2014 45.6789 65.1066 43.3325 66.1023C40.986 67.0982 39.891 69.8079 40.8869 72.1545C42.1161 75.0508 43.5815 79.6971 43.5815 85.3836C43.5813 87.9327 45.6479 89.9993 48.1972 89.9993Z" fill="url(#paint1_linear)"/>
<path d="M52.7703 83.5055C50.7335 86.0538 45.8593 86.622 43.5575 84.1504C43.3667 79.026 42.0259 74.8388 40.8869 72.1549C39.891 69.8083 40.986 67.0986 43.3325 66.1027C45.6789 65.1072 48.3888 66.2019 49.3847 68.5485C50.8111 71.909 52.4865 77.123 52.7703 83.5055Z" fill="url(#paint2_linear)"/>
<path d="M37.3019 84.57C34.425 86.501 29.7348 85.5325 28.1711 83.2045C28.8667 78.1081 28.869 74.0745 28.869 68.6749C28.869 66.1257 30.9356 64.0591 33.4848 64.0591C36.0339 64.0591 38.1006 66.1257 38.1006 68.6749C38.1006 74.2759 38.0985 78.797 37.3019 84.57Z" fill="url(#paint3_linear)"/>
<path d="M66.8374 71.7016C69.123 70.5729 70.061 67.8049 68.9323 65.5193C65.9063 59.3916 61.0229 54.4369 55.5341 51.9259C53.2163 50.8654 50.4771 51.8846 49.4164 54.2028C48.356 56.5209 49.3754 59.26 51.6935 60.3204C55.2333 61.9399 58.5834 65.4115 60.655 69.6067C61.78 71.8845 64.5436 72.8338 66.8374 71.7016Z" fill="url(#paint4_linear)"/>
<path d="M36.3397 25.4875C36.3623 18.2949 30.4836 12.2093 23.291 12.2075C16.0809 12.2059 10.2356 18.0502 10.2356 25.2599C10.2356 27.5159 10.2135 31.9926 6.65082 34.0723C3.33498 36.0079 3.31257 40.8261 6.60528 42.8004C13.759 47.0897 24.1924 48.6308 32.6119 42.9879C32.6121 42.9879 36.2979 38.7713 36.3397 25.4875Z" fill="url(#paint5_linear)"/>
<path d="M37.2306 28.2951C30.022 28.2951 24.1783 22.4514 24.1783 15.2428C24.1783 8.03416 30.022 2.19043 37.2306 2.19043C44.4392 2.19043 50.2829 8.03416 50.2829 15.2428C50.2829 22.4514 44.4392 28.2951 37.2306 28.2951Z" fill="url(#paint6_linear)"/>
<path d="M57.6866 8.98352C53.8648 7.59246 47.4779 13.3308 45.7969 20.1191C44.8193 24.0669 46.8337 26.9102 50.6557 28.3013C54.4774 29.6923 57.8483 28.8092 59.637 25.1564C62.7126 18.8756 61.5084 10.3746 57.6866 8.98352Z" fill="url(#paint7_linear)"/>
<path d="M49.9545 45.7808C61.8368 57.319 60.283 69.0217 56.9924 72.4903C53.7019 75.9589 48.3096 77.5289 40.244 77.5289C32.1784 77.5289 26.7861 75.9589 23.4956 72.4903C20.2052 69.0217 18.6513 57.319 30.5335 45.7808H49.9545Z" fill="url(#paint8_linear)"/>
<path d="M75.4483 39.3752C74.9295 49.2885 67.4252 54.6675 47.6191 54.6675C27.813 54.6675 20.5591 46.8949 20.5591 35.6334C20.5591 24.3719 28.2023 15.2427 43.1471 15.2427C58.0919 15.2427 76.1118 26.6945 75.4483 39.3752Z" fill="url(#paint9_linear)"/>
<path d="M66.2197 39.6461C64.7408 39.6461 63.542 38.6827 63.542 37.4942C63.542 36.3057 64.7408 35.3423 66.2197 35.3423C67.6986 35.3423 68.8975 36.3057 68.8975 37.4942C68.8975 38.6827 67.6986 39.6461 66.2197 39.6461Z" fill="#EAADCD"/>
<path d="M34.707 39.6461C33.2281 39.6461 32.0292 38.6827 32.0292 37.4942C32.0292 36.3057 33.2281 35.3423 34.707 35.3423C36.1859 35.3423 37.3848 36.3057 37.3848 37.4942C37.3848 38.6827 36.1859 39.6461 34.707 39.6461Z" fill="#EAADCD"/>
<path d="M61.6288 37.494C58.6962 37.494 56.3188 35.1167 56.3188 32.184C56.3188 29.2514 58.6962 26.874 61.6288 26.874C64.5615 26.874 66.9388 29.2514 66.9388 32.184C66.9388 35.1167 64.5615 37.494 61.6288 37.494Z" fill="white"/>
<path d="M61.543 34.421C60.3073 33.1853 60.3073 31.1819 61.543 29.9462C62.7787 28.7104 64.7822 28.7104 66.0179 29.9462C67.2536 31.1819 67.2536 33.1853 66.0179 34.421C64.7822 35.6567 62.7787 35.6567 61.543 34.421Z" fill="#3B3B44"/>
<path d="M39.2979 37.494C36.3653 37.494 33.9879 35.1167 33.9879 32.184C33.9879 29.2514 36.3653 26.874 39.2979 26.874C42.2305 26.874 44.6079 29.2514 44.6079 32.184C44.6079 35.1167 42.2305 37.494 39.2979 37.494Z" fill="white"/>
<path d="M38.3343 32.9258C37.9289 31.2252 38.9788 29.5178 40.6794 29.1123C42.38 28.7068 44.0874 29.7567 44.4929 31.4574C44.8983 33.158 43.8484 34.8653 42.1478 35.2708C40.4472 35.6763 38.7398 34.6264 38.3343 32.9258Z" fill="#3B3B44"/>
<path d="M56.7125 42.2563H59.4342C59.9733 42.2563 60.4486 42.6106 60.6006 43.128C61.0797 44.7577 61.6301 48.1028 58.0733 48.1028C54.5167 48.1028 55.0669 44.7575 55.5459 43.128C55.6983 42.6106 56.1734 42.2563 56.7125 42.2563Z" fill="#3B3B44"/>
<path d="M40.2608 17.7175C39.9996 20.3056 42.9779 22.9285 47.0675 23.6498C51.2787 24.3923 55.0728 22.8369 55.5422 20.1758C55.8276 18.5572 55.9226 16.3909 55.8346 14.078C50.2829 13.0229 45.9211 13.8152 40.2608 17.7175Z" fill="url(#paint10_linear)"/>
<path d="M46.1671 18.1409C45.8265 17.9729 45.5644 17.7986 45.3838 17.65C45.4278 17.465 45.4787 17.2708 45.5328 17.0727C43.7929 16.9183 42.4002 16.9544 40.2612 17.7174C40.0713 19.5981 41.5913 21.497 44.006 22.6715C45.4988 23.3974 47.2722 22.4883 47.5603 20.8538L47.5632 20.8374C47.7591 19.7266 47.1785 18.6402 46.1671 18.1409Z" fill="#FCB500"/>
<path d="M54.7761 5.9778C50.739 5.70116 46.7937 6.27021 43.0137 9.57045C41.6874 12.418 40.6696 15.3457 40.2922 17.4867C40.2786 17.5636 40.2687 17.6403 40.261 17.7174C44.9618 17.3802 50.3792 16.3793 55.8346 14.078C55.731 11.3636 55.3747 8.44831 54.7761 5.9778Z" fill="url(#paint11_linear)"/>
<path d="M45.4303 10.091C44.1548 9.58449 42.7071 10.1958 42.1829 11.4641C41.2687 13.6757 40.586 15.8196 40.292 17.4867C40.2784 17.5635 40.2689 17.6404 40.2612 17.7173C41.9371 17.5972 43.7054 17.3903 45.5328 17.0726C45.8313 15.9806 46.2788 14.7034 46.8219 13.3882C47.3568 12.0921 46.7335 10.6084 45.4303 10.091Z" fill="#E05D6F"/>
<path d="M54.7761 5.97802C53.9973 2.76455 52.8089 0.304791 51.2328 0.0269026C48.7782 -0.405886 45.3975 4.45286 43.0137 9.57067C46.7383 9.02708 50.7921 7.94852 54.7761 5.97802Z" fill="url(#paint12_linear)"/>
<path d="M23.2447 9.16858C27.0665 7.77752 33.4535 13.5158 35.1344 20.3042C36.112 24.252 34.0976 27.0953 30.2759 28.4863C26.4541 29.8774 23.0832 28.994 21.2945 25.3415C18.2187 19.0607 19.4228 10.5596 23.2447 9.16858Z" fill="url(#paint13_linear)"/>
<path d="M24.0472 61.7427V78.8934H22.0755C18.8536 78.8934 16.2418 76.2816 16.2418 73.0597V67.5764C16.2418 64.3545 18.8536 61.7427 22.0755 61.7427H24.0472Z" fill="url(#paint14_linear)"/>
<path d="M63.682 61.7427C64.1153 61.7427 64.5617 61.7674 65.0169 61.8135C68.6729 63.3844 70.8416 65.9669 70.8416 70.3845C70.8416 74.802 68.8109 77.2377 65.155 78.8086C64.6517 78.864 64.1589 78.8936 63.6818 78.8936H32.6424V61.7429H63.682V61.7427Z" fill="url(#paint15_linear)"/>
<path d="M32.6427 61.7427H24.0472V78.8934H32.6427V61.7427Z" fill="url(#paint16_linear)"/>
<path d="M62.3722 70.3844C62.3722 65.9669 67.6814 64.5111 65.0169 61.8135C67.8611 62.1003 71.0593 63.2409 73.6747 64.7087C74.652 66.6324 75.5539 68.1911 75.5539 70.3181C75.5539 72.4453 74.652 74.004 73.6747 75.9275H73.6749C71.1016 77.3716 67.9644 78.4993 65.155 78.8084C67.4893 76.2034 62.3722 74.7211 62.3722 70.3844Z" fill="url(#paint17_linear)"/>
<path d="M72.2049 70.3179C72.2049 68.1909 72.7562 66.239 73.6749 64.7085C76.7099 66.4117 78.9603 68.5556 78.9603 70.3179C78.9603 72.0803 76.7099 74.2241 73.6749 75.9275C72.7564 74.397 72.2049 72.4451 72.2049 70.3179Z" fill="url(#paint18_linear)"/>
<path d="M46.8496 72.6296C48.4304 70.6297 48.0905 67.7269 46.0904 66.1462C41.9224 62.8522 41.0721 60.9305 37.4439 55.7121C35.9887 53.6192 33.1121 53.1021 31.0191 54.5574C28.9262 56.0126 28.4091 58.8892 29.8644 60.9821C33.4536 66.1451 34.9625 69.1184 40.3662 73.3892C42.3581 74.9633 45.2626 74.6378 46.8496 72.6296Z" fill="url(#paint19_linear)"/>
<path d="M31.0192 54.5574C33.1121 53.1021 35.9887 53.6192 37.4439 55.7121C40.4511 60.0373 41.5515 62.0982 44.2126 64.5524C44.8835 68.5109 40.5972 71.1914 37.916 71.3026C34.39 68.0423 32.8421 65.2656 29.8642 60.9821C28.4092 58.889 28.9262 56.0126 31.0192 54.5574Z" fill="url(#paint20_linear)"/>
<path d="M32.6427 65.0562C34.6776 68.0048 36.5517 70.3739 40.3663 73.3889C41.8896 74.5927 43.9467 74.6856 45.54 73.7645C46.4961 73.2117 47.6918 73.2949 48.5582 73.9798C50.0373 75.1487 49.8969 77.4534 48.2687 78.4034C47.9576 78.5848 47.6389 78.7482 47.3136 78.8934H39.1552C38.4088 78.5608 37.6946 78.1327 37.0314 77.6085C35.2587 76.2074 33.8456 74.9169 32.6427 73.6642V65.0562Z" fill="#997BCE"/>
<path d="M25.4483 64.0522C24.9397 63.3205 24.5444 62.5437 24.2552 61.7427H30.3893C31.2171 62.9498 31.9402 64.0379 32.6428 65.0562V73.6643C29.6892 70.5879 28.0121 67.7406 25.4483 64.0522Z" fill="#424E5E"/>
<path d="M37.9162 71.3024C38.85 68.9868 42.0705 65.7846 44.2127 64.5522C44.7624 65.0591 45.377 65.5822 46.0904 66.1463C48.0905 67.727 48.4304 70.6296 46.8496 72.6297C45.2628 74.6378 42.3582 74.9634 40.3662 73.3891C39.4456 72.6614 38.6401 71.9719 37.9162 71.3024Z" fill="url(#paint21_linear)"/>
<path d="M82.6356 62.638C85.4199 61.875 86.609 60.0463 87.1415 58.733C88.4065 55.6132 87.4343 51.0929 84.252 45.2979C83.7039 44.2999 82.4504 43.9347 81.4525 44.4831C80.4544 45.0312 80.0896 46.2845 80.6377 47.2826C83.086 51.741 84.0636 55.35 83.3201 57.1839C83.1353 57.64 82.7374 58.2931 81.424 58.6968C80.5127 58.9767 78.6625 58.8141 76.5142 54.5756C75.9993 53.5602 74.7592 53.1538 73.743 53.6687C72.7273 54.1834 72.3213 55.4242 72.836 56.4398C75.4991 61.6935 78.9603 63.6452 82.6356 62.638Z" fill="#5B6C82"/>
<path d="M83.3979 17.4839C84.5365 17.4839 85.4597 16.561 85.4597 15.4222V13.8318C85.4597 12.693 84.5365 11.77 83.3979 11.77C82.2593 11.77 81.3361 12.693 81.3361 13.8318V15.4222C81.3361 16.5608 82.2593 17.4839 83.3979 17.4839Z" fill="#5B6C82"/>
<path d="M76.2737 13.9916C77.4124 13.9916 78.3355 13.0686 78.3355 11.9298V8.95873C78.3355 7.81992 77.4124 6.89697 76.2737 6.89697C75.1351 6.89697 74.212 7.81992 74.212 8.95873V11.9298C74.212 13.0686 75.1351 13.9916 76.2737 13.9916Z" fill="#5B6C82"/>
<path d="M52.7703 83.5055C52.7977 84.1211 52.8128 84.747 52.8128 85.3838C52.8128 87.9331 50.7462 89.9997 48.197 89.9997C45.6477 89.9997 43.5811 87.9331 43.5811 85.3838C43.5811 84.9668 43.5723 84.5559 43.5573 84.1504C45.8577 83.2097 50.4355 83.0134 52.7703 83.5055Z" fill="url(#paint22_linear)"/>
<path d="M37.302 84.5699C37.2329 85.0705 37.16 85.5768 37.0786 86.0976C36.6836 88.6205 34.3187 90.3376 31.8043 89.9438C29.2859 89.5495 27.5637 87.1882 27.9581 84.6696C28.0364 84.1692 28.1058 83.6839 28.1713 83.2045C30.7978 82.591 35.6841 83.465 37.302 84.5699Z" fill="url(#paint23_linear)"/>
</g>
<defs>
<linearGradient id="paint0_linear" x1="22.5719" y1="64.7501" x2="4.47097" y2="64.7501" gradientUnits="userSpaceOnUse">
<stop stop-color="#7ED99E"/>
<stop offset="0.2532" stop-color="#81DAA3"/>
<stop offset="0.5725" stop-color="#88DDB3"/>
<stop offset="0.9261" stop-color="#95E2CD"/>
<stop offset="1" stop-color="#98E3D3"/>
</linearGradient>
<linearGradient id="paint1_linear" x1="46.6659" y1="65.7344" x2="46.6659" y2="89.9993" gradientUnits="userSpaceOnUse">
<stop stop-color="#D9E0E0"/>
<stop offset="1" stop-color="#F3F3F3"/>
</linearGradient>
<linearGradient id="paint2_linear" x1="46.6446" y1="65.7346" x2="46.6446" y2="85.7376" gradientUnits="userSpaceOnUse">
<stop stop-color="#CDD4D4"/>
<stop offset="1" stop-color="#F3F3F3"/>
</linearGradient>
<linearGradient id="paint3_linear" x1="33.136" y1="64.0589" x2="33.136" y2="85.6006" gradientUnits="userSpaceOnUse">
<stop stop-color="#CDD4D4"/>
<stop offset="1" stop-color="#F3F3F3"/>
</linearGradient>
<linearGradient id="paint4_linear" x1="57.3237" y1="61.8431" x2="68.7118" y2="61.8431" gradientUnits="userSpaceOnUse">
<stop stop-color="#CDD4D4"/>
<stop offset="1" stop-color="#F3F3F3"/>
</linearGradient>
<linearGradient id="paint5_linear" x1="21.9315" y1="29.4271" x2="0.976515" y2="29.4271" gradientUnits="userSpaceOnUse">
<stop stop-color="#B39BDB"/>
<stop offset="1" stop-color="#D0C3E8"/>
</linearGradient>
<linearGradient id="paint6_linear" x1="37.2306" y1="16.4605" x2="37.2306" y2="2.002" gradientUnits="userSpaceOnUse">
<stop stop-color="#B39BDB"/>
<stop offset="1" stop-color="#D0C3E8"/>
</linearGradient>
<linearGradient id="paint7_linear" x1="53.4665" y1="22.6922" x2="53.4665" y2="8.22694" gradientUnits="userSpaceOnUse">
<stop stop-color="#CDD4D4"/>
<stop offset="1" stop-color="#F3F3F3"/>
</linearGradient>
<linearGradient id="paint8_linear" x1="40.2442" y1="44.0998" x2="40.2442" y2="74.362" gradientUnits="userSpaceOnUse">
<stop stop-color="#CDD4D4"/>
<stop offset="1" stop-color="#F3F3F3"/>
</linearGradient>
<linearGradient id="paint9_linear" x1="7.92608" y1="34.955" x2="63.5611" y2="34.955" gradientUnits="userSpaceOnUse">
<stop stop-color="#D9E0E0"/>
<stop offset="1" stop-color="#F3F3F3"/>
</linearGradient>
<linearGradient id="paint10_linear" x1="39.8537" y1="18.7435" x2="57.7051" y2="18.7435" gradientUnits="userSpaceOnUse">
<stop stop-color="#F4D952"/>
<stop offset="1" stop-color="#F9EDAF"/>
</linearGradient>
<linearGradient id="paint11_linear" x1="39.853" y1="11.817" x2="54.1106" y2="11.817" gradientUnits="userSpaceOnUse">
<stop stop-color="#EC6F80"/>
<stop offset="1" stop-color="#ECA0AA"/>
</linearGradient>
<linearGradient id="paint12_linear" x1="42.6489" y1="4.78543" x2="53.6465" y2="4.78543" gradientUnits="userSpaceOnUse">
<stop stop-color="#7ED99E"/>
<stop offset="0.2532" stop-color="#81DAA3"/>
<stop offset="0.5725" stop-color="#88DDB3"/>
<stop offset="0.9261" stop-color="#95E2CD"/>
<stop offset="1" stop-color="#98E3D3"/>
</linearGradient>
<linearGradient id="paint13_linear" x1="27.4647" y1="31.8385" x2="27.4647" y2="14.7161" gradientUnits="userSpaceOnUse">
<stop stop-color="#CDD4D4"/>
<stop offset="1" stop-color="#F3F3F3"/>
</linearGradient>
<linearGradient id="paint14_linear" x1="20.1444" y1="80.2052" x2="20.1444" y2="62.7694" gradientUnits="userSpaceOnUse">
<stop stop-color="#EC6F80"/>
<stop offset="1" stop-color="#ECA0AA"/>
</linearGradient>
<linearGradient id="paint15_linear" x1="51.7423" y1="80.995" x2="51.7423" y2="63.4358" gradientUnits="userSpaceOnUse">
<stop stop-color="#B39BDB"/>
<stop offset="1" stop-color="#D0C3E8"/>
</linearGradient>
<linearGradient id="paint16_linear" x1="28.345" y1="76.6699" x2="28.345" y2="66.8582" gradientUnits="userSpaceOnUse">
<stop stop-color="#4E5660"/>
<stop offset="1" stop-color="#64768D"/>
</linearGradient>
<linearGradient id="paint17_linear" x1="68.9631" y1="78.7831" x2="68.9631" y2="66.484" gradientUnits="userSpaceOnUse">
<stop stop-color="#EFC27B"/>
<stop offset="1" stop-color="#F3D5A6"/>
</linearGradient>
<linearGradient id="paint18_linear" x1="75.5826" y1="75.9273" x2="75.5826" y2="64.7085" gradientUnits="userSpaceOnUse">
<stop stop-color="#4E5660"/>
<stop offset="1" stop-color="#64768D"/>
</linearGradient>
<linearGradient id="paint19_linear" x1="37.6212" y1="74.9899" x2="38.192" y2="54.6047" gradientUnits="userSpaceOnUse">
<stop stop-color="#D9E0E0"/>
<stop offset="1" stop-color="#F3F3F3"/>
</linearGradient>
<linearGradient id="paint20_linear" x1="36.6605" y1="70.0119" x2="36.6605" y2="54.3924" gradientUnits="userSpaceOnUse">
<stop stop-color="#D9E0E0"/>
<stop offset="1" stop-color="#F3F3F3"/>
</linearGradient>
<linearGradient id="paint21_linear" x1="42.8801" y1="75.1875" x2="42.8801" y2="67.6716" gradientUnits="userSpaceOnUse">
<stop stop-color="#E08243"/>
<stop offset="1" stop-color="#F0BB78"/>
</linearGradient>
<linearGradient id="paint22_linear" x1="42.8185" y1="86.6218" x2="51.1049" y2="86.6218" gradientUnits="userSpaceOnUse">
<stop stop-color="#E08243"/>
<stop offset="1" stop-color="#F0BB78"/>
</linearGradient>
<linearGradient id="paint23_linear" x1="26.4577" y1="86.501" x2="35.9898" y2="86.501" gradientUnits="userSpaceOnUse">
<stop stop-color="#E08243"/>
<stop offset="1" stop-color="#F0BB78"/>
</linearGradient>
<clipPath id="clip0">
<rect width="90" height="90" fill="white" transform="matrix(-1 0 0 1 90 0)"/>
</clipPath>
</defs>
</svg>
