<svg width="1440" height="125" preserveAspectRatio="none" viewBox="0 0 1440 125" fill="none" xmlns="http://www.w3.org/2000/svg">
<path fill-rule="evenodd" clip-rule="evenodd" d="M0 0L34.8 13.8889C68.4 27.7778 136.8 55.5556 205.2 64.8148C274.8 74.0741 343.2 64.8148 411.6 71.7593C480 78.7037 548.4 101.852 616.8 101.852C685.2 101.852 754.8 78.7037 823.2 74.0741C891.6 69.4444 960 83.3333 1028.4 87.963C1096.8 92.5926 1165.2 87.963 1234.8 78.7037C1303.2 69.4444 1371.6 55.5556 1405.2 48.6111L1440 41.6667V125H1405.2C1371.6 125 1303.2 125 1234.8 125C1165.2 125 1096.8 125 1028.4 125C960 125 891.6 125 823.2 125C754.8 125 685.2 125 616.8 125C548.4 125 480 125 411.6 125C343.2 125 274.8 125 205.2 125C136.8 125 68.4 125 34.8 125H0V0Z" fill="#420096"/>
</svg>
