<svg width="1440" height="125" viewBox="0 0 1440 125" preserveAspectRatio="none" fill="none" xmlns="http://www.w3.org/2000/svg">
<path fill-rule="evenodd" clip-rule="evenodd" d="M1440 125L1405.2 111.111C1371.6 97.2222 1303.2 69.4445 1234.8 60.1852C1165.2 50.9259 1096.8 60.1852 1028.4 53.2408C960 46.2963 891.6 23.1482 823.2 23.1482C754.8 23.1482 685.2 46.2964 616.8 50.926C548.4 55.5556 480 41.6667 411.6 37.0371C343.2 32.4075 274.8 37.0371 205.2 46.2964C136.8 55.5557 68.3999 69.4446 34.7999 76.389L-6.08631e-05 83.3335L-6.81483e-05 0.000123147L34.7999 0.000120105C68.3999 0.000117167 136.8 0.000111188 205.2 0.000105208C274.8 9.91232e-05 343.2 9.31435e-05 411.6 8.71638e-05C480 8.11841e-05 548.4 7.52043e-05 616.8 6.92246e-05C685.2 6.32449e-05 754.8 5.71603e-05 823.2 5.11806e-05C891.6 4.52008e-05 960 3.92211e-05 1028.4 3.32414e-05C1096.8 2.72617e-05 1165.2 2.1282e-05 1234.8 1.51973e-05C1303.2 9.21762e-06 1371.6 3.2379e-06 1405.2 3.00499e-07L1440 -2.74181e-06L1440 125Z" fill="#F6645B"/>
</svg>
