<svg width="120" height="113" viewBox="0 0 120 113" fill="none" xmlns="http://www.w3.org/2000/svg">
<g clip-path="url(#clip0)">
<path d="M39.6935 96.7587C60.9345 85.3761 82.7317 60.7273 98.4285 45.9419L94.8729 37.3898C67.8964 37.3486 22.2373 61.4201 15.8601 79.5207C16.5763 80.1807 17.0152 81.104 16.9946 82.1235L16.8333 90.1262C16.7254 95.4742 22.0719 99.4637 27.6273 98.1807L36.4786 96.1367C37.654 95.865 38.8155 96.1362 39.6935 96.7587Z" fill="url(#paint0_linear)"/>
<path d="M90.5159 26.9105C48.4662 38.1374 24.7915 48.1032 2.3276 67.2148C-2.5312 71.3486 0.741309 78.8988 7.3076 78.685L13.053 78.4977C14.1457 78.4622 15.1423 78.8593 15.8601 79.5206C30.535 66.2202 67.1534 45.8248 94.8729 37.3902L90.5159 26.9105Z" fill="url(#paint1_linear)"/>
<path d="M98.4285 45.9421C80.951 54.7777 53.6589 77.6158 39.6935 96.7587C40.5383 97.3578 41.1208 98.2817 41.1942 99.3683L41.4299 102.85C41.8128 108.506 49.6047 110.546 53.0766 105.9C66.9089 87.3888 83.2695 70.5125 103.984 59.3042L98.4285 45.9421Z" fill="url(#paint2_linear)"/>
<path d="M85.7539 70.187L76.2562 72.7397C72.1733 73.837 68.0807 72.0205 66.2104 68.8108C64.4314 70.3603 62.6682 71.9421 60.9344 73.547C61.5194 74.3101 62.1851 75.0269 62.929 75.6858C65.8977 78.3157 69.7724 79.7642 73.839 79.764C74.6434 79.764 75.447 79.7043 76.2438 79.5897C79.8861 76.1702 83.689 72.9221 87.672 69.8864C87.0254 69.9202 86.3819 70.0183 85.7539 70.187Z" fill="#997BCE"/>
<path d="M77.3903 34.8658C80.7756 31.8887 81.65 28.1812 78.9613 24.4692C74.0788 17.7287 64.148 14.0261 60.279 17.0812C58.818 18.2348 58.2304 20.347 58.4023 22.8311C64.1699 29.6456 72.7903 34.3262 77.3903 34.8658Z" fill="url(#paint3_linear)"/>
<path d="M76.7996 35.3596C77.0047 35.1976 77.2008 35.0325 77.3903 34.8658C73.077 26.8558 64.3808 23.6952 58.4023 22.8312C58.6856 26.9252 61.034 32.0315 64.9512 35.5325C68.6119 38.8041 72.931 38.4147 76.7996 35.3596Z" fill="url(#paint4_linear)"/>
<path d="M98.8793 34.8658C95.4939 31.8887 94.6195 28.1812 97.3083 24.4692C102.191 17.7287 112.122 14.0261 115.991 17.0812C117.452 18.2348 118.039 20.347 117.867 22.8311C112.1 29.6456 103.479 34.3262 98.8793 34.8658Z" fill="url(#paint5_linear)"/>
<path d="M99.47 35.3596C99.2649 35.1976 99.0691 35.0325 98.8793 34.8658C103.193 26.8558 111.889 23.6952 117.867 22.8312C117.584 26.9252 115.236 32.0315 111.318 35.5325C107.658 38.8041 103.339 38.4147 99.47 35.3596Z" fill="url(#paint6_linear)"/>
<path d="M85.7539 70.187L76.2562 72.7397C70.8165 74.2019 65.356 70.4935 65.1626 65.2061L64.8251 55.974C64.7694 54.4477 64.2545 52.967 63.3399 51.7017L57.8075 44.0473C54.639 39.6635 56.7246 33.6632 62.0448 31.8574L71.3338 28.7045C72.8694 28.1832 74.2171 27.268 75.2221 26.0639L81.3005 18.7804C84.7819 14.6091 91.5313 14.6091 95.0128 18.7804L101.091 26.0639C102.096 27.268 103.444 28.1832 104.979 28.7045L114.268 31.8574C119.589 33.6632 121.675 39.6632 118.506 44.0473L112.974 51.7017C112.059 52.967 111.544 54.4477 111.488 55.974L111.151 65.2061C110.957 70.4935 105.497 74.2019 100.057 72.7397L90.5596 70.187C88.9896 69.7649 87.3239 69.7649 85.7539 70.187Z" fill="url(#paint7_linear)"/>
<path d="M60.9344 73.5468C62.6682 71.942 64.4314 70.3603 66.2104 68.8106C65.9821 68.4189 65.7849 68.0077 65.6271 67.5772C65.1139 66.1784 63.6899 65.2527 62.1086 65.3032C59.7313 65.3792 58.0554 67.5673 58.8129 69.675C59.3089 71.0554 60.023 72.3579 60.9344 73.5468Z" fill="#FCB500"/>
<path d="M78.7781 25.5752C79.0006 28.5163 83.1012 30.8709 88.1369 30.8868C93.3225 30.9031 97.5349 28.4332 97.5459 25.3703C97.5526 23.5073 97.2186 21.0693 96.6356 18.5031C89.7839 18.3966 84.7358 20.1237 78.7781 25.5752Z" fill="url(#paint8_linear)"/>
<path d="M78.7781 25.5752C79.0006 28.5163 83.1012 30.8709 88.1369 30.8868C93.3225 30.9031 97.5349 28.4332 97.5459 25.3703C97.5526 23.5073 97.2186 21.0693 96.6356 18.5031C89.7839 18.3966 84.7358 20.1237 78.7781 25.5752Z" fill="url(#paint9_linear)"/>
<path d="M93.6978 9.6601C88.8168 10.1307 84.2197 11.528 80.3845 15.9441C79.3879 19.3808 78.7764 22.8472 78.7676 25.3115C78.7673 25.4 78.7714 25.4878 78.7779 25.5752C84.3254 24.2909 90.5921 22.1268 96.6354 18.5031C95.9513 15.4914 94.9234 12.3038 93.6978 9.6601Z" fill="url(#paint10_linear)"/>
<path d="M93.6978 9.66012C92.1034 6.22118 90.1753 3.70347 88.2345 3.69722C85.212 3.68783 82.1759 9.76737 80.3848 15.9439C84.7232 14.6178 89.3441 12.6303 93.6978 9.66012Z" fill="url(#paint11_linear)"/>
<path d="M67.1286 51.6131C69.1004 51.6131 70.6989 50.4124 70.6989 48.9312C70.6989 47.45 69.1004 46.2493 67.1286 46.2493C65.1567 46.2493 63.5582 47.45 63.5582 48.9312C63.5582 50.4124 65.1567 51.6131 67.1286 51.6131Z" fill="#EAADCD"/>
<path d="M109.146 51.6131C111.117 51.6131 112.716 50.4124 112.716 48.9312C112.716 47.45 111.117 46.2493 109.146 46.2493C107.174 46.2493 105.575 47.45 105.575 48.9312C105.575 50.4124 107.174 51.6131 109.146 51.6131Z" fill="#EAADCD"/>
<path d="M73.2496 43.1996C74.9666 43.1996 76.5515 43.5546 77.8294 44.1543C78.9156 44.664 80.2108 43.9753 80.3071 42.8427C80.3341 42.5248 80.337 42.2004 80.314 41.8712C80.0771 38.487 77.0625 35.7848 73.4355 35.6978C69.4404 35.6022 66.1696 38.6008 66.1696 42.3134C66.1696 42.5018 66.1779 42.6883 66.1947 42.8727C66.2955 43.9921 67.5947 44.6588 68.6685 44.1548C69.9469 43.5548 71.532 43.1996 73.2496 43.1996Z" fill="white"/>
<path d="M88.137 51.2072C86.5959 51.2072 85.0548 50.7257 83.7689 49.7626C82.5764 48.8696 82.3839 47.2418 83.3394 46.1271C84.2948 45.0121 86.0363 44.8327 87.2289 45.7258C87.7636 46.1262 88.5104 46.1262 89.0451 45.7258C90.2375 44.8327 91.9789 45.0123 92.9346 46.1271C93.8901 47.2418 93.6979 48.8696 92.505 49.7626C91.2192 50.7257 89.6781 51.2072 88.137 51.2072Z" fill="#3B3B44"/>
<path d="M73.2495 43.1996C74.6661 43.1996 75.9921 43.4413 77.1309 43.8625C77.3486 43.3868 77.4691 42.8637 77.4691 42.3134C77.4691 40.1351 75.58 38.3693 73.2495 38.3693C70.9191 38.3693 69.0299 40.1351 69.0299 42.3134C69.0299 42.8637 69.1504 43.3866 69.3682 43.8625C70.507 43.4413 71.8332 43.1996 73.2495 43.1996Z" fill="#3B3B44"/>
<path d="M103.024 43.1996C104.741 43.1996 106.326 43.5546 107.604 44.1543C108.69 44.664 109.986 43.9753 110.082 42.8427C110.109 42.5248 110.112 42.2004 110.089 41.8712C109.852 38.487 106.837 35.7848 103.21 35.6978C99.2152 35.6022 95.9443 38.6008 95.9443 42.3134C95.9443 42.5018 95.9527 42.6883 95.9694 42.8727C96.0703 43.9921 97.3693 44.6588 98.4433 44.1548C99.7215 43.5548 101.307 43.1996 103.024 43.1996Z" fill="white"/>
<path d="M103.024 43.1996C104.441 43.1996 105.767 43.4413 106.906 43.8625C107.123 43.3868 107.244 42.8637 107.244 42.3134C107.244 40.1351 105.355 38.3693 103.024 38.3693C100.694 38.3693 98.8047 40.1351 98.8047 42.3134C98.8047 42.8637 98.9252 43.3866 99.1429 43.8625C100.282 43.4413 101.608 43.1996 103.024 43.1996Z" fill="#3B3B44"/>
<path d="M26.1264 60.7067C25.3397 60.7067 24.5695 60.3441 24.1127 59.6793C23.3994 58.6408 23.7216 57.2586 24.8324 56.5919C26.8509 55.3804 28.9507 54.1912 31.0739 53.0575C32.2198 52.4453 33.6804 52.8175 34.3354 53.8894C34.9901 54.9608 34.5919 56.3257 33.4454 56.938C31.3935 58.0335 29.3649 59.1824 27.4155 60.3523C27.0161 60.5923 26.5686 60.7067 26.1264 60.7067Z" fill="#A7F2D2"/>
<path d="M15.9486 67.4579C15.2377 67.4579 14.5342 67.1627 14.0628 66.5983C13.2505 65.6257 13.4353 64.2216 14.4761 63.4622C15.1743 62.9525 15.8845 62.4444 16.5861 61.9517C17.6418 61.2108 19.1406 61.4099 19.933 62.3966C20.7257 63.3835 20.5127 64.784 19.4571 65.5249C18.7789 66.0009 18.0928 66.492 17.418 66.9847C16.9813 67.3035 16.463 67.4579 15.9486 67.4579Z" fill="#A7F2D2"/>
</g>
<defs>
<linearGradient id="paint0_linear" x1="74.2994" y1="67.9061" x2="16.5825" y2="67.9061" gradientUnits="userSpaceOnUse">
<stop stop-color="#F4D952"/>
<stop offset="1" stop-color="#F9EDAF"/>
</linearGradient>
<linearGradient id="paint1_linear" x1="61.9277" y1="53.2154" x2="-9.82491" y2="53.2154" gradientUnits="userSpaceOnUse">
<stop stop-color="#7ED99E"/>
<stop offset="0.2532" stop-color="#81DAA3"/>
<stop offset="0.5725" stop-color="#88DDB3"/>
<stop offset="0.9261" stop-color="#95E2CD"/>
<stop offset="1" stop-color="#98E3D3"/>
</linearGradient>
<linearGradient id="paint2_linear" x1="80.3976" y1="77.2054" x2="36.6614" y2="77.2054" gradientUnits="userSpaceOnUse">
<stop stop-color="#B39BDB"/>
<stop offset="1" stop-color="#D0C3E8"/>
</linearGradient>
<linearGradient id="paint3_linear" x1="69.459" y1="32.67" x2="69.459" y2="17.6366" gradientUnits="userSpaceOnUse">
<stop stop-color="#CDD4D4"/>
<stop offset="1" stop-color="#F3F3F3"/>
</linearGradient>
<linearGradient id="paint4_linear" x1="74.8927" y1="30.3873" x2="60.0636" y2="30.4349" gradientUnits="userSpaceOnUse">
<stop stop-color="#D5738E"/>
<stop offset="1" stop-color="#E6A3C1"/>
</linearGradient>
<linearGradient id="paint5_linear" x1="106.811" y1="32.67" x2="106.811" y2="17.6366" gradientUnits="userSpaceOnUse">
<stop stop-color="#CDD4D4"/>
<stop offset="1" stop-color="#F3F3F3"/>
</linearGradient>
<linearGradient id="paint6_linear" x1="101.377" y1="30.4008" x2="116.206" y2="30.4483" gradientUnits="userSpaceOnUse">
<stop stop-color="#D5738E"/>
<stop offset="1" stop-color="#E6A3C1"/>
</linearGradient>
<linearGradient id="paint7_linear" x1="88.1567" y1="74.7677" x2="88.1567" y2="19.6545" gradientUnits="userSpaceOnUse">
<stop stop-color="#D9E0E0"/>
<stop offset="1" stop-color="#F3F3F3"/>
</linearGradient>
<linearGradient id="paint8_linear" x1="88.1485" y1="32.2505" x2="88.1858" y2="18.9445" gradientUnits="userSpaceOnUse">
<stop stop-color="#F4D952"/>
<stop offset="1" stop-color="#F9EDAF"/>
</linearGradient>
<linearGradient id="paint9_linear" x1="88.1485" y1="32.2505" x2="88.1858" y2="18.9445" gradientUnits="userSpaceOnUse">
<stop stop-color="#F4D952"/>
<stop offset="1" stop-color="#F9EDAF"/>
</linearGradient>
<linearGradient id="paint10_linear" x1="77.81" y1="17.5698" x2="98.6561" y2="17.6367" gradientUnits="userSpaceOnUse">
<stop stop-color="#EC6F80"/>
<stop offset="1" stop-color="#ECA0AA"/>
</linearGradient>
<linearGradient id="paint11_linear" x1="81.2075" y1="9.78844" x2="92.3668" y2="9.82426" gradientUnits="userSpaceOnUse">
<stop stop-color="#7ED99E"/>
<stop offset="0.2532" stop-color="#81DAA3"/>
<stop offset="0.5725" stop-color="#88DDB3"/>
<stop offset="0.9261" stop-color="#95E2CD"/>
<stop offset="1" stop-color="#98E3D3"/>
</linearGradient>
<clipPath id="clip0">
<rect width="120" height="112.166" fill="white"/>
</clipPath>
</defs>
</svg>
