<svg width="100" height="100" viewBox="0 0 100 100" fill="none" xmlns="http://www.w3.org/2000/svg">
<path d="M99.9935 32.4075V35.0001C99.926 35.5445 99.8704 36.0899 99.788 36.6316C99.4596 38.7061 98.9153 40.7406 98.1639 42.7019C96.7898 46.3621 94.537 49.4547 91.9445 52.3269C89.537 55.0019 86.8389 57.3732 83.9732 59.5436C77.5074 64.4445 70.4324 68.2593 62.8704 71.1677C55.675 73.9353 48.2593 75.8491 40.5648 76.5667C38.3287 76.7751 36.0824 76.9677 33.8389 76.989C31.1907 77.013 28.5352 76.9223 25.8935 76.7353C23.5102 76.5667 21.1324 76.2566 18.7639 75.9019C16.0479 75.5016 13.3893 74.7789 10.8444 73.7491C7.91944 72.5658 5.24166 71.0084 3.15925 68.564C1.70957 66.8604 0.721262 64.8133 0.288877 62.6186C0.178692 62.0612 0.100914 61.4908 0.00646973 60.926V58.426C0.0447171 58.3453 0.0757035 58.2613 0.0990623 58.1751C0.312025 56.9547 0.442581 55.7149 0.747211 54.5167C1.97869 49.6093 4.68055 45.5195 8.06203 41.8464C10.285 39.429 12.7693 37.2657 15.4694 35.3964C15.612 35.2937 15.7084 35.139 15.738 34.9658C15.8204 33.8454 15.8204 32.7167 15.9463 31.6019C16.1389 29.8982 16.3583 28.1945 16.6639 26.5093C17.1704 23.7121 18.1546 21.0464 19.0963 18.3769C20.0954 15.5454 21.1472 12.7288 22.5102 10.0491C23.1583 8.76489 23.8991 7.58063 25.2509 6.86396C29.112 4.82693 33.2444 3.81304 37.5741 3.65934C39.8481 3.57878 42.1333 3.74359 44.4111 3.83619C45.7657 3.89174 47.1148 4.05934 48.4685 4.11396C50.0426 4.17137 51.6213 4.26859 53.1824 4.14452C55.8917 3.92878 58.5889 3.55841 61.2907 3.24915C61.7269 3.19915 62.1611 3.12878 62.5954 3.06396H64.8176C65.0028 3.11859 65.1833 3.17045 65.3648 3.226C68.2889 4.126 70.1009 6.11211 71.013 8.98897C71.7954 11.4667 72.587 13.9408 73.3769 16.4167C73.4398 16.6149 73.4972 16.7482 73.7778 16.7427C75.687 16.7019 77.5972 16.6658 79.5065 16.676C81.8563 16.6796 84.1974 16.9621 86.4806 17.5177C90.1843 18.4316 93.5519 19.951 96.1102 22.9242C97.9765 25.0825 99.2229 27.7064 99.7167 30.5167C99.8213 31.1436 99.8991 31.7779 99.9935 32.4075ZM55.588 46.9741C55.3167 47.2982 55.0454 47.5927 54.8083 47.913C53.9324 49.0964 53.2241 50.3519 53.1019 51.8649C52.9861 53.301 53.8537 54.2723 55.2935 54.2547C56.3454 54.2408 57.3222 53.9019 58.2296 53.401C62.013 51.3093 65.4037 48.7167 68.2945 45.4843C70.2926 43.2491 72.0185 40.839 73.1972 38.0658C73.8176 36.6047 74.2972 35.0927 74.4213 33.5093C74.5127 32.3112 74.5151 31.1079 74.4287 29.9093C74.312 28.2695 74.0787 26.639 73.8898 25.0019C73.8815 24.9269 73.813 24.8593 73.7648 24.7741C73.6232 25.339 73.5046 25.8741 73.3537 26.3991C72.2 30.4084 70.0259 33.8353 67.2639 36.9075C64.5398 39.9371 61.3019 42.3297 57.7269 44.2501C51.9519 47.351 45.9139 49.6519 39.287 50.1066C36.7565 50.2806 34.2389 50.239 31.7315 49.8806C29.4009 49.5473 27.2296 48.7297 25.188 47.5658C23.6796 46.7093 22.2954 45.6954 21.2065 44.3167C19.8815 42.6343 18.9537 40.7371 18.1657 38.7612C18.125 38.6603 18.0731 38.5621 18.0268 38.463C17.9917 38.6482 18.0324 38.8149 18.0361 38.9806C18.0796 41.0038 18.4018 42.988 18.8843 44.9454C19.3991 47.0297 20 49.0871 21.0926 50.964C23.1028 54.4121 26.1611 56.539 29.8426 57.8575C31.3315 58.3917 32.8852 58.6482 34.4537 58.8427C35.6731 58.9945 36.8102 58.8056 37.8731 58.226C38.7065 57.7741 38.9843 57.0797 38.812 56.1797C38.5102 54.639 37.5954 53.4825 36.4685 52.4667C36.062 52.0964 35.612 51.7834 35.1296 51.4019C35.3611 51.4334 35.5241 51.4695 35.6852 51.476C37.7484 51.5507 39.814 51.4216 41.8519 51.0908C44.7759 50.6177 47.6278 49.8436 50.4259 48.8834C52.1463 48.2936 53.8398 47.6241 55.588 46.9741ZM93.9213 45.614C93.9922 45.5126 94.0565 45.4068 94.1139 45.2973C94.5834 44.2334 95.1102 43.1899 95.5028 42.0973C96.8361 38.3936 97.4769 34.6056 96.6704 30.6741C96.1213 27.9357 94.8047 25.41 92.8741 23.3917C90.7185 21.1112 88.0083 19.8084 85.0324 18.9816C81.5889 18.0214 78.0648 17.8408 74.5167 17.8899C74.2917 17.8899 74.0658 17.9362 73.8241 17.9621C74.0732 19.0214 74.3111 20.0343 74.5482 21.0482C74.6 21.2667 74.7195 21.3584 74.9472 21.2862C75.0477 21.2479 75.1537 21.2263 75.2611 21.2223C76.9185 21.2843 78.5945 21.2223 80.2306 21.4445C83.2796 21.851 86.1667 22.8214 88.8148 24.4297C91.0213 25.7704 92.8889 27.4556 94.0695 29.7936C94.7713 31.1825 95.0593 32.6769 95.1926 34.2158C95.4204 36.8556 95.2389 39.4723 94.7556 42.0677C94.537 43.2316 94.2139 44.3788 93.9195 45.614H93.9213ZM69.2417 32.0186C69.3648 31.8658 69.4083 31.8251 69.437 31.776C71.0127 29.0718 72.2563 26.1874 73.1407 23.1853C73.2398 22.8556 73.3574 22.4797 73.2926 22.1612C72.4472 17.9834 71.1046 13.9427 69.7907 9.90008C68.9417 7.28804 67.1222 5.48896 64.4019 4.91582C62.2537 4.46304 60.1796 4.89359 58.2704 6.09082C56.45 7.23248 54.8259 8.61304 53.1778 9.97415C50.5954 12.1103 47.8704 14.0742 45.4509 16.4121C45.1843 16.6704 44.8954 16.9093 44.6176 17.1575C44.7765 17.1716 44.9351 17.1275 45.0639 17.0334C47.3463 15.588 49.6231 14.1334 51.9111 12.6964C54.3 11.1945 56.6093 9.55563 59.1907 8.37785C60.9407 7.57971 62.7093 7.22693 64.5695 8.04637C66.8167 9.03804 68.2407 10.7603 69.0574 13.0325C69.8435 15.2204 69.9833 17.5084 69.9704 19.7917C69.9565 22.4242 69.813 25.0566 69.6926 27.6871C69.6574 28.4667 69.5241 29.2427 69.4398 30.0204C69.3806 30.6482 69.3185 31.2695 69.2417 32.0186ZM17.7954 73.8538C17.7259 73.7408 17.7167 73.7029 17.6944 73.6927C17.5537 73.6316 17.4167 73.5723 17.2685 73.5195C13.8555 72.2686 10.5602 70.7853 7.69443 68.5001C6.62869 67.6501 5.71758 66.6482 5.23055 65.3306C4.41943 63.1427 5.05554 60.6741 6.91666 59.4047C7.82592 58.7853 8.89166 58.3621 9.93332 57.9751C11.9009 57.2454 13.9268 56.6686 15.7444 55.5741C16.9991 54.8177 18.1343 53.938 18.8287 52.6066C19.2657 51.7732 19.5861 50.9232 18.9398 50.0288C18.8167 49.8584 18.7657 49.6362 18.6796 49.439C18.5805 49.2121 18.4796 48.9862 18.3296 48.6482C17.6704 50.489 16.5055 51.7538 15.1 52.8584C11.7194 55.5121 7.80369 56.6547 3.60554 57.0371C3.12129 57.0806 2.63703 57.1158 2.12406 57.1566C2.12406 58.026 2.07962 58.8584 2.1361 59.6853C2.18168 60.5121 2.29565 61.3337 2.47684 62.1417C3.28332 65.4908 5.28147 68.0019 8.08425 69.9195C10.3731 71.4871 12.9074 72.5121 15.563 73.2528C16.2796 73.4547 17.0028 73.6417 17.7954 73.8538ZM69.8565 46.9538C69.9212 46.9266 69.9832 46.8934 70.0417 46.8547C71.2241 45.9214 72.4398 45.0251 73.575 44.038C74.3926 43.3269 75.237 42.6149 75.7046 41.5779C76.9259 38.8427 77.5926 36.0186 77.2352 32.9954C77.0525 31.3478 76.5362 29.7546 75.7176 28.313C75.6622 28.2333 75.6003 28.1584 75.5324 28.089H75.4074C76.1213 35.1371 74.3759 41.4408 69.8565 46.9538ZM27.9398 24.5945L28.013 24.476C26.7528 23.3779 25.9028 22.2843 25.3805 21.1316C24.4213 19.0112 24.1518 16.7704 24.2926 14.4806C24.4021 12.5168 25.1891 10.6516 26.5194 9.20285C27.0231 8.64174 27.5898 8.13711 28.1639 7.57045C26.7046 8.26767 25.2398 8.87878 24.4602 10.4047C24.2639 10.7871 24.0491 11.1603 23.8398 11.5353C22.8528 13.3075 22.4509 15.2195 22.7157 17.214C23.0398 19.6214 24.213 21.6112 26.0333 23.2019C26.6231 23.7167 27.3018 24.1325 27.9398 24.5945Z" fill="#A17FE0"/>
<path d="M60.1852 96.9388C59.5259 96.8147 58.8648 96.7009 58.2083 96.5684C55.6694 96.0499 53.2556 95.1981 51.2528 93.5129C50.1417 92.5805 49.2028 91.449 48.2019 90.4221C47.7565 90.9555 47.2463 91.6101 46.6898 92.2221C44.7787 94.3222 42.3454 95.4796 39.6185 96.111C37.8759 96.512 36.1157 96.7592 34.325 96.661C31.1768 96.4897 28.3185 95.6064 26.0843 93.2351C24.5852 91.6453 23.7167 89.7481 23.3426 87.6092C23.3167 87.4601 23.287 87.312 23.2611 87.1629C23.2611 87.1499 23.2731 87.1351 23.2944 87.0888C23.6093 87.274 23.9315 87.4508 24.2315 87.6573C26.3759 89.1333 28.5315 89.0064 30.6481 87.6388C32.8352 86.2258 34.7074 84.4453 36.4102 82.4823C37.7435 80.9443 39.0954 79.4268 40.8639 78.3545C42.8657 77.1434 44.8954 77.1832 46.6602 78.5397C47.1768 78.9379 47.5796 79.4851 48.0296 79.9684C48.1036 80.0533 48.1714 80.1433 48.2324 80.2379C48.9574 79.5647 49.5889 78.8036 50.3778 78.2805C52.1639 77.0962 54.0009 77.3842 55.7481 78.4286C57.3824 79.4036 58.6565 80.7897 59.8917 82.2147C61.775 84.3869 63.7926 86.4212 66.2889 87.8934C68.2333 89.0388 70.2111 89.0823 72.1528 87.8286C72.5232 87.5888 72.9065 87.3657 73.2843 87.137L73.4148 87.2018C73.1009 88.2333 72.8833 89.3073 72.4537 90.2888C71.0315 93.5379 68.4722 95.474 65.0917 96.3712C64.3509 96.5685 63.5889 96.6749 62.838 96.8286C62.7223 96.8587 62.6088 96.8965 62.4981 96.9416L60.1852 96.9388Z" fill="#A17FE0"/>
</svg>
