<svg width="62" height="62" viewBox="0 0 62 62" fill="none" xmlns="http://www.w3.org/2000/svg">
<g clip-path="url(#clip0)">
<path d="M50.9105 60.9385C37.6502 62.3538 24.3498 62.3538 11.0895 60.9385C5.80209 60.3742 1.62578 56.1979 1.06146 50.91C-0.353821 37.6497 -0.353821 24.3498 1.06146 11.0895C1.62578 5.80209 5.80209 1.62578 11.0895 1.06146C24.3498 -0.353821 37.6497 -0.353821 50.91 1.06146C56.1979 1.62578 60.3742 5.80209 60.9385 11.0895C62.3538 24.3498 62.3538 37.6497 60.9385 50.91C60.3742 56.1979 56.1984 60.3742 50.9105 60.9385Z" fill="url(#paint0_linear)"/>
<path d="M57.5663 13.3321C57.0659 8.64022 53.3602 4.93409 48.6678 4.43316C36.9009 3.17776 25.099 3.17776 13.3321 4.43316C8.64019 4.93409 4.93406 8.64022 4.43313 13.3321C3.17773 25.099 3.17773 36.9009 4.43313 48.6674C4.93406 53.3598 8.64019 57.0659 13.3321 57.5664C25.099 58.8222 36.9009 58.8222 48.6674 57.5664C53.3597 57.0659 57.0659 53.3598 57.5663 48.6674C58.8222 36.9009 58.8222 25.099 57.5663 13.3321Z" fill="url(#paint1_linear)"/>
<path d="M0.928955 49.6248C0.971527 50.0533 1.01552 50.4819 1.0614 50.9105C1.62572 56.1979 5.80203 60.3742 11.09 60.9385C24.3502 62.3538 37.6502 62.3538 50.9104 60.9385C56.1983 60.3742 60.3742 56.1979 60.9385 50.9105C60.9844 50.4819 61.0284 50.0533 61.0714 49.6248H0.928955Z" fill="url(#paint2_linear)"/>
<path d="M23.0684 40.2031L39.7793 61.7578C50.6777 60.9101 54.4316 61.7578 58.4277 56.6718C61.7578 54.0078 61.5593 43.4726 61.7578 41.0508C62.0605 37.3574 62.0605 36.1465 62.0605 31.4686L49.709 20.2226L23.0684 40.2031Z" fill="url(#paint3_linear)"/>
<path d="M46.0143 35.7433C49.0855 38.9397 49.7259 40.5009 49.827 40.6902C51.1007 43.0641 48.418 43.2434 48.418 43.2434L43.289 43.3288C43.289 43.3288 42.1832 43.575 40.733 42.4493C38.8103 40.9834 37.0043 37.1437 35.5868 37.6347C34.1608 38.1456 34.2035 41.6067 34.2035 41.6067C34.2035 41.6067 34.2121 42.2116 33.8919 42.6086C33.5375 43.0242 32.8458 42.9872 32.8458 42.9872H30.5432C30.5432 42.9872 25.4739 43.4597 21.0109 38.2495C16.1437 32.5654 11.85 21.3581 11.85 21.3581C11.85 21.3581 11.6052 20.6493 11.8671 20.2893C12.1702 19.8922 12.9971 19.8737 12.9971 19.8737L18.489 19.8452C18.489 19.8452 19.0042 19.9491 19.3742 20.2523C19.6774 20.4985 19.8553 20.971 19.8553 20.971C19.8553 20.971 20.7405 23.4956 21.9131 25.7656C24.2073 30.2101 25.2789 31.185 26.0545 30.7125C27.1931 30.0123 26.8472 24.4321 26.8472 24.4321C26.8472 24.4321 26.8728 22.3984 26.2737 21.4904C25.8183 20.8002 24.9573 20.5924 24.5702 20.5355C24.2585 20.4885 24.7723 19.6844 25.4312 19.3244C26.4189 18.785 28.1651 18.748 30.223 18.7765C31.8254 18.795 32.2894 18.9088 32.9142 19.0796C34.8126 19.5905 34.1708 21.5673 34.1708 26.3149C34.1708 27.8377 33.926 29.9753 34.9051 30.684C35.3264 30.9871 36.3568 30.731 38.9213 25.8325C40.1438 23.5056 41.056 20.7817 41.056 20.7817C41.056 20.7817 41.2581 20.2893 41.5712 20.0815C41.8914 19.8737 42.3226 19.9392 42.3226 19.9392L48.1007 19.8922C48.1007 19.8922 49.8298 19.6659 50.1173 20.5454C50.4119 21.4634 49.4683 23.6195 47.1059 27.1475C43.2221 32.934 42.7909 32.3961 46.0143 35.7433Z" fill="#FFFEF4"/>
</g>
<defs>
<linearGradient id="paint0_linear" x1="14.1041" y1="-1.5506" x2="58.7783" y2="84.5157" gradientUnits="userSpaceOnUse">
<stop stop-color="#2A80E3"/>
<stop offset="1" stop-color="#2787F5"/>
</linearGradient>
<linearGradient id="paint1_linear" x1="23.7795" y1="26.9385" x2="-81.2559" y2="-32.1439" gradientUnits="userSpaceOnUse">
<stop stop-color="#505152" stop-opacity="0"/>
<stop offset="1" stop-color="#232629"/>
</linearGradient>
<linearGradient id="paint2_linear" x1="31" y1="54.7303" x2="31" y2="64.3945" gradientUnits="userSpaceOnUse">
<stop stop-color="#6B6B6B" stop-opacity="0"/>
<stop offset="1" stop-color="#4C4E50"/>
</linearGradient>
<linearGradient id="paint3_linear" x1="20.5859" y1="12.5937" x2="49.8906" y2="48.6797" gradientUnits="userSpaceOnUse">
<stop stop-color="#6D6D6D"/>
<stop offset="1" stop-color="#4E4C4C" stop-opacity="0"/>
</linearGradient>
<clipPath id="clip0">
<rect width="62" height="62" fill="white"/>
</clipPath>
</defs>
</svg>
