<svg width="62" height="62" viewBox="0 0 62 62" fill="none" xmlns="http://www.w3.org/2000/svg">
<path d="M50.9105 60.9385C37.6502 62.3538 24.3498 62.3538 11.0895 60.9385C5.80209 60.3742 1.62578 56.1979 1.06146 50.91C-0.353821 37.6497 -0.353821 24.3498 1.06146 11.0895C1.62578 5.80209 5.80209 1.62578 11.0895 1.06146C24.3498 -0.353821 37.6497 -0.353821 50.91 1.06146C56.1979 1.62578 60.3742 5.80209 60.9385 11.0895C62.3538 24.3498 62.3538 37.6497 60.9385 50.91C60.3742 56.1979 56.1984 60.3742 50.9105 60.9385Z" fill="url(#paint0_linear)"/>
<path d="M57.5663 13.3321C57.0659 8.64022 53.3602 4.93409 48.6678 4.43316C36.9009 3.17776 25.099 3.17776 13.3321 4.43316C8.64019 4.93409 4.93406 8.64022 4.43313 13.3321C3.17773 25.099 3.17773 36.9009 4.43313 48.6674C4.93406 53.3598 8.64019 57.0659 13.3321 57.5664C25.099 58.8222 36.9009 58.8222 48.6674 57.5664C53.3597 57.0659 57.0659 53.3598 57.5663 48.6674C58.8222 36.9009 58.8222 25.099 57.5663 13.3321Z" fill="url(#paint1_linear)"/>
<path d="M0.928955 49.6248C0.971527 50.0533 1.01552 50.4819 1.0614 50.9105C1.62572 56.1979 5.80203 60.3742 11.09 60.9385C24.3502 62.3538 37.6502 62.3538 50.9104 60.9385C56.1983 60.3742 60.3742 56.1979 60.9385 50.9105C60.9844 50.4819 61.0284 50.0533 61.0714 49.6248H0.928955Z" fill="url(#paint2_linear)"/>
<path fill-rule="evenodd" clip-rule="evenodd" d="M44.5554 17.3694C40.9585 13.7701 36.2973 12.0299 31.2015 12.0275C20.7013 12.0275 12.2777 20.4483 12.2735 30.9484C12.2721 34.305 13.3922 37.4596 15.0591 40.3474L11.87 50.2156L23.5045 61.8496C32.6414 62.2162 41.7849 61.9125 50.9104 60.9385C56.1983 60.3742 60.3742 56.1979 60.9385 50.91C61.5123 45.5369 61.8529 40.1568 61.9617 34.7757L44.5554 17.3694Z" fill="url(#paint3_linear)"/>
<path d="M12.5327 49.5505L15.1419 40.0238C13.5322 37.2359 12.686 34.0728 12.6869 30.833C12.6912 20.6966 20.9407 12.45 31.0771 12.45C35.9965 12.4523 40.6142 14.3666 44.0857 17.8415C47.5581 21.3168 49.4691 25.9353 49.4673 30.8477C49.463 40.9841 41.2125 49.2317 31.0776 49.2317C31.0771 49.2317 31.078 49.2317 31.0776 49.2317H31.0695C27.992 49.2308 24.968 48.4583 22.2817 46.9943L12.5327 49.5505Z" fill="url(#paint4_linear)"/>
<path fill-rule="evenodd" clip-rule="evenodd" d="M44.5554 17.3694C40.9585 13.7702 36.1758 11.7868 31.0799 11.7844C20.5798 11.7844 12.0346 20.3267 12.0303 30.8269C12.0289 34.1835 12.9059 37.4596 14.5728 40.3474L11.87 50.2156L21.9686 47.5676C24.7513 49.0851 27.8837 49.8845 31.0719 49.8859H31.0799C41.5786 49.8859 50.1252 41.3417 50.1295 30.842C50.1314 25.7537 48.1518 20.9691 44.5554 17.3694ZM31.0799 46.6698H31.0738C28.2323 46.6679 25.4457 45.905 23.0154 44.4627L22.4368 44.1198L16.4441 45.6911L18.0439 39.8503L17.6669 39.2514C16.0818 36.7312 15.245 33.8188 15.2464 30.8283C15.2497 22.101 22.3522 15.001 31.0861 15.001C35.3154 15.0024 39.2902 16.6514 42.2801 19.6427C45.2696 22.6346 46.9143 26.6113 46.9134 30.8411C46.9096 39.5683 39.8067 46.6698 31.0799 46.6698Z" fill="white"/>
<path fill-rule="evenodd" clip-rule="evenodd" d="M39.7647 34.8149C39.2888 34.577 36.9488 33.4252 36.5122 33.2663C36.076 33.1078 35.7586 33.0283 35.4412 33.5051C35.1238 33.981 34.2118 35.0529 33.9342 35.3703C33.6565 35.6881 33.3789 35.7279 32.903 35.4899C32.4271 35.2511 30.8941 34.7492 29.0753 33.1277C27.6605 31.8661 26.705 30.308 26.4273 29.8316C26.1496 29.3553 26.3975 29.0975 26.6364 28.86C26.8497 28.6472 27.1122 28.3047 27.3502 28.0266C27.5876 27.7489 27.6671 27.5503 27.826 27.2329C27.9845 26.915 27.905 26.6373 27.7863 26.3994C27.6671 26.161 26.7423 23.8072 26.319 22.8659C25.9623 22.0736 25.5867 22.0575 25.2476 22.0438C24.9704 22.032 24.6525 22.0324 24.3356 22.0324C24.0182 22.0324 23.5026 22.1516 23.0665 22.628C22.6299 23.1043 21.4 24.2556 21.4 26.5976C21.4 28.9395 23.1062 31.2025 23.3437 31.5203C23.5821 31.8377 26.6369 36.7969 31.4749 38.7051C35.4956 40.2906 36.314 39.9751 37.1867 39.8957C38.0594 39.8162 40.0026 38.7448 40.3995 37.6332C40.7958 36.5221 40.7958 35.5694 40.6771 35.3703C40.5579 35.1721 40.2405 35.0529 39.7647 34.8149Z" fill="white"/>
<defs>
<linearGradient id="paint0_linear" x1="14.1041" y1="-1.5506" x2="58.7783" y2="84.5157" gradientUnits="userSpaceOnUse">
<stop stop-color="#5BD366"/>
<stop offset="1" stop-color="#27B43E"/>
</linearGradient>
<linearGradient id="paint1_linear" x1="23.7795" y1="26.9385" x2="-81.2559" y2="-32.1439" gradientUnits="userSpaceOnUse">
<stop stop-color="#505152" stop-opacity="0"/>
<stop offset="1" stop-color="#232629"/>
</linearGradient>
<linearGradient id="paint2_linear" x1="31" y1="54.7303" x2="31" y2="64.3945" gradientUnits="userSpaceOnUse">
<stop stop-color="#6B6B6B" stop-opacity="0"/>
<stop offset="1" stop-color="#4C4E50"/>
</linearGradient>
<linearGradient id="paint3_linear" x1="41.0754" y1="49.3313" x2="17.6619" y2="10.8532" gradientUnits="userSpaceOnUse">
<stop stop-color="#5E6063" stop-opacity="0"/>
<stop offset="1" stop-color="#53585C"/>
</linearGradient>
<linearGradient id="paint4_linear" x1="30.9999" y1="49.5506" x2="30.9999" y2="12.4499" gradientUnits="userSpaceOnUse">
<stop stop-color="#20B038"/>
<stop offset="1" stop-color="#60D66A"/>
</linearGradient>
</defs>
</svg>
